{"glyphs":{"0":{"ha":692,"x_min":54,"x_max":638,"o":"m 346 -12 q 183 42 247 -12 q 86 207 118 96 q 54 488 54 318 q 85 769 54 657 q 183 936 117 881 q 346 992 249 992 q 510 937 446 992 q 606 770 575 882 q 638 490 638 658 q 606 209 638 321 q 510 42 574 97 q 346 -12 446 -12 m 346 108 q 465 197 429 108 q 501 489 501 285 q 465 781 501 692 q 346 871 428 871 q 227 781 264 871 q 190 488 190 692 q 226 197 190 286 q 346 108 263 108 z "},"1":{"ha":692,"x_min":58,"x_max":661,"o":"m 86 0 l 86 118 l 314 118 l 314 869 l 374 858 l 117 696 l 58 803 l 338 979 l 453 979 l 453 118 l 661 118 l 661 0 l 86 0 z "},"2":{"ha":692,"x_min":58,"x_max":625,"o":"m 90 0 l 90 103 l 358 457 q 415 542 393 500 q 447 625 436 583 q 457 710 457 667 q 418 829 457 788 q 313 871 379 871 q 208 848 263 871 q 106 778 153 825 l 58 885 q 185 966 113 940 q 333 992 257 992 q 473 959 414 992 q 564 865 532 926 q 596 722 596 804 q 584 630 596 675 q 552 542 572 585 q 507 460 532 500 q 456 385 482 421 l 276 128 l 272 118 l 625 118 l 625 0 l 90 0 z "},"3":{"ha":692,"x_min":53,"x_max":621,"o":"m 318 -12 q 221 -1 269 -12 q 129 33 172 10 q 53 90 86 56 l 100 200 q 204 131 147 153 q 313 110 261 110 q 400 126 361 110 q 462 179 439 143 q 485 271 485 215 q 441 395 485 354 q 317 436 397 436 l 197 436 l 197 556 l 300 556 q 386 574 349 556 q 444 631 424 593 q 465 725 465 669 q 426 835 465 800 q 321 869 386 869 q 215 848 271 869 q 113 775 160 826 l 65 883 q 189 965 115 939 q 342 992 263 992 q 478 961 419 992 q 569 874 536 931 q 601 742 601 818 q 565 597 601 658 q 463 506 528 535 l 463 501 q 542 458 507 489 q 599 381 578 428 q 621 268 621 333 q 582 117 621 181 q 476 21 543 54 q 318 -12 408 -12 z "},"4":{"ha":692,"x_min":50,"x_max":650,"o":"m 428 0 l 428 199 l 50 199 l 50 300 l 404 979 l 551 979 l 551 311 l 650 311 l 650 199 l 551 199 l 551 0 l 428 0 m 433 311 l 433 808 l 431 808 l 174 299 l 157 311 l 433 311 z "},"5":{"ha":692,"x_min":78,"x_max":640,"o":"m 340 -12 q 240 -1 288 -12 q 153 35 193 11 q 78 94 113 60 l 126 203 q 226 132 175 154 q 333 110 276 110 q 463 158 418 110 q 507 313 507 207 q 467 455 507 408 q 350 501 428 501 q 271 478 306 501 q 204 403 236 456 l 96 403 l 96 979 l 599 979 l 599 860 l 215 860 l 215 517 l 228 517 q 295 592 254 564 q 392 619 336 619 q 527 583 471 619 q 612 481 583 547 q 640 322 640 415 q 604 136 640 211 q 501 24 568 61 q 340 -12 433 -12 z "},"6":{"ha":692,"x_min":64,"x_max":636,"o":"m 361 -12 q 196 42 263 -12 q 97 203 129 96 q 64 469 64 311 q 102 756 64 640 q 214 932 140 872 q 394 992 288 992 q 489 981 447 992 q 567 948 531 971 q 636 889 603 925 l 590 781 q 503 849 549 829 q 403 869 457 869 q 303 841 344 869 q 235 761 261 813 q 198 638 210 710 q 186 481 186 567 l 186 421 l 194 421 q 230 528 204 483 q 298 596 256 572 q 394 619 340 619 q 524 582 469 619 q 607 474 578 544 q 636 310 636 404 q 603 138 636 210 q 509 26 571 65 q 361 -12 447 -12 m 367 104 q 444 127 413 104 q 493 196 476 150 q 510 307 510 242 q 493 415 510 371 q 445 481 476 458 q 368 503 414 503 q 288 480 321 503 q 238 413 256 457 q 219 304 219 368 q 236 195 219 240 q 286 127 253 150 q 367 104 319 104 z "},"7":{"ha":692,"x_min":69,"x_max":622,"o":"m 111 0 l 499 921 l 506 849 l 69 849 l 69 979 l 622 979 l 622 874 l 265 0 l 111 0 z "},"8":{"ha":692,"x_min":49,"x_max":643,"o":"m 346 -12 q 128 60 207 -12 q 49 257 49 132 q 70 377 49 326 q 131 459 92 428 q 221 499 171 490 l 221 501 q 144 542 179 511 q 89 620 110 572 q 68 731 68 668 q 142 921 68 850 q 346 992 217 992 q 549 921 474 992 q 624 731 624 850 q 603 622 624 669 q 546 543 582 574 q 468 500 510 513 l 468 499 q 558 461 518 493 q 620 378 597 429 q 643 257 643 326 q 564 60 643 132 q 346 -12 485 -12 m 346 103 q 472 148 428 103 q 515 271 515 193 q 472 394 515 350 q 346 438 429 438 q 220 394 264 438 q 176 271 176 350 q 221 148 176 193 q 346 103 265 103 m 346 554 q 456 597 415 554 q 496 717 496 639 q 456 835 496 793 q 346 876 417 876 q 236 835 276 876 q 196 717 196 793 q 236 597 196 639 q 346 554 276 554 z "},"9":{"ha":692,"x_min":56,"x_max":629,"o":"m 299 -12 q 205 -2 247 -12 q 126 31 163 8 q 56 86 90 53 l 103 193 q 192 127 147 144 q 292 110 238 110 q 391 138 350 110 q 458 218 432 167 q 494 341 483 269 q 506 499 506 413 l 506 558 l 499 558 q 463 453 489 496 q 394 388 436 410 q 297 365 353 365 q 169 402 224 365 q 85 506 115 439 q 56 669 56 574 q 89 841 56 768 q 184 953 122 914 q 331 992 246 992 q 500 938 433 992 q 598 778 567 885 q 629 510 629 672 q 591 225 629 342 q 480 48 553 108 q 299 -12 407 -12 m 325 478 q 404 501 371 478 q 455 569 438 524 q 472 676 472 614 q 456 785 472 742 q 407 852 439 829 q 325 875 375 875 q 247 851 279 875 q 200 783 215 828 q 185 674 185 739 q 201 566 185 611 q 249 499 217 521 q 325 478 281 478 z "},"A":{"ha":910,"x_min":35,"x_max":875,"o":"m 35 0 l 389 979 l 521 979 l 875 0 l 725 0 l 635 276 l 693 229 l 215 229 l 272 276 l 181 0 l 35 0 m 450 826 l 282 321 l 260 349 l 647 349 l 624 321 l 456 826 l 450 826 z "},"Á":{"ha":910,"x_min":35,"x_max":875,"o":"m 35 0 l 389 979 l 521 979 l 875 0 l 725 0 l 635 276 l 693 229 l 215 229 l 272 276 l 181 0 l 35 0 m 450 826 l 282 321 l 260 349 l 647 349 l 624 321 l 456 826 l 450 826 m 396 1063 l 531 1285 l 700 1285 l 515 1063 l 396 1063 z "},"Ă":{"ha":910,"x_min":35,"x_max":875,"o":"m 35 0 l 389 979 l 521 979 l 875 0 l 725 0 l 635 276 l 693 229 l 215 229 l 272 276 l 181 0 l 35 0 m 450 826 l 282 321 l 260 349 l 647 349 l 624 321 l 456 826 l 450 826 m 456 1056 q 310 1113 363 1056 q 256 1281 258 1171 l 349 1290 q 375 1193 350 1225 q 456 1161 400 1161 q 538 1194 514 1161 q 564 1290 561 1226 l 657 1281 q 601 1113 654 1171 q 456 1056 549 1056 z "},"Ắ":{"ha":910,"x_min":35,"x_max":875,"o":"m 35 0 l 389 979 l 521 979 l 875 0 l 725 0 l 635 276 l 693 229 l 215 229 l 272 276 l 181 0 l 35 0 m 450 826 l 282 321 l 260 349 l 647 349 l 624 321 l 456 826 l 450 826 m 456 1063 q 306 1115 357 1063 q 253 1260 254 1167 l 340 1267 q 372 1183 342 1210 q 456 1156 403 1156 q 540 1182 510 1156 q 572 1267 569 1208 l 660 1260 q 607 1115 658 1167 q 456 1063 556 1063 m 403 1247 l 490 1449 l 636 1449 l 497 1247 l 403 1247 z "},"Ặ":{"ha":910,"x_min":35,"x_max":875,"o":"m 35 0 l 389 979 l 521 979 l 875 0 l 725 0 l 635 276 l 693 229 l 215 229 l 272 276 l 181 0 l 35 0 m 450 826 l 282 321 l 260 349 l 647 349 l 624 321 l 456 826 l 450 826 m 379 -275 l 379 -129 l 529 -129 l 529 -275 l 379 -275 m 456 1056 q 310 1113 363 1056 q 256 1281 258 1171 l 349 1290 q 375 1193 350 1225 q 456 1161 400 1161 q 538 1194 514 1161 q 564 1290 561 1226 l 657 1281 q 601 1113 654 1171 q 456 1056 549 1056 z "},"Ằ":{"ha":910,"x_min":35,"x_max":875,"o":"m 35 0 l 389 979 l 521 979 l 875 0 l 725 0 l 635 276 l 693 229 l 215 229 l 272 276 l 181 0 l 35 0 m 450 826 l 282 321 l 260 349 l 647 349 l 624 321 l 456 826 l 450 826 m 456 1063 q 306 1115 357 1063 q 253 1260 254 1167 l 340 1267 q 372 1183 342 1210 q 456 1156 403 1156 q 540 1182 510 1156 q 572 1267 569 1208 l 660 1260 q 607 1115 658 1167 q 456 1063 556 1063 m 418 1247 l 285 1449 l 428 1449 l 513 1247 l 418 1247 z "},"Ẳ":{"ha":910,"x_min":35,"x_max":875,"o":"m 35 0 l 389 979 l 521 979 l 875 0 l 725 0 l 635 276 l 693 229 l 215 229 l 272 276 l 181 0 l 35 0 m 450 826 l 282 321 l 260 349 l 647 349 l 624 321 l 456 826 l 450 826 m 456 1063 q 306 1115 357 1063 q 253 1260 254 1167 l 340 1267 q 372 1183 342 1210 q 456 1156 403 1156 q 540 1182 510 1156 q 572 1267 569 1208 l 660 1260 q 607 1115 658 1167 q 456 1063 556 1063 m 413 1243 q 420 1282 413 1267 q 438 1310 428 1297 q 457 1333 449 1322 q 465 1358 465 1344 q 453 1383 465 1374 q 418 1393 440 1393 q 386 1387 403 1393 q 354 1371 369 1381 l 333 1436 q 388 1458 356 1450 q 460 1467 419 1467 q 547 1446 515 1467 q 578 1386 578 1425 q 566 1342 578 1360 q 540 1311 554 1324 q 513 1283 525 1299 q 500 1243 500 1267 l 413 1243 z "},"Ẵ":{"ha":910,"x_min":35,"x_max":875,"o":"m 35 0 l 389 979 l 521 979 l 875 0 l 725 0 l 635 276 l 693 229 l 215 229 l 272 276 l 181 0 l 35 0 m 450 826 l 282 321 l 260 349 l 647 349 l 624 321 l 456 826 l 450 826 m 456 1063 q 310 1110 363 1063 q 253 1239 258 1157 l 338 1246 q 377 1174 346 1197 q 456 1151 408 1151 q 535 1174 504 1151 q 574 1246 567 1197 l 660 1239 q 601 1110 654 1157 q 456 1063 549 1063 m 326 1306 l 250 1311 q 267 1388 254 1356 q 305 1437 279 1419 q 371 1454 331 1454 q 432 1440 407 1454 q 472 1415 457 1425 q 499 1399 481 1411 q 538 1388 517 1388 q 570 1406 558 1388 q 585 1457 582 1424 l 663 1451 q 628 1345 657 1382 q 538 1308 599 1308 q 478 1322 501 1308 q 443 1343 454 1336 q 407 1366 422 1357 q 374 1375 392 1375 q 342 1358 353 1375 q 326 1306 332 1340 z "},"Ǎ":{"ha":910,"x_min":35,"x_max":875,"o":"m 35 0 l 389 979 l 521 979 l 875 0 l 725 0 l 635 276 l 693 229 l 215 229 l 272 276 l 181 0 l 35 0 m 450 826 l 282 321 l 260 349 l 647 349 l 624 321 l 456 826 l 450 826 m 390 1063 l 249 1281 l 360 1281 l 456 1144 l 553 1281 l 663 1281 l 521 1063 l 390 1063 z "},"Â":{"ha":910,"x_min":35,"x_max":875,"o":"m 35 0 l 389 979 l 521 979 l 875 0 l 725 0 l 635 276 l 693 229 l 215 229 l 272 276 l 181 0 l 35 0 m 450 826 l 282 321 l 260 349 l 647 349 l 624 321 l 456 826 l 450 826 m 249 1063 l 390 1281 l 521 1281 l 663 1063 l 551 1063 l 456 1199 l 358 1063 l 249 1063 z "},"Ấ":{"ha":910,"x_min":35,"x_max":875,"o":"m 35 0 l 389 979 l 521 979 l 875 0 l 725 0 l 635 276 l 693 229 l 215 229 l 272 276 l 181 0 l 35 0 m 450 826 l 282 321 l 260 349 l 647 349 l 624 321 l 456 826 l 450 826 m 260 1065 l 392 1288 l 524 1288 l 656 1065 l 549 1065 l 457 1207 l 365 1065 l 260 1065 m 586 1233 l 667 1446 l 790 1446 l 675 1233 l 586 1233 z "},"Ậ":{"ha":910,"x_min":35,"x_max":875,"o":"m 35 0 l 389 979 l 521 979 l 875 0 l 725 0 l 635 276 l 693 229 l 215 229 l 272 276 l 181 0 l 35 0 m 450 826 l 282 321 l 260 349 l 647 349 l 624 321 l 456 826 l 450 826 m 379 -275 l 379 -129 l 529 -129 l 529 -275 l 379 -275 m 249 1063 l 390 1281 l 521 1281 l 663 1063 l 551 1063 l 456 1199 l 358 1063 l 249 1063 z "},"Ầ":{"ha":910,"x_min":35,"x_max":875,"o":"m 35 0 l 389 979 l 521 979 l 875 0 l 725 0 l 635 276 l 693 229 l 215 229 l 272 276 l 181 0 l 35 0 m 450 826 l 282 321 l 260 349 l 647 349 l 624 321 l 456 826 l 450 826 m 260 1065 l 392 1288 l 524 1288 l 656 1065 l 549 1065 l 457 1207 l 365 1065 l 260 1065 m 629 1233 l 517 1446 l 638 1446 l 717 1233 l 629 1233 z "},"Ẩ":{"ha":910,"x_min":35,"x_max":875,"o":"m 35 0 l 389 979 l 521 979 l 875 0 l 725 0 l 635 276 l 693 229 l 215 229 l 272 276 l 181 0 l 35 0 m 450 826 l 282 321 l 260 349 l 647 349 l 624 321 l 456 826 l 450 826 m 260 1065 l 392 1260 l 524 1260 l 656 1065 l 549 1065 l 457 1193 l 365 1065 l 260 1065 m 579 1232 q 588 1270 579 1254 q 608 1300 596 1286 q 628 1326 619 1314 q 636 1350 636 1338 q 624 1374 636 1367 q 590 1382 613 1382 q 560 1376 575 1382 q 531 1361 544 1371 l 510 1425 q 561 1446 531 1438 q 629 1454 592 1454 q 712 1433 682 1454 q 742 1376 742 1413 q 731 1333 742 1351 q 705 1301 719 1315 q 678 1271 690 1286 q 667 1232 667 1256 l 579 1232 z "},"Ẫ":{"ha":910,"x_min":35,"x_max":875,"o":"m 35 0 l 389 979 l 521 979 l 875 0 l 725 0 l 635 276 l 693 229 l 215 229 l 272 276 l 181 0 l 35 0 m 450 826 l 282 321 l 260 349 l 647 349 l 624 321 l 456 826 l 450 826 m 257 1065 l 390 1244 l 522 1244 l 654 1065 l 546 1065 l 456 1179 l 365 1065 l 257 1065 m 326 1296 l 250 1300 q 284 1407 256 1368 q 371 1446 313 1446 q 432 1431 407 1446 q 472 1406 457 1415 q 499 1390 481 1401 q 538 1378 517 1378 q 570 1394 558 1378 q 585 1447 582 1411 l 663 1442 q 627 1335 657 1374 q 538 1297 597 1297 q 478 1312 501 1297 q 443 1332 454 1326 q 407 1356 422 1347 q 374 1364 392 1364 q 344 1348 356 1364 q 326 1296 332 1332 z "},"Ȁ":{"ha":910,"x_min":35,"x_max":875,"o":"m 35 0 l 389 979 l 521 979 l 875 0 l 725 0 l 635 276 l 693 229 l 215 229 l 272 276 l 181 0 l 35 0 m 450 826 l 282 321 l 260 349 l 647 349 l 624 321 l 456 826 l 450 826 m 497 1063 l 353 1281 l 490 1281 l 585 1063 l 497 1063 m 324 1063 l 167 1281 l 304 1281 l 411 1063 l 324 1063 z "},"Ä":{"ha":910,"x_min":35,"x_max":875,"o":"m 35 0 l 389 979 l 521 979 l 875 0 l 725 0 l 635 276 l 693 229 l 215 229 l 272 276 l 181 0 l 35 0 m 450 826 l 282 321 l 260 349 l 647 349 l 624 321 l 456 826 l 450 826 m 506 1106 l 506 1246 l 653 1246 l 653 1106 l 506 1106 m 258 1106 l 258 1246 l 406 1246 l 406 1106 l 258 1106 z "},"Ȧ":{"ha":910,"x_min":35,"x_max":875,"o":"m 35 0 l 389 979 l 521 979 l 875 0 l 725 0 l 635 276 l 693 229 l 215 229 l 272 276 l 181 0 l 35 0 m 450 826 l 282 321 l 260 349 l 647 349 l 624 321 l 456 826 l 450 826 m 378 1108 l 378 1260 l 532 1260 l 532 1108 l 378 1108 z "},"Ạ":{"ha":910,"x_min":35,"x_max":875,"o":"m 35 0 l 389 979 l 521 979 l 875 0 l 725 0 l 635 276 l 693 229 l 215 229 l 272 276 l 181 0 l 35 0 m 450 826 l 282 321 l 260 349 l 647 349 l 624 321 l 456 826 l 450 826 m 379 -275 l 379 -129 l 529 -129 l 529 -275 l 379 -275 z "},"À":{"ha":910,"x_min":35,"x_max":875,"o":"m 35 0 l 389 979 l 521 979 l 875 0 l 725 0 l 635 276 l 693 229 l 215 229 l 272 276 l 181 0 l 35 0 m 450 826 l 282 321 l 260 349 l 647 349 l 624 321 l 456 826 l 450 826 m 403 1063 l 218 1281 l 376 1281 l 511 1063 l 403 1063 z "},"Ả":{"ha":910,"x_min":35,"x_max":875,"o":"m 35 0 l 389 979 l 521 979 l 875 0 l 725 0 l 635 276 l 693 229 l 215 229 l 272 276 l 181 0 l 35 0 m 450 826 l 282 321 l 260 349 l 647 349 l 624 321 l 456 826 l 450 826 m 410 1063 l 410 1089 q 419 1128 410 1113 q 441 1155 429 1143 q 462 1179 453 1167 q 471 1206 471 1192 q 462 1227 471 1221 q 432 1233 453 1233 q 394 1231 414 1233 q 357 1219 375 1228 l 336 1286 q 392 1307 360 1300 q 460 1314 424 1314 q 552 1292 519 1314 q 585 1228 585 1269 q 572 1181 585 1199 q 543 1149 560 1163 q 514 1120 526 1135 q 501 1083 501 1106 l 501 1063 l 410 1063 z "},"Ȃ":{"ha":910,"x_min":35,"x_max":875,"o":"m 35 0 l 389 979 l 521 979 l 875 0 l 725 0 l 635 276 l 693 229 l 215 229 l 272 276 l 181 0 l 35 0 m 450 826 l 282 321 l 260 349 l 647 349 l 624 321 l 456 826 l 450 826 m 349 1056 l 256 1064 q 310 1234 258 1178 q 456 1290 363 1290 q 602 1233 550 1290 q 657 1064 654 1176 l 564 1056 q 538 1151 561 1118 q 457 1183 514 1183 q 377 1152 403 1183 q 349 1056 351 1121 z "},"Ā":{"ha":910,"x_min":35,"x_max":875,"o":"m 35 0 l 389 979 l 521 979 l 875 0 l 725 0 l 635 276 l 693 229 l 215 229 l 272 276 l 181 0 l 35 0 m 450 826 l 282 321 l 260 349 l 647 349 l 624 321 l 456 826 l 450 826 m 257 1124 l 257 1235 l 654 1235 l 654 1124 l 257 1124 z "},"Ą":{"ha":910,"x_min":35,"x_max":894,"o":"m 35 0 l 389 979 l 521 979 l 875 0 l 725 0 l 635 276 l 693 229 l 215 229 l 272 276 l 181 0 l 35 0 m 450 826 l 282 321 l 260 349 l 647 349 l 624 321 l 456 826 l 450 826 m 796 -278 q 692 -244 731 -278 q 653 -149 653 -210 q 686 -42 653 -93 q 775 47 719 10 l 824 0 q 788 -33 803 -14 q 765 -75 772 -53 q 757 -121 757 -97 q 772 -170 757 -154 q 815 -186 788 -186 q 842 -183 826 -186 q 872 -172 857 -179 l 894 -256 q 846 -273 869 -268 q 796 -278 822 -278 z "},"Å":{"ha":910,"x_min":35,"x_max":875,"o":"m 35 0 l 389 979 l 521 979 l 875 0 l 725 0 l 635 276 l 693 229 l 215 229 l 272 276 l 181 0 l 35 0 m 450 826 l 282 321 l 260 349 l 647 349 l 624 321 l 456 826 l 450 826 m 456 1049 q 372 1071 408 1049 q 314 1130 336 1093 q 292 1211 292 1167 q 313 1294 292 1258 q 372 1352 335 1331 q 456 1374 408 1374 q 540 1352 503 1374 q 598 1294 576 1331 q 619 1211 619 1258 q 598 1130 619 1167 q 540 1071 576 1093 q 456 1049 503 1049 m 454 1115 q 520 1143 494 1115 q 546 1213 546 1171 q 520 1281 546 1254 q 454 1307 494 1307 q 392 1281 418 1307 q 365 1213 365 1254 q 391 1142 365 1169 q 454 1115 417 1115 z "},"Ǻ":{"ha":910,"x_min":35,"x_max":875,"o":"m 35 0 l 389 979 l 521 979 l 875 0 l 725 0 l 635 276 l 693 229 l 215 229 l 272 276 l 181 0 l 35 0 m 450 826 l 282 321 l 260 349 l 647 349 l 624 321 l 456 826 l 450 826 m 456 1056 q 366 1079 406 1056 q 303 1142 326 1103 q 279 1232 279 1182 q 303 1320 279 1281 q 366 1383 326 1360 q 456 1407 406 1407 q 503 1400 482 1407 q 546 1382 525 1393 l 599 1460 l 732 1460 l 604 1326 q 624 1282 617 1306 q 632 1232 632 1258 q 609 1142 632 1182 q 546 1079 586 1103 q 456 1056 506 1056 m 456 1131 q 523 1159 496 1131 q 550 1231 550 1188 q 523 1306 550 1278 q 456 1333 496 1333 q 388 1306 415 1333 q 361 1232 361 1278 q 388 1159 361 1188 q 456 1131 415 1131 z "},"Ã":{"ha":910,"x_min":35,"x_max":875,"o":"m 35 0 l 389 979 l 521 979 l 875 0 l 725 0 l 635 276 l 693 229 l 215 229 l 272 276 l 181 0 l 35 0 m 450 826 l 282 321 l 260 349 l 647 349 l 624 321 l 456 826 l 450 826 m 290 1072 l 204 1079 q 240 1210 203 1158 q 343 1261 278 1261 q 422 1242 388 1261 q 475 1213 456 1222 q 511 1192 488 1206 q 560 1179 535 1179 q 606 1203 589 1179 q 621 1265 622 1226 l 707 1261 q 673 1130 710 1181 q 568 1079 636 1079 q 490 1098 524 1079 q 442 1125 456 1117 q 401 1147 426 1133 q 351 1161 376 1161 q 306 1138 322 1161 q 290 1072 290 1114 z "},"Æ":{"ha":1211,"x_min":-11,"x_max":1107,"o":"m -11 0 l 450 979 l 1107 979 l 1107 856 l 603 856 l 656 915 l 722 514 l 642 557 l 1085 557 l 1085 435 l 665 435 l 728 476 l 796 65 l 724 124 l 1107 124 l 1107 0 l 661 0 l 614 281 l 660 228 l 217 228 l 275 279 l 146 0 l -11 0 m 517 832 l 286 321 l 271 349 l 633 349 l 608 318 l 522 832 l 517 832 z "},"Ǽ":{"ha":1211,"x_min":-11,"x_max":1107,"o":"m -11 0 l 450 979 l 1107 979 l 1107 856 l 603 856 l 656 915 l 722 514 l 642 557 l 1085 557 l 1085 435 l 665 435 l 728 476 l 796 65 l 724 124 l 1107 124 l 1107 0 l 661 0 l 614 281 l 660 228 l 217 228 l 275 279 l 146 0 l -11 0 m 517 832 l 286 321 l 271 349 l 633 349 l 608 318 l 522 832 l 517 832 m 526 1063 l 661 1285 l 831 1285 l 646 1063 l 526 1063 z "},"B":{"ha":868,"x_min":125,"x_max":775,"o":"m 125 0 l 125 979 l 471 979 q 678 915 603 979 q 754 728 754 850 q 722 580 754 635 q 638 506 690 525 l 638 503 q 706 465 675 494 q 756 388 736 436 q 775 269 775 340 q 740 125 775 186 q 639 32 704 64 q 481 0 574 0 l 125 0 m 268 121 l 474 121 q 531 128 506 121 q 575 147 556 135 q 607 179 594 160 q 625 223 619 199 q 631 276 631 247 q 624 335 631 310 q 606 380 618 361 q 574 411 593 399 q 531 429 556 424 q 478 435 507 435 l 268 435 l 268 121 m 268 554 l 458 554 q 572 595 533 554 q 611 714 611 636 q 574 822 611 786 q 456 858 538 858 l 268 858 l 268 554 z "},"Ɓ":{"ha":1019,"x_min":19,"x_max":926,"o":"m 278 0 l 278 868 l 244 868 q 159 840 182 868 q 136 739 136 811 l 136 672 l 19 672 l 19 743 q 74 923 19 867 q 244 979 129 979 l 631 979 q 835 915 764 979 q 906 728 906 850 q 874 580 906 635 q 790 506 842 525 l 790 503 q 858 465 826 494 q 908 388 889 436 q 926 269 926 340 q 891 125 926 186 q 790 32 856 64 q 633 0 725 0 l 278 0 m 419 117 l 626 117 q 744 158 706 117 q 783 275 783 200 q 744 398 783 360 q 629 436 704 436 l 419 436 l 419 117 m 419 553 l 611 553 q 724 594 685 553 q 764 715 764 636 q 726 825 764 788 q 608 863 689 863 l 419 863 l 419 553 z "},"C":{"ha":832,"x_min":94,"x_max":750,"o":"m 476 -14 q 272 44 358 -14 q 140 214 186 101 q 94 489 94 326 q 140 766 94 654 q 272 935 186 878 q 476 992 357 992 q 632 967 564 992 q 750 889 700 943 l 704 779 q 603 846 654 825 q 488 867 551 867 q 304 777 368 867 q 240 492 240 688 q 305 203 240 294 q 489 113 369 113 q 603 133 551 113 q 704 200 654 154 l 750 90 q 631 12 700 38 q 476 -14 563 -14 z "},"Ć":{"ha":832,"x_min":94,"x_max":750,"o":"m 476 -14 q 272 44 358 -14 q 140 214 186 101 q 94 489 94 326 q 140 766 94 654 q 272 935 186 878 q 476 992 357 992 q 632 967 564 992 q 750 889 700 943 l 704 779 q 603 846 654 825 q 488 867 551 867 q 304 777 368 867 q 240 492 240 688 q 305 203 240 294 q 489 113 369 113 q 603 133 551 113 q 704 200 654 154 l 750 90 q 631 12 700 38 q 476 -14 563 -14 m 411 1063 l 546 1285 l 715 1285 l 531 1063 l 411 1063 z "},"Č":{"ha":832,"x_min":94,"x_max":750,"o":"m 476 -14 q 272 44 358 -14 q 140 214 186 101 q 94 489 94 326 q 140 766 94 654 q 272 935 186 878 q 476 992 357 992 q 632 967 564 992 q 750 889 700 943 l 704 779 q 603 846 654 825 q 488 867 551 867 q 304 777 368 867 q 240 492 240 688 q 305 203 240 294 q 489 113 369 113 q 603 133 551 113 q 704 200 654 154 l 750 90 q 631 12 700 38 q 476 -14 563 -14 m 406 1063 l 264 1281 l 375 1281 l 471 1144 l 568 1281 l 678 1281 l 536 1063 l 406 1063 z "},"Ç":{"ha":832,"x_min":94,"x_max":750,"o":"m 476 -14 q 272 44 358 -14 q 140 214 186 101 q 94 489 94 326 q 140 766 94 654 q 272 935 186 878 q 476 992 357 992 q 632 967 564 992 q 750 889 700 943 l 704 779 q 603 846 654 825 q 488 867 551 867 q 304 777 368 867 q 240 492 240 688 q 305 203 240 294 q 489 113 369 113 q 603 133 551 113 q 704 200 654 154 l 750 90 q 631 12 700 38 q 476 -14 563 -14 m 479 -278 q 413 -271 449 -278 q 353 -250 376 -264 l 376 -181 q 421 -198 396 -190 q 475 -206 446 -206 q 524 -194 508 -206 q 540 -158 540 -183 q 526 -127 540 -137 q 490 -117 511 -117 q 463 -119 479 -117 q 435 -126 447 -122 l 411 -104 l 432 28 l 506 28 l 489 -83 l 456 -68 q 487 -58 465 -61 q 531 -56 508 -56 q 582 -67 558 -56 q 621 -101 606 -78 q 636 -158 636 -124 q 617 -225 636 -199 q 562 -265 597 -251 q 479 -278 526 -278 z "},"Ḉ":{"ha":832,"x_min":94,"x_max":750,"o":"m 476 -14 q 272 44 358 -14 q 140 214 186 101 q 94 489 94 326 q 140 766 94 654 q 272 935 186 878 q 476 992 357 992 q 632 967 564 992 q 750 889 700 943 l 704 779 q 603 846 654 825 q 488 867 551 867 q 304 777 368 867 q 240 492 240 688 q 305 203 240 294 q 489 113 369 113 q 603 133 551 113 q 704 200 654 154 l 750 90 q 631 12 700 38 q 476 -14 563 -14 m 479 -278 q 413 -271 449 -278 q 353 -250 376 -264 l 376 -181 q 421 -198 396 -190 q 475 -206 446 -206 q 524 -194 508 -206 q 540 -158 540 -183 q 526 -127 540 -137 q 490 -117 511 -117 q 463 -119 479 -117 q 435 -126 447 -122 l 411 -104 l 432 28 l 506 28 l 489 -83 l 456 -68 q 487 -58 465 -61 q 531 -56 508 -56 q 582 -67 558 -56 q 621 -101 606 -78 q 636 -158 636 -124 q 617 -225 636 -199 q 562 -265 597 -251 q 479 -278 526 -278 m 411 1063 l 546 1285 l 715 1285 l 531 1063 l 411 1063 z "},"Ĉ":{"ha":832,"x_min":94,"x_max":750,"o":"m 476 -14 q 272 44 358 -14 q 140 214 186 101 q 94 489 94 326 q 140 766 94 654 q 272 935 186 878 q 476 992 357 992 q 632 967 564 992 q 750 889 700 943 l 704 779 q 603 846 654 825 q 488 867 551 867 q 304 777 368 867 q 240 492 240 688 q 305 203 240 294 q 489 113 369 113 q 603 133 551 113 q 704 200 654 154 l 750 90 q 631 12 700 38 q 476 -14 563 -14 m 264 1063 l 406 1281 l 536 1281 l 678 1063 l 567 1063 l 471 1199 l 374 1063 l 264 1063 z "},"Ċ":{"ha":832,"x_min":94,"x_max":750,"o":"m 476 -14 q 272 44 358 -14 q 140 214 186 101 q 94 489 94 326 q 140 766 94 654 q 272 935 186 878 q 476 992 357 992 q 632 967 564 992 q 750 889 700 943 l 704 779 q 603 846 654 825 q 488 867 551 867 q 304 777 368 867 q 240 492 240 688 q 305 203 240 294 q 489 113 369 113 q 603 133 551 113 q 704 200 654 154 l 750 90 q 631 12 700 38 q 476 -14 563 -14 m 393 1108 l 393 1260 l 547 1260 l 547 1108 l 393 1108 z "},"D":{"ha":931,"x_min":125,"x_max":836,"o":"m 125 0 l 125 979 l 440 979 q 659 924 571 979 q 792 760 747 868 q 836 490 836 651 q 792 220 836 329 q 658 56 747 111 q 440 0 569 0 l 125 0 m 268 125 l 432 125 q 626 211 563 125 q 689 490 689 297 q 626 769 689 683 q 432 854 563 854 l 268 854 l 268 125 z "},"Ǆ":{"ha":1647,"x_min":125,"x_max":1589,"o":"m 125 0 l 125 979 l 440 979 q 659 924 571 979 q 792 760 747 868 q 836 490 836 651 q 792 220 836 329 q 658 56 747 111 q 440 0 569 0 l 125 0 m 268 125 l 432 125 q 626 211 563 125 q 689 490 689 297 q 626 769 689 683 q 432 854 563 854 l 268 854 l 268 125 m 985 0 l 985 96 l 1439 914 l 1456 856 l 985 856 l 985 979 l 1576 979 l 1576 885 l 1119 67 l 1104 124 l 1589 124 l 1589 0 l 985 0 m 1214 1063 l 1072 1281 l 1183 1281 l 1279 1144 l 1376 1281 l 1486 1281 l 1344 1063 l 1214 1063 z "},"Ð":{"ha":931,"x_min":28,"x_max":836,"o":"m 125 0 l 125 979 l 440 979 q 659 924 571 979 q 792 760 747 868 q 836 490 836 651 q 792 220 836 329 q 658 56 747 111 q 440 0 569 0 l 125 0 m 268 125 l 432 125 q 626 211 563 125 q 689 490 689 297 q 626 769 689 683 q 432 854 563 854 l 268 854 l 268 125 m 28 436 l 28 557 l 503 557 l 503 436 l 28 436 z "},"Ď":{"ha":931,"x_min":125,"x_max":836,"o":"m 125 0 l 125 979 l 440 979 q 659 924 571 979 q 792 760 747 868 q 836 490 836 651 q 792 220 836 329 q 658 56 747 111 q 440 0 569 0 l 125 0 m 268 125 l 432 125 q 626 211 563 125 q 689 490 689 297 q 626 769 689 683 q 432 854 563 854 l 268 854 l 268 125 m 401 1063 l 260 1281 l 371 1281 l 467 1144 l 564 1281 l 674 1281 l 532 1063 l 401 1063 z "},"Đ":{"ha":931,"x_min":28,"x_max":836,"o":"m 125 0 l 125 979 l 440 979 q 659 924 571 979 q 792 760 747 868 q 836 490 836 651 q 792 220 836 329 q 658 56 747 111 q 440 0 569 0 l 125 0 m 268 125 l 432 125 q 626 211 563 125 q 689 490 689 297 q 626 769 689 683 q 432 854 563 854 l 268 854 l 268 125 m 28 436 l 28 557 l 503 557 l 503 436 l 28 436 z "},"Ḍ":{"ha":931,"x_min":125,"x_max":836,"o":"m 125 0 l 125 979 l 440 979 q 659 924 571 979 q 792 760 747 868 q 836 490 836 651 q 792 220 836 329 q 658 56 747 111 q 440 0 569 0 l 125 0 m 268 125 l 432 125 q 626 211 563 125 q 689 490 689 297 q 626 769 689 683 q 432 854 563 854 l 268 854 l 268 125 m 392 -275 l 392 -129 l 542 -129 l 542 -275 l 392 -275 z "},"Ɗ":{"ha":1082,"x_min":19,"x_max":988,"o":"m 278 0 l 278 868 l 244 868 q 159 840 182 868 q 136 739 136 811 l 136 672 l 19 672 l 19 743 q 75 923 19 867 q 251 979 131 979 l 593 979 q 811 924 724 979 q 943 760 899 868 q 988 490 988 651 q 942 220 988 329 q 810 56 897 111 q 593 0 722 0 l 278 0 m 421 125 l 583 125 q 777 211 714 125 q 840 490 840 297 q 777 769 840 683 q 583 854 714 854 l 421 854 l 421 125 z "},"Ḏ":{"ha":931,"x_min":125,"x_max":836,"o":"m 125 0 l 125 979 l 440 979 q 659 924 571 979 q 792 760 747 868 q 836 490 836 651 q 792 220 836 329 q 658 56 747 111 q 440 0 569 0 l 125 0 m 268 125 l 432 125 q 626 211 563 125 q 689 490 689 297 q 626 769 689 683 q 432 854 563 854 l 268 854 l 268 125 m 269 -240 l 269 -129 l 664 -129 l 664 -240 l 269 -240 z "},"ǅ":{"ha":1571,"x_min":125,"x_max":1507,"o":"m 125 0 l 125 979 l 440 979 q 659 924 571 979 q 792 760 747 868 q 836 490 836 651 q 792 220 836 329 q 658 56 747 111 q 440 0 569 0 l 125 0 m 268 125 l 432 125 q 626 211 563 125 q 689 490 689 297 q 626 769 689 683 q 432 854 563 854 l 268 854 l 268 125 m 1006 0 l 1006 92 l 1353 624 l 1360 575 l 1015 575 l 1015 692 l 1493 692 l 1493 600 l 1143 69 l 1136 118 l 1507 118 l 1507 0 l 1006 0 m 1193 778 l 1063 1036 l 1172 1036 l 1260 867 l 1349 1036 l 1457 1036 l 1326 778 l 1193 778 z "},"E":{"ha":775,"x_min":125,"x_max":671,"o":"m 125 0 l 125 979 l 671 979 l 671 856 l 268 856 l 268 557 l 640 557 l 640 435 l 268 435 l 268 124 l 671 124 l 671 0 l 125 0 z "},"É":{"ha":775,"x_min":125,"x_max":671,"o":"m 125 0 l 125 979 l 671 979 l 671 856 l 268 856 l 268 557 l 640 557 l 640 435 l 268 435 l 268 124 l 671 124 l 671 0 l 125 0 m 347 1063 l 482 1285 l 651 1285 l 467 1063 l 347 1063 z "},"Ĕ":{"ha":775,"x_min":125,"x_max":671,"o":"m 125 0 l 125 979 l 671 979 l 671 856 l 268 856 l 268 557 l 640 557 l 640 435 l 268 435 l 268 124 l 671 124 l 671 0 l 125 0 m 407 1056 q 262 1113 314 1056 q 207 1281 210 1171 l 300 1290 q 326 1193 301 1225 q 407 1161 351 1161 q 489 1194 465 1161 q 515 1290 513 1226 l 608 1281 q 553 1113 606 1171 q 407 1056 500 1056 z "},"Ě":{"ha":775,"x_min":125,"x_max":671,"o":"m 125 0 l 125 979 l 671 979 l 671 856 l 268 856 l 268 557 l 640 557 l 640 435 l 268 435 l 268 124 l 671 124 l 671 0 l 125 0 m 342 1063 l 200 1281 l 311 1281 l 407 1144 l 504 1281 l 614 1281 l 472 1063 l 342 1063 z "},"Ȩ":{"ha":775,"x_min":125,"x_max":671,"o":"m 125 0 l 125 979 l 671 979 l 671 856 l 268 856 l 268 557 l 640 557 l 640 435 l 268 435 l 268 124 l 671 124 l 671 0 l 125 0 m 415 -278 q 349 -271 385 -278 q 289 -250 313 -264 l 313 -181 q 357 -198 332 -190 q 411 -206 382 -206 q 460 -194 444 -206 q 476 -158 476 -183 q 462 -127 476 -137 q 426 -117 447 -117 q 399 -119 415 -117 q 371 -126 383 -122 l 347 -104 l 368 28 l 442 28 l 425 -83 l 392 -68 q 423 -58 401 -61 q 467 -56 444 -56 q 518 -67 494 -56 q 557 -101 542 -78 q 572 -158 572 -124 q 553 -225 572 -199 q 498 -265 533 -251 q 415 -278 463 -278 z "},"Ḝ":{"ha":775,"x_min":125,"x_max":671,"o":"m 125 0 l 125 979 l 671 979 l 671 856 l 268 856 l 268 557 l 640 557 l 640 435 l 268 435 l 268 124 l 671 124 l 671 0 l 125 0 m 415 -278 q 349 -271 385 -278 q 289 -250 313 -264 l 313 -181 q 357 -198 332 -190 q 411 -206 382 -206 q 460 -194 444 -206 q 476 -158 476 -183 q 462 -127 476 -137 q 426 -117 447 -117 q 399 -119 415 -117 q 371 -126 383 -122 l 347 -104 l 368 28 l 442 28 l 425 -83 l 392 -68 q 423 -58 401 -61 q 467 -56 444 -56 q 518 -67 494 -56 q 557 -101 542 -78 q 572 -158 572 -124 q 553 -225 572 -199 q 498 -265 533 -251 q 415 -278 463 -278 m 407 1056 q 262 1113 314 1056 q 207 1281 210 1171 l 300 1290 q 326 1193 301 1225 q 407 1161 351 1161 q 489 1194 465 1161 q 515 1290 513 1226 l 608 1281 q 553 1113 606 1171 q 407 1056 500 1056 z "},"Ê":{"ha":775,"x_min":125,"x_max":671,"o":"m 125 0 l 125 979 l 671 979 l 671 856 l 268 856 l 268 557 l 640 557 l 640 435 l 268 435 l 268 124 l 671 124 l 671 0 l 125 0 m 200 1063 l 342 1281 l 472 1281 l 614 1063 l 503 1063 l 407 1199 l 310 1063 l 200 1063 z "},"Ế":{"ha":775,"x_min":125,"x_max":742,"o":"m 125 0 l 125 979 l 671 979 l 671 856 l 268 856 l 268 557 l 640 557 l 640 435 l 268 435 l 268 124 l 671 124 l 671 0 l 125 0 m 211 1065 l 343 1288 l 475 1288 l 607 1065 l 500 1065 l 408 1207 l 317 1065 l 211 1065 m 538 1233 l 618 1446 l 742 1446 l 626 1233 l 538 1233 z "},"Ệ":{"ha":775,"x_min":125,"x_max":671,"o":"m 125 0 l 125 979 l 671 979 l 671 856 l 268 856 l 268 557 l 640 557 l 640 435 l 268 435 l 268 124 l 671 124 l 671 0 l 125 0 m 332 -275 l 332 -129 l 482 -129 l 482 -275 l 332 -275 m 200 1063 l 342 1281 l 472 1281 l 614 1063 l 503 1063 l 407 1199 l 310 1063 l 200 1063 z "},"Ề":{"ha":775,"x_min":125,"x_max":671,"o":"m 125 0 l 125 979 l 671 979 l 671 856 l 268 856 l 268 557 l 640 557 l 640 435 l 268 435 l 268 124 l 671 124 l 671 0 l 125 0 m 211 1065 l 343 1288 l 475 1288 l 607 1065 l 500 1065 l 408 1207 l 317 1065 l 211 1065 m 581 1233 l 468 1446 l 589 1446 l 668 1233 l 581 1233 z "},"Ể":{"ha":775,"x_min":125,"x_max":694,"o":"m 125 0 l 125 979 l 671 979 l 671 856 l 268 856 l 268 557 l 640 557 l 640 435 l 268 435 l 268 124 l 671 124 l 671 0 l 125 0 m 211 1065 l 343 1260 l 475 1260 l 607 1065 l 500 1065 l 408 1193 l 317 1065 l 211 1065 m 531 1232 q 539 1270 531 1254 q 559 1300 547 1286 q 579 1326 571 1314 q 588 1350 588 1338 q 576 1374 588 1367 q 542 1382 564 1382 q 511 1376 526 1382 q 482 1361 496 1371 l 461 1425 q 513 1446 482 1438 q 581 1454 543 1454 q 663 1433 633 1454 q 693 1376 693 1413 q 682 1333 693 1351 q 656 1301 671 1315 q 630 1271 642 1286 q 618 1232 618 1256 l 531 1232 z "},"Ễ":{"ha":775,"x_min":125,"x_max":671,"o":"m 125 0 l 125 979 l 671 979 l 671 856 l 268 856 l 268 557 l 640 557 l 640 435 l 268 435 l 268 124 l 671 124 l 671 0 l 125 0 m 208 1065 l 342 1244 l 474 1244 l 606 1065 l 497 1065 l 407 1179 l 317 1065 l 208 1065 m 278 1296 l 201 1300 q 235 1407 207 1368 q 322 1446 264 1446 q 383 1431 358 1446 q 424 1406 408 1415 q 450 1390 432 1401 q 489 1378 468 1378 q 522 1394 510 1378 q 536 1447 533 1411 l 614 1442 q 578 1335 608 1374 q 489 1297 549 1297 q 429 1312 453 1297 q 394 1332 406 1326 q 358 1356 374 1347 q 325 1364 343 1364 q 295 1348 307 1364 q 278 1296 283 1332 z "},"Ȅ":{"ha":775,"x_min":119,"x_max":671,"o":"m 125 0 l 125 979 l 671 979 l 671 856 l 268 856 l 268 557 l 640 557 l 640 435 l 268 435 l 268 124 l 671 124 l 671 0 l 125 0 m 449 1063 l 304 1281 l 442 1281 l 536 1063 l 449 1063 m 275 1063 l 118 1281 l 256 1281 l 363 1063 l 275 1063 z "},"Ë":{"ha":775,"x_min":125,"x_max":671,"o":"m 125 0 l 125 979 l 671 979 l 671 856 l 268 856 l 268 557 l 640 557 l 640 435 l 268 435 l 268 124 l 671 124 l 671 0 l 125 0 m 457 1106 l 457 1246 l 604 1246 l 604 1106 l 457 1106 m 210 1106 l 210 1246 l 357 1246 l 357 1106 l 210 1106 z "},"Ė":{"ha":775,"x_min":125,"x_max":671,"o":"m 125 0 l 125 979 l 671 979 l 671 856 l 268 856 l 268 557 l 640 557 l 640 435 l 268 435 l 268 124 l 671 124 l 671 0 l 125 0 m 329 1108 l 329 1260 l 483 1260 l 483 1108 l 329 1108 z "},"Ẹ":{"ha":775,"x_min":125,"x_max":671,"o":"m 125 0 l 125 979 l 671 979 l 671 856 l 268 856 l 268 557 l 640 557 l 640 435 l 268 435 l 268 124 l 671 124 l 671 0 l 125 0 m 332 -275 l 332 -129 l 482 -129 l 482 -275 l 332 -275 z "},"È":{"ha":775,"x_min":125,"x_max":671,"o":"m 125 0 l 125 979 l 671 979 l 671 856 l 268 856 l 268 557 l 640 557 l 640 435 l 268 435 l 268 124 l 671 124 l 671 0 l 125 0 m 354 1063 l 169 1281 l 328 1281 l 463 1063 l 354 1063 z "},"Ẻ":{"ha":775,"x_min":125,"x_max":671,"o":"m 125 0 l 125 979 l 671 979 l 671 856 l 268 856 l 268 557 l 640 557 l 640 435 l 268 435 l 268 124 l 671 124 l 671 0 l 125 0 m 361 1063 l 361 1089 q 371 1128 361 1113 q 392 1155 381 1143 q 413 1179 404 1167 q 422 1206 422 1192 q 413 1227 422 1221 q 383 1233 404 1233 q 346 1231 365 1233 q 308 1219 326 1228 l 288 1286 q 343 1307 311 1300 q 411 1314 375 1314 q 503 1292 471 1314 q 536 1228 536 1269 q 524 1181 536 1199 q 494 1149 511 1163 q 465 1120 478 1135 q 453 1083 453 1106 l 453 1063 l 361 1063 z "},"Ȇ":{"ha":775,"x_min":125,"x_max":671,"o":"m 125 0 l 125 979 l 671 979 l 671 856 l 268 856 l 268 557 l 640 557 l 640 435 l 268 435 l 268 124 l 671 124 l 671 0 l 125 0 m 300 1056 l 207 1064 q 262 1234 210 1178 q 407 1290 314 1290 q 553 1233 501 1290 q 608 1064 606 1176 l 515 1056 q 489 1151 513 1118 q 408 1183 465 1183 q 328 1152 354 1183 q 300 1056 303 1121 z "},"Ē":{"ha":775,"x_min":125,"x_max":671,"o":"m 125 0 l 125 979 l 671 979 l 671 856 l 268 856 l 268 557 l 640 557 l 640 435 l 268 435 l 268 124 l 671 124 l 671 0 l 125 0 m 208 1124 l 208 1235 l 606 1235 l 606 1124 l 208 1124 z "},"Ḗ":{"ha":775,"x_min":125,"x_max":671,"o":"m 125 0 l 125 979 l 671 979 l 671 856 l 268 856 l 268 557 l 640 557 l 640 435 l 268 435 l 268 124 l 671 124 l 671 0 l 125 0 m 217 1099 l 217 1197 l 597 1197 l 597 1099 l 217 1099 m 340 1254 l 438 1454 l 596 1454 l 447 1254 l 340 1254 z "},"Ḕ":{"ha":775,"x_min":125,"x_max":671,"o":"m 125 0 l 125 979 l 671 979 l 671 856 l 268 856 l 268 557 l 640 557 l 640 435 l 268 435 l 268 124 l 671 124 l 671 0 l 125 0 m 367 1254 l 218 1454 l 376 1454 l 474 1254 l 367 1254 m 217 1099 l 217 1197 l 597 1197 l 597 1099 l 217 1099 z "},"Ę":{"ha":775,"x_min":125,"x_max":683,"o":"m 125 0 l 125 979 l 671 979 l 671 856 l 268 856 l 268 557 l 640 557 l 640 435 l 268 435 l 268 124 l 671 124 l 671 0 l 125 0 m 586 -278 q 482 -244 521 -278 q 443 -149 443 -210 q 476 -42 443 -93 q 565 47 510 10 l 614 0 q 578 -33 593 -14 q 555 -75 563 -53 q 547 -121 547 -97 q 563 -170 547 -154 q 606 -186 578 -186 q 632 -183 617 -186 q 663 -172 647 -179 l 685 -256 q 636 -273 660 -268 q 586 -278 613 -278 z "},"Ẽ":{"ha":775,"x_min":125,"x_max":671,"o":"m 125 0 l 125 979 l 671 979 l 671 856 l 268 856 l 268 557 l 640 557 l 640 435 l 268 435 l 268 124 l 671 124 l 671 0 l 125 0 m 242 1072 l 156 1079 q 192 1210 154 1158 q 294 1261 229 1261 q 373 1242 339 1261 q 426 1213 407 1222 q 463 1192 439 1206 q 511 1179 486 1179 q 557 1203 540 1179 q 572 1265 574 1226 l 658 1261 q 624 1130 661 1181 q 519 1079 588 1079 q 441 1098 475 1079 q 393 1125 407 1117 q 353 1147 378 1133 q 303 1161 328 1161 q 258 1138 274 1161 q 242 1072 242 1114 z "},"Ə":{"ha":960,"x_min":94,"x_max":865,"o":"m 471 -12 q 281 42 365 -12 q 145 207 196 97 q 94 481 94 317 l 94 550 l 774 550 l 774 436 l 210 436 l 242 463 q 308 200 244 288 q 474 113 371 113 q 655 207 589 113 q 721 488 721 301 q 657 772 721 683 q 449 861 593 861 q 355 851 403 861 q 263 821 307 840 q 182 771 218 801 l 139 892 q 230 946 175 924 q 346 980 285 968 q 458 992 407 992 q 688 939 597 992 q 822 776 778 886 q 865 497 865 667 q 838 282 865 376 q 758 122 810 188 q 634 22 707 56 q 471 -12 561 -12 z "},"F":{"ha":738,"x_min":125,"x_max":671,"o":"m 125 0 l 125 979 l 671 979 l 671 856 l 268 856 l 268 549 l 649 549 l 649 425 l 268 425 l 268 0 l 125 0 z "},"G":{"ha":915,"x_min":94,"x_max":800,"o":"m 496 -12 q 280 44 369 -12 q 142 210 190 100 q 94 489 94 321 q 140 767 94 656 q 276 935 186 879 q 490 992 365 992 q 606 980 551 992 q 708 946 661 968 q 788 889 754 924 l 743 781 q 630 845 692 825 q 499 865 568 865 q 306 778 372 865 q 240 490 240 690 q 306 199 240 289 q 506 110 372 110 q 621 119 567 110 q 721 149 675 129 l 671 92 l 671 411 l 493 411 l 493 532 l 800 532 l 800 50 q 715 17 765 31 q 609 -5 665 3 q 496 -12 553 -12 z "},"Ğ":{"ha":915,"x_min":94,"x_max":800,"o":"m 496 -12 q 280 44 369 -12 q 142 210 190 100 q 94 489 94 321 q 140 767 94 656 q 276 935 186 879 q 490 992 365 992 q 606 980 551 992 q 708 946 661 968 q 788 889 754 924 l 743 781 q 630 845 692 825 q 499 865 568 865 q 306 778 372 865 q 240 490 240 690 q 306 199 240 289 q 506 110 372 110 q 621 119 567 110 q 721 149 675 129 l 671 92 l 671 411 l 493 411 l 493 532 l 800 532 l 800 50 q 715 17 765 31 q 609 -5 665 3 q 496 -12 553 -12 m 492 1056 q 347 1113 399 1056 q 292 1281 294 1171 l 385 1290 q 411 1193 386 1225 q 492 1161 436 1161 q 574 1194 550 1161 q 600 1290 597 1226 l 693 1281 q 638 1113 690 1171 q 492 1056 585 1056 z "},"Ǧ":{"ha":915,"x_min":94,"x_max":800,"o":"m 496 -12 q 280 44 369 -12 q 142 210 190 100 q 94 489 94 321 q 140 767 94 656 q 276 935 186 879 q 490 992 365 992 q 606 980 551 992 q 708 946 661 968 q 788 889 754 924 l 743 781 q 630 845 692 825 q 499 865 568 865 q 306 778 372 865 q 240 490 240 690 q 306 199 240 289 q 506 110 372 110 q 621 119 567 110 q 721 149 675 129 l 671 92 l 671 411 l 493 411 l 493 532 l 800 532 l 800 50 q 715 17 765 31 q 609 -5 665 3 q 496 -12 553 -12 m 426 1063 l 285 1281 l 396 1281 l 492 1144 l 589 1281 l 699 1281 l 557 1063 l 426 1063 z "},"Ĝ":{"ha":915,"x_min":94,"x_max":800,"o":"m 496 -12 q 280 44 369 -12 q 142 210 190 100 q 94 489 94 321 q 140 767 94 656 q 276 935 186 879 q 490 992 365 992 q 606 980 551 992 q 708 946 661 968 q 788 889 754 924 l 743 781 q 630 845 692 825 q 499 865 568 865 q 306 778 372 865 q 240 490 240 690 q 306 199 240 289 q 506 110 372 110 q 621 119 567 110 q 721 149 675 129 l 671 92 l 671 411 l 493 411 l 493 532 l 800 532 l 800 50 q 715 17 765 31 q 609 -5 665 3 q 496 -12 553 -12 m 285 1063 l 426 1281 l 557 1281 l 699 1063 l 588 1063 l 492 1199 l 394 1063 l 285 1063 z "},"Ģ":{"ha":915,"x_min":94,"x_max":800,"o":"m 496 -12 q 280 44 369 -12 q 142 210 190 100 q 94 489 94 321 q 140 767 94 656 q 276 935 186 879 q 490 992 365 992 q 606 980 551 992 q 708 946 661 968 q 788 889 754 924 l 743 781 q 630 845 692 825 q 499 865 568 865 q 306 778 372 865 q 240 490 240 690 q 306 199 240 289 q 506 110 372 110 q 621 119 567 110 q 721 149 675 129 l 671 92 l 671 411 l 493 411 l 493 532 l 800 532 l 800 50 q 715 17 765 31 q 609 -5 665 3 q 496 -12 553 -12 m 499 -408 l 439 -367 q 477 -302 465 -337 q 489 -226 489 -267 l 511 -243 l 419 -243 l 419 -107 l 568 -107 l 568 -212 q 553 -319 568 -271 q 499 -408 538 -368 z "},"Ġ":{"ha":915,"x_min":94,"x_max":800,"o":"m 496 -12 q 280 44 369 -12 q 142 210 190 100 q 94 489 94 321 q 140 767 94 656 q 276 935 186 879 q 490 992 365 992 q 606 980 551 992 q 708 946 661 968 q 788 889 754 924 l 743 781 q 630 845 692 825 q 499 865 568 865 q 306 778 372 865 q 240 490 240 690 q 306 199 240 289 q 506 110 372 110 q 621 119 567 110 q 721 149 675 129 l 671 92 l 671 411 l 493 411 l 493 532 l 800 532 l 800 50 q 715 17 765 31 q 609 -5 665 3 q 496 -12 553 -12 m 414 1108 l 414 1260 l 568 1260 l 568 1108 l 414 1108 z "},"Ḡ":{"ha":915,"x_min":94,"x_max":800,"o":"m 496 -12 q 280 44 369 -12 q 142 210 190 100 q 94 489 94 321 q 140 767 94 656 q 276 935 186 879 q 490 992 365 992 q 606 980 551 992 q 708 946 661 968 q 788 889 754 924 l 743 781 q 630 845 692 825 q 499 865 568 865 q 306 778 372 865 q 240 490 240 690 q 306 199 240 289 q 506 110 372 110 q 621 119 567 110 q 721 149 675 129 l 671 92 l 671 411 l 493 411 l 493 532 l 800 532 l 800 50 q 715 17 765 31 q 609 -5 665 3 q 496 -12 553 -12 m 293 1124 l 293 1235 l 690 1235 l 690 1124 l 293 1124 z "},"H":{"ha":944,"x_min":125,"x_max":818,"o":"m 125 0 l 125 979 l 268 979 l 268 560 l 675 560 l 675 979 l 818 979 l 818 0 l 675 0 l 675 433 l 268 433 l 268 0 l 125 0 z "},"Ħ":{"ha":968,"x_min":31,"x_max":938,"o":"m 138 0 l 138 711 l 31 711 l 31 825 l 138 825 l 138 979 l 281 979 l 281 822 l 688 822 l 688 979 l 831 979 l 831 825 l 938 825 l 938 711 l 831 711 l 831 0 l 688 0 l 688 425 l 281 425 l 281 0 l 138 0 m 281 550 l 688 550 l 688 714 l 281 714 l 281 550 z "},"Ḫ":{"ha":944,"x_min":125,"x_max":818,"o":"m 125 0 l 125 979 l 268 979 l 268 560 l 675 560 l 675 979 l 818 979 l 818 0 l 675 0 l 675 433 l 268 433 l 268 0 l 125 0 m 472 -285 q 326 -233 379 -285 q 271 -89 274 -181 l 363 -81 q 392 -160 365 -133 q 472 -186 419 -186 q 551 -160 524 -186 q 582 -81 579 -133 l 674 -89 q 619 -232 672 -179 q 472 -285 567 -285 z "},"Ĥ":{"ha":944,"x_min":125,"x_max":818,"o":"m 125 0 l 125 979 l 268 979 l 268 560 l 675 560 l 675 979 l 818 979 l 818 0 l 675 0 l 675 433 l 268 433 l 268 0 l 125 0 m 265 1063 l 407 1281 l 538 1281 l 679 1063 l 568 1063 l 472 1199 l 375 1063 l 265 1063 z "},"Ḥ":{"ha":944,"x_min":125,"x_max":818,"o":"m 125 0 l 125 979 l 268 979 l 268 560 l 675 560 l 675 979 l 818 979 l 818 0 l 675 0 l 675 433 l 268 433 l 268 0 l 125 0 m 397 -275 l 397 -129 l 547 -129 l 547 -275 l 397 -275 z "},"I":{"ha":394,"x_min":125,"x_max":268,"o":"m 125 0 l 125 979 l 268 979 l 268 0 l 125 0 z "},"Ĳ":{"ha":903,"x_min":125,"x_max":778,"o":"m 125 0 l 125 979 l 268 979 l 268 0 l 125 0 m 424 -11 l 413 113 l 517 118 q 578 139 551 122 q 620 187 606 156 q 635 263 635 218 l 635 979 l 778 979 l 778 249 q 749 118 778 174 q 667 31 721 63 q 540 -6 614 -1 l 424 -11 z "},"Í":{"ha":394,"x_min":125,"x_max":440,"o":"m 125 0 l 125 979 l 268 979 l 268 0 l 125 0 m 138 1063 l 272 1285 l 442 1285 l 257 1063 l 138 1063 z "},"Ĭ":{"ha":394,"x_min":-4,"x_max":397,"o":"m 125 0 l 125 979 l 268 979 l 268 0 l 125 0 m 197 1056 q 52 1113 104 1056 q -3 1281 0 1171 l 90 1290 q 117 1193 92 1225 q 197 1161 142 1161 q 279 1194 256 1161 q 306 1290 303 1226 l 399 1281 q 343 1113 396 1171 q 197 1056 290 1056 z "},"Î":{"ha":394,"x_min":-11,"x_max":404,"o":"m 125 0 l 125 979 l 268 979 l 268 0 l 125 0 m -10 1063 l 132 1281 l 263 1281 l 404 1063 l 293 1063 l 197 1199 l 100 1063 l -10 1063 z "},"Ȉ":{"ha":394,"x_min":-92,"x_max":326,"o":"m 125 0 l 125 979 l 268 979 l 268 0 l 125 0 m 239 1063 l 94 1281 l 232 1281 l 326 1063 l 239 1063 m 65 1063 l -92 1281 l 46 1281 l 153 1063 l 65 1063 z "},"Ï":{"ha":394,"x_min":-1,"x_max":394,"o":"m 125 0 l 125 979 l 268 979 l 268 0 l 125 0 m 247 1106 l 247 1246 l 394 1246 l 394 1106 l 247 1106 m 0 1106 l 0 1246 l 147 1246 l 147 1106 l 0 1106 z "},"Ḯ":{"ha":394,"x_min":7,"x_max":393,"o":"m 125 0 l 125 979 l 268 979 l 268 0 l 125 0 m 138 1242 l 236 1443 l 393 1443 l 246 1242 l 138 1242 m 8 1067 l 8 1189 l 160 1189 l 160 1067 l 8 1067 m 235 1067 l 235 1189 l 386 1189 l 386 1067 l 235 1067 z "},"İ":{"ha":394,"x_min":118,"x_max":274,"o":"m 125 0 l 125 979 l 268 979 l 268 0 l 125 0 m 119 1108 l 119 1260 l 274 1260 l 274 1108 l 119 1108 z "},"Ị":{"ha":394,"x_min":122,"x_max":271,"o":"m 125 0 l 125 979 l 268 979 l 268 0 l 125 0 m 122 -275 l 122 -129 l 272 -129 l 272 -275 l 122 -275 z "},"Ì":{"ha":394,"x_min":-42,"x_max":268,"o":"m 125 0 l 125 979 l 268 979 l 268 0 l 125 0 m 144 1063 l -40 1281 l 118 1281 l 253 1063 l 144 1063 z "},"Ỉ":{"ha":394,"x_min":76,"x_max":326,"o":"m 125 0 l 125 979 l 268 979 l 268 0 l 125 0 m 151 1063 l 151 1089 q 161 1128 151 1113 q 183 1155 171 1143 q 203 1179 194 1167 q 213 1206 213 1192 q 203 1227 213 1221 q 174 1233 194 1233 q 136 1231 156 1233 q 99 1219 117 1228 l 78 1286 q 133 1307 101 1300 q 201 1314 165 1314 q 294 1292 261 1314 q 326 1228 326 1269 q 314 1181 326 1199 q 285 1149 301 1163 q 256 1120 268 1135 q 243 1083 243 1106 l 243 1063 l 151 1063 z "},"Ȋ":{"ha":394,"x_min":-4,"x_max":397,"o":"m 125 0 l 125 979 l 268 979 l 268 0 l 125 0 m 90 1056 l -3 1064 q 52 1234 0 1178 q 197 1290 104 1290 q 344 1233 292 1290 q 399 1064 396 1176 l 306 1056 q 279 1151 303 1118 q 199 1183 256 1183 q 119 1152 144 1183 q 90 1056 93 1121 z "},"Ī":{"ha":394,"x_min":-3,"x_max":396,"o":"m 125 0 l 125 979 l 268 979 l 268 0 l 125 0 m -1 1124 l -1 1235 l 396 1235 l 396 1124 l -1 1124 z "},"Į":{"ha":394,"x_min":72,"x_max":314,"o":"m 125 0 l 125 979 l 268 979 l 268 0 l 125 0 m 215 -278 q 111 -244 150 -278 q 72 -149 72 -210 q 106 -42 72 -93 q 194 47 139 10 l 243 0 q 207 -33 222 -14 q 184 -75 192 -53 q 176 -121 176 -97 q 192 -170 176 -154 q 235 -186 207 -186 q 261 -183 246 -186 q 292 -172 276 -179 l 314 -256 q 265 -273 289 -268 q 215 -278 242 -278 z "},"Ĩ":{"ha":394,"x_min":-56,"x_max":450,"o":"m 125 0 l 125 979 l 268 979 l 268 0 l 125 0 m 32 1072 l -54 1079 q -18 1210 -56 1158 q 85 1261 19 1261 q 163 1242 129 1261 q 217 1213 197 1222 q 253 1192 229 1206 q 301 1179 276 1179 q 347 1203 331 1179 q 363 1265 364 1226 l 449 1261 q 415 1130 451 1181 q 310 1079 378 1079 q 231 1098 265 1079 q 183 1125 197 1117 q 143 1147 168 1133 q 93 1161 118 1161 q 48 1138 64 1161 q 32 1072 32 1114 z "},"J":{"ha":508,"x_min":18,"x_max":383,"o":"m 29 -11 l 18 113 l 122 118 q 184 139 157 122 q 226 187 211 156 q 240 263 240 218 l 240 979 l 383 979 l 383 249 q 355 118 383 174 q 273 31 326 63 q 146 -6 219 -1 l 29 -11 z "},"Ĵ":{"ha":508,"x_min":18,"x_max":519,"o":"m 29 -11 l 18 113 l 122 118 q 184 139 157 122 q 226 187 211 156 q 240 263 240 218 l 240 979 l 383 979 l 383 249 q 355 118 383 174 q 273 31 326 63 q 146 -6 219 -1 l 29 -11 m 106 1063 l 247 1281 l 378 1281 l 519 1063 l 408 1063 l 313 1199 l 215 1063 l 106 1063 z "},"K":{"ha":829,"x_min":125,"x_max":824,"o":"m 125 0 l 125 979 l 268 979 l 268 543 l 275 543 l 622 979 l 794 979 l 374 463 l 385 540 l 824 0 l 636 0 l 275 457 l 268 457 l 268 0 l 125 0 z "},"Ķ":{"ha":829,"x_min":125,"x_max":824,"o":"m 125 0 l 125 979 l 268 979 l 268 543 l 275 543 l 622 979 l 794 979 l 374 463 l 385 540 l 824 0 l 636 0 l 275 457 l 268 457 l 268 0 l 125 0 m 426 -408 l 367 -367 q 405 -302 393 -337 q 417 -226 417 -267 l 439 -243 l 347 -243 l 347 -107 l 496 -107 l 496 -212 q 481 -319 496 -271 q 426 -408 465 -368 z "},"L":{"ha":710,"x_min":125,"x_max":656,"o":"m 125 0 l 125 979 l 268 979 l 268 125 l 656 125 l 656 0 l 125 0 z "},"Ǉ":{"ha":1263,"x_min":125,"x_max":1138,"o":"m 125 0 l 125 979 l 268 979 l 268 125 l 656 125 l 656 0 l 125 0 m 783 -11 l 772 113 l 876 118 q 938 139 911 122 q 980 187 965 156 q 994 263 994 218 l 994 979 l 1138 979 l 1138 249 q 1109 118 1138 174 q 1027 31 1081 63 q 900 -6 974 -1 l 783 -11 z "},"Ĺ":{"ha":710,"x_min":125,"x_max":656,"o":"m 125 0 l 125 979 l 268 979 l 268 125 l 656 125 l 656 0 l 125 0 m 136 1063 l 271 1285 l 440 1285 l 256 1063 l 136 1063 z "},"Ľ":{"ha":710,"x_min":125,"x_max":656,"o":"m 125 0 l 125 979 l 268 979 l 268 125 l 656 125 l 656 0 l 125 0 m 386 654 l 386 979 l 514 979 l 488 654 l 386 654 z "},"Ļ":{"ha":710,"x_min":125,"x_max":656,"o":"m 125 0 l 125 979 l 268 979 l 268 125 l 656 125 l 656 0 l 125 0 m 396 -408 l 336 -367 q 374 -302 363 -337 q 386 -226 386 -267 l 408 -243 l 317 -243 l 317 -107 l 465 -107 l 465 -212 q 450 -319 465 -271 q 396 -408 435 -368 z "},"Ŀ":{"ha":710,"x_min":125,"x_max":656,"o":"m 125 0 l 125 979 l 268 979 l 268 125 l 656 125 l 656 0 l 125 0 m 425 474 l 425 618 l 589 618 l 589 474 l 425 474 z "},"Ḷ":{"ha":710,"x_min":125,"x_max":656,"o":"m 125 0 l 125 979 l 268 979 l 268 125 l 656 125 l 656 0 l 125 0 m 317 -275 l 317 -129 l 467 -129 l 467 -275 l 317 -275 z "},"ǈ":{"ha":1036,"x_min":125,"x_max":957,"o":"m 125 0 l 125 979 l 268 979 l 268 125 l 656 125 l 656 0 l 125 0 m 793 849 l 793 1001 l 957 1001 l 957 849 l 793 849 m 664 -268 l 651 -150 l 710 -142 q 777 -116 751 -136 q 803 -25 803 -96 l 803 692 l 946 692 l 946 -24 q 935 -119 946 -78 q 901 -190 925 -161 q 835 -235 878 -218 q 728 -261 792 -251 l 664 -268 z "},"Ḻ":{"ha":710,"x_min":125,"x_max":656,"o":"m 125 0 l 125 979 l 268 979 l 268 125 l 656 125 l 656 0 l 125 0 m 194 -240 l 194 -129 l 589 -129 l 589 -240 l 194 -240 z "},"Ł":{"ha":726,"x_min":1,"x_max":672,"o":"m 142 0 l 142 979 l 285 979 l 285 125 l 672 125 l 672 0 l 142 0 m 68 336 l 1 438 l 467 744 l 533 643 l 68 336 z "},"M":{"ha":1092,"x_min":128,"x_max":964,"o":"m 128 0 l 128 979 l 314 979 l 547 338 l 547 338 l 781 979 l 964 979 l 964 0 l 824 0 l 824 764 l 814 764 l 594 167 l 496 167 l 279 764 l 268 764 l 268 0 l 128 0 z "},"Ṃ":{"ha":1092,"x_min":128,"x_max":964,"o":"m 128 0 l 128 979 l 314 979 l 547 338 l 547 338 l 781 979 l 964 979 l 964 0 l 824 0 l 824 764 l 814 764 l 594 167 l 496 167 l 279 764 l 268 764 l 268 0 l 128 0 m 454 -275 l 454 -129 l 604 -129 l 604 -275 l 454 -275 z "},"N":{"ha":958,"x_min":125,"x_max":832,"o":"m 125 0 l 125 979 l 256 979 l 704 207 l 694 207 l 694 979 l 832 979 l 832 0 l 694 0 l 251 765 l 264 765 l 264 0 l 125 0 z "},"Ǌ":{"ha":1467,"x_min":125,"x_max":1342,"o":"m 125 0 l 125 979 l 256 979 l 704 207 l 694 207 l 694 979 l 832 979 l 832 0 l 694 0 l 251 765 l 264 765 l 264 0 l 125 0 m 988 -11 l 976 113 l 1081 118 q 1142 139 1115 122 q 1184 187 1169 156 q 1199 263 1199 218 l 1199 979 l 1342 979 l 1342 249 q 1313 118 1342 174 q 1231 31 1285 63 q 1104 -6 1178 -1 l 988 -11 z "},"Ń":{"ha":958,"x_min":125,"x_max":832,"o":"m 125 0 l 125 979 l 256 979 l 704 207 l 694 207 l 694 979 l 832 979 l 832 0 l 694 0 l 251 765 l 264 765 l 264 0 l 125 0 m 426 1063 l 561 1285 l 731 1285 l 546 1063 l 426 1063 z "},"Ň":{"ha":958,"x_min":125,"x_max":832,"o":"m 125 0 l 125 979 l 256 979 l 704 207 l 694 207 l 694 979 l 832 979 l 832 0 l 694 0 l 251 765 l 264 765 l 264 0 l 125 0 m 421 1063 l 279 1281 l 390 1281 l 486 1144 l 583 1281 l 693 1281 l 551 1063 l 421 1063 z "},"Ņ":{"ha":958,"x_min":125,"x_max":832,"o":"m 125 0 l 125 979 l 256 979 l 704 207 l 694 207 l 694 979 l 832 979 l 832 0 l 694 0 l 251 765 l 264 765 l 264 0 l 125 0 m 486 -408 l 426 -367 q 465 -302 453 -337 q 476 -226 476 -267 l 499 -243 l 407 -243 l 407 -107 l 556 -107 l 556 -212 q 540 -319 556 -271 q 486 -408 525 -368 z "},"Ṅ":{"ha":958,"x_min":125,"x_max":832,"o":"m 125 0 l 125 979 l 256 979 l 704 207 l 694 207 l 694 979 l 832 979 l 832 0 l 694 0 l 251 765 l 264 765 l 264 0 l 125 0 m 408 1108 l 408 1260 l 563 1260 l 563 1108 l 408 1108 z "},"Ṇ":{"ha":958,"x_min":125,"x_max":832,"o":"m 125 0 l 125 979 l 256 979 l 704 207 l 694 207 l 694 979 l 832 979 l 832 0 l 694 0 l 251 765 l 264 765 l 264 0 l 125 0 m 407 -275 l 407 -129 l 557 -129 l 557 -275 l 407 -275 z "},"ǋ":{"ha":1285,"x_min":125,"x_max":1206,"o":"m 125 0 l 125 979 l 256 979 l 704 207 l 694 207 l 694 979 l 832 979 l 832 0 l 694 0 l 251 765 l 264 765 l 264 0 l 125 0 m 1042 849 l 1042 1001 l 1206 1001 l 1206 849 l 1042 849 m 913 -268 l 900 -150 l 958 -142 q 1026 -116 1000 -136 q 1051 -25 1051 -96 l 1051 692 l 1194 692 l 1194 -24 q 1184 -119 1194 -78 q 1150 -190 1174 -161 q 1083 -235 1126 -218 q 976 -261 1040 -251 l 913 -268 z "},"Ṉ":{"ha":958,"x_min":125,"x_max":832,"o":"m 125 0 l 125 979 l 256 979 l 704 207 l 694 207 l 694 979 l 832 979 l 832 0 l 694 0 l 251 765 l 264 765 l 264 0 l 125 0 m 285 -240 l 285 -129 l 679 -129 l 679 -240 l 285 -240 z "},"Ñ":{"ha":958,"x_min":125,"x_max":832,"o":"m 125 0 l 125 979 l 256 979 l 704 207 l 694 207 l 694 979 l 832 979 l 832 0 l 694 0 l 251 765 l 264 765 l 264 0 l 125 0 m 321 1072 l 235 1079 q 271 1210 233 1158 q 374 1261 308 1261 q 452 1242 418 1261 q 506 1213 486 1222 q 542 1192 518 1206 q 590 1179 565 1179 q 636 1203 619 1179 q 651 1265 653 1226 l 738 1261 q 703 1130 740 1181 q 599 1079 667 1079 q 520 1098 554 1079 q 472 1125 486 1117 q 432 1147 457 1133 q 382 1161 407 1161 q 337 1138 353 1161 q 321 1072 321 1114 z "},"Ŋ":{"ha":958,"x_min":125,"x_max":832,"o":"m 563 -265 l 551 -153 l 600 -146 q 672 -122 644 -139 q 700 -43 700 -106 l 700 99 l 704 -6 l 251 765 l 264 765 l 264 0 l 125 0 l 125 979 l 254 979 l 704 207 l 694 207 l 694 979 l 832 979 l 832 -25 q 827 -95 832 -62 q 810 -156 822 -128 q 772 -204 797 -183 q 708 -240 746 -225 q 613 -260 669 -254 l 563 -265 z "},"O":{"ha":961,"x_min":94,"x_max":867,"o":"m 481 -12 q 317 19 388 -12 q 196 116 246 51 q 120 274 146 181 q 94 489 94 368 q 120 703 94 610 q 196 861 146 796 q 317 959 246 926 q 481 992 389 992 q 644 959 574 992 q 765 863 715 926 q 840 705 814 799 q 867 490 867 611 q 840 276 867 369 q 765 117 814 182 q 644 20 715 53 q 481 -12 574 -12 m 481 113 q 613 154 561 113 q 692 280 664 196 q 719 490 719 364 q 693 701 719 618 q 613 826 667 785 q 481 867 560 867 q 349 826 401 867 q 268 701 296 785 q 240 489 240 618 q 268 278 240 363 q 349 153 296 194 q 481 113 401 113 z "},"Ó":{"ha":961,"x_min":94,"x_max":867,"o":"m 481 -12 q 317 19 388 -12 q 196 116 246 51 q 120 274 146 181 q 94 489 94 368 q 120 703 94 610 q 196 861 146 796 q 317 959 246 926 q 481 992 389 992 q 644 959 574 992 q 765 863 715 926 q 840 705 814 799 q 867 490 867 611 q 840 276 867 369 q 765 117 814 182 q 644 20 715 53 q 481 -12 574 -12 m 481 113 q 613 154 561 113 q 692 280 664 196 q 719 490 719 364 q 693 701 719 618 q 613 826 667 785 q 481 867 560 867 q 349 826 401 867 q 268 701 296 785 q 240 489 240 618 q 268 278 240 363 q 349 153 296 194 q 481 113 401 113 m 421 1063 l 556 1285 l 725 1285 l 540 1063 l 421 1063 z "},"Ŏ":{"ha":961,"x_min":94,"x_max":867,"o":"m 481 -12 q 317 19 388 -12 q 196 116 246 51 q 120 274 146 181 q 94 489 94 368 q 120 703 94 610 q 196 861 146 796 q 317 959 246 926 q 481 992 389 992 q 644 959 574 992 q 765 863 715 926 q 840 705 814 799 q 867 490 867 611 q 840 276 867 369 q 765 117 814 182 q 644 20 715 53 q 481 -12 574 -12 m 481 113 q 613 154 561 113 q 692 280 664 196 q 719 490 719 364 q 693 701 719 618 q 613 826 667 785 q 481 867 560 867 q 349 826 401 867 q 268 701 296 785 q 240 489 240 618 q 268 278 240 363 q 349 153 296 194 q 481 113 401 113 m 481 1056 q 335 1113 388 1056 q 281 1281 283 1171 l 374 1290 q 400 1193 375 1225 q 481 1161 425 1161 q 563 1194 539 1161 q 589 1290 586 1226 l 682 1281 q 626 1113 679 1171 q 481 1056 574 1056 z "},"Ô":{"ha":961,"x_min":94,"x_max":867,"o":"m 481 -12 q 317 19 388 -12 q 196 116 246 51 q 120 274 146 181 q 94 489 94 368 q 120 703 94 610 q 196 861 146 796 q 317 959 246 926 q 481 992 389 992 q 644 959 574 992 q 765 863 715 926 q 840 705 814 799 q 867 490 867 611 q 840 276 867 369 q 765 117 814 182 q 644 20 715 53 q 481 -12 574 -12 m 481 113 q 613 154 561 113 q 692 280 664 196 q 719 490 719 364 q 693 701 719 618 q 613 826 667 785 q 481 867 560 867 q 349 826 401 867 q 268 701 296 785 q 240 489 240 618 q 268 278 240 363 q 349 153 296 194 q 481 113 401 113 m 274 1063 l 415 1281 l 546 1281 l 688 1063 l 576 1063 l 481 1199 l 383 1063 l 274 1063 z "},"Ố":{"ha":961,"x_min":94,"x_max":867,"o":"m 481 -12 q 317 19 388 -12 q 196 116 246 51 q 120 274 146 181 q 94 489 94 368 q 120 703 94 610 q 196 861 146 796 q 317 959 246 926 q 481 992 389 992 q 644 959 574 992 q 765 863 715 926 q 840 705 814 799 q 867 490 867 611 q 840 276 867 369 q 765 117 814 182 q 644 20 715 53 q 481 -12 574 -12 m 481 113 q 613 154 561 113 q 692 280 664 196 q 719 490 719 364 q 693 701 719 618 q 613 826 667 785 q 481 867 560 867 q 349 826 401 867 q 268 701 296 785 q 240 489 240 618 q 268 278 240 363 q 349 153 296 194 q 481 113 401 113 m 285 1065 l 417 1288 l 549 1288 l 681 1065 l 574 1065 l 482 1207 l 390 1065 l 285 1065 m 611 1233 l 692 1446 l 815 1446 l 700 1233 l 611 1233 z "},"Ộ":{"ha":961,"x_min":94,"x_max":867,"o":"m 481 -12 q 317 19 388 -12 q 196 116 246 51 q 120 274 146 181 q 94 489 94 368 q 120 703 94 610 q 196 861 146 796 q 317 959 246 926 q 481 992 389 992 q 644 959 574 992 q 765 863 715 926 q 840 705 814 799 q 867 490 867 611 q 840 276 867 369 q 765 117 814 182 q 644 20 715 53 q 481 -12 574 -12 m 481 113 q 613 154 561 113 q 692 280 664 196 q 719 490 719 364 q 693 701 719 618 q 613 826 667 785 q 481 867 560 867 q 349 826 401 867 q 268 701 296 785 q 240 489 240 618 q 268 278 240 363 q 349 153 296 194 q 481 113 401 113 m 406 -275 l 406 -129 l 556 -129 l 556 -275 l 406 -275 m 274 1063 l 415 1281 l 546 1281 l 688 1063 l 576 1063 l 481 1199 l 383 1063 l 274 1063 z "},"Ồ":{"ha":961,"x_min":94,"x_max":867,"o":"m 481 -12 q 317 19 388 -12 q 196 116 246 51 q 120 274 146 181 q 94 489 94 368 q 120 703 94 610 q 196 861 146 796 q 317 959 246 926 q 481 992 389 992 q 644 959 574 992 q 765 863 715 926 q 840 705 814 799 q 867 490 867 611 q 840 276 867 369 q 765 117 814 182 q 644 20 715 53 q 481 -12 574 -12 m 481 113 q 613 154 561 113 q 692 280 664 196 q 719 490 719 364 q 693 701 719 618 q 613 826 667 785 q 481 867 560 867 q 349 826 401 867 q 268 701 296 785 q 240 489 240 618 q 268 278 240 363 q 349 153 296 194 q 481 113 401 113 m 285 1065 l 417 1288 l 549 1288 l 681 1065 l 574 1065 l 482 1207 l 390 1065 l 285 1065 m 654 1233 l 542 1446 l 663 1446 l 742 1233 l 654 1233 z "},"Ổ":{"ha":961,"x_min":94,"x_max":867,"o":"m 481 -12 q 317 19 388 -12 q 196 116 246 51 q 120 274 146 181 q 94 489 94 368 q 120 703 94 610 q 196 861 146 796 q 317 959 246 926 q 481 992 389 992 q 644 959 574 992 q 765 863 715 926 q 840 705 814 799 q 867 490 867 611 q 840 276 867 369 q 765 117 814 182 q 644 20 715 53 q 481 -12 574 -12 m 481 113 q 613 154 561 113 q 692 280 664 196 q 719 490 719 364 q 693 701 719 618 q 613 826 667 785 q 481 867 560 867 q 349 826 401 867 q 268 701 296 785 q 240 489 240 618 q 268 278 240 363 q 349 153 296 194 q 481 113 401 113 m 285 1065 l 417 1260 l 549 1260 l 681 1065 l 574 1065 l 482 1193 l 390 1065 l 285 1065 m 604 1232 q 613 1270 604 1254 q 633 1300 621 1286 q 653 1326 644 1314 q 661 1350 661 1338 q 649 1374 661 1367 q 615 1382 638 1382 q 585 1376 600 1382 q 556 1361 569 1371 l 535 1425 q 586 1446 556 1438 q 654 1454 617 1454 q 737 1433 707 1454 q 767 1376 767 1413 q 756 1333 767 1351 q 730 1301 744 1315 q 703 1271 715 1286 q 692 1232 692 1256 l 604 1232 z "},"Ỗ":{"ha":961,"x_min":94,"x_max":867,"o":"m 481 -12 q 317 19 388 -12 q 196 116 246 51 q 120 274 146 181 q 94 489 94 368 q 120 703 94 610 q 196 861 146 796 q 317 959 246 926 q 481 992 389 992 q 644 959 574 992 q 765 863 715 926 q 840 705 814 799 q 867 490 867 611 q 840 276 867 369 q 765 117 814 182 q 644 20 715 53 q 481 -12 574 -12 m 481 113 q 613 154 561 113 q 692 280 664 196 q 719 490 719 364 q 693 701 719 618 q 613 826 667 785 q 481 867 560 867 q 349 826 401 867 q 268 701 296 785 q 240 489 240 618 q 268 278 240 363 q 349 153 296 194 q 481 113 401 113 m 282 1065 l 415 1244 l 547 1244 l 679 1065 l 571 1065 l 481 1179 l 390 1065 l 282 1065 m 351 1296 l 275 1300 q 309 1407 281 1368 q 396 1446 338 1446 q 457 1431 432 1446 q 497 1406 482 1415 q 524 1390 506 1401 q 563 1378 542 1378 q 595 1394 583 1378 q 610 1447 607 1411 l 688 1442 q 652 1335 682 1374 q 563 1297 622 1297 q 503 1312 526 1297 q 468 1332 479 1326 q 432 1356 447 1347 q 399 1364 417 1364 q 369 1348 381 1364 q 351 1296 357 1332 z "},"Ȍ":{"ha":961,"x_min":94,"x_max":867,"o":"m 481 -12 q 317 19 388 -12 q 196 116 246 51 q 120 274 146 181 q 94 489 94 368 q 120 703 94 610 q 196 861 146 796 q 317 959 246 926 q 481 992 389 992 q 644 959 574 992 q 765 863 715 926 q 840 705 814 799 q 867 490 867 611 q 840 276 867 369 q 765 117 814 182 q 644 20 715 53 q 481 -12 574 -12 m 481 113 q 613 154 561 113 q 692 280 664 196 q 719 490 719 364 q 693 701 719 618 q 613 826 667 785 q 481 867 560 867 q 349 826 401 867 q 268 701 296 785 q 240 489 240 618 q 268 278 240 363 q 349 153 296 194 q 481 113 401 113 m 522 1063 l 378 1281 l 515 1281 l 610 1063 l 522 1063 m 349 1063 l 192 1281 l 329 1281 l 436 1063 l 349 1063 z "},"Ö":{"ha":961,"x_min":94,"x_max":867,"o":"m 481 -12 q 317 19 388 -12 q 196 116 246 51 q 120 274 146 181 q 94 489 94 368 q 120 703 94 610 q 196 861 146 796 q 317 959 246 926 q 481 992 389 992 q 644 959 574 992 q 765 863 715 926 q 840 705 814 799 q 867 490 867 611 q 840 276 867 369 q 765 117 814 182 q 644 20 715 53 q 481 -12 574 -12 m 481 113 q 613 154 561 113 q 692 280 664 196 q 719 490 719 364 q 693 701 719 618 q 613 826 667 785 q 481 867 560 867 q 349 826 401 867 q 268 701 296 785 q 240 489 240 618 q 268 278 240 363 q 349 153 296 194 q 481 113 401 113 m 531 1106 l 531 1246 l 678 1246 l 678 1106 l 531 1106 m 283 1106 l 283 1246 l 431 1246 l 431 1106 l 283 1106 z "},"Ȫ":{"ha":961,"x_min":94,"x_max":867,"o":"m 481 -12 q 317 19 388 -12 q 196 116 246 51 q 120 274 146 181 q 94 489 94 368 q 120 703 94 610 q 196 861 146 796 q 317 959 246 926 q 481 992 389 992 q 644 959 574 992 q 765 863 715 926 q 840 705 814 799 q 867 490 867 611 q 840 276 867 369 q 765 117 814 182 q 644 20 715 53 q 481 -12 574 -12 m 481 113 q 613 154 561 113 q 692 280 664 196 q 719 490 719 364 q 693 701 719 618 q 613 826 667 785 q 481 867 560 867 q 349 826 401 867 q 268 701 296 785 q 240 489 240 618 q 268 278 240 363 q 349 153 296 194 q 481 113 401 113 m 283 1297 l 283 1400 l 678 1400 l 678 1297 l 283 1297 m 288 1094 l 288 1217 l 436 1217 l 436 1094 l 288 1094 m 525 1094 l 525 1217 l 674 1217 l 674 1094 l 525 1094 z "},"Ȱ":{"ha":961,"x_min":94,"x_max":867,"o":"m 481 -12 q 317 19 388 -12 q 196 116 246 51 q 120 274 146 181 q 94 489 94 368 q 120 703 94 610 q 196 861 146 796 q 317 959 246 926 q 481 992 389 992 q 644 959 574 992 q 765 863 715 926 q 840 705 814 799 q 867 490 867 611 q 840 276 867 369 q 765 117 814 182 q 644 20 715 53 q 481 -12 574 -12 m 481 113 q 613 154 561 113 q 692 280 664 196 q 719 490 719 364 q 693 701 719 618 q 613 826 667 785 q 481 867 560 867 q 349 826 401 867 q 268 701 296 785 q 240 489 240 618 q 268 278 240 363 q 349 153 296 194 q 481 113 401 113 m 300 1294 l 300 1392 l 661 1392 l 661 1294 l 300 1294 m 407 1097 l 407 1219 l 554 1219 l 554 1097 l 407 1097 z "},"Ọ":{"ha":961,"x_min":94,"x_max":867,"o":"m 481 -12 q 317 19 388 -12 q 196 116 246 51 q 120 274 146 181 q 94 489 94 368 q 120 703 94 610 q 196 861 146 796 q 317 959 246 926 q 481 992 389 992 q 644 959 574 992 q 765 863 715 926 q 840 705 814 799 q 867 490 867 611 q 840 276 867 369 q 765 117 814 182 q 644 20 715 53 q 481 -12 574 -12 m 481 113 q 613 154 561 113 q 692 280 664 196 q 719 490 719 364 q 693 701 719 618 q 613 826 667 785 q 481 867 560 867 q 349 826 401 867 q 268 701 296 785 q 240 489 240 618 q 268 278 240 363 q 349 153 296 194 q 481 113 401 113 m 406 -275 l 406 -129 l 556 -129 l 556 -275 l 406 -275 z "},"Ò":{"ha":961,"x_min":94,"x_max":867,"o":"m 481 -12 q 317 19 388 -12 q 196 116 246 51 q 120 274 146 181 q 94 489 94 368 q 120 703 94 610 q 196 861 146 796 q 317 959 246 926 q 481 992 389 992 q 644 959 574 992 q 765 863 715 926 q 840 705 814 799 q 867 490 867 611 q 840 276 867 369 q 765 117 814 182 q 644 20 715 53 q 481 -12 574 -12 m 481 113 q 613 154 561 113 q 692 280 664 196 q 719 490 719 364 q 693 701 719 618 q 613 826 667 785 q 481 867 560 867 q 349 826 401 867 q 268 701 296 785 q 240 489 240 618 q 268 278 240 363 q 349 153 296 194 q 481 113 401 113 m 428 1063 l 243 1281 l 401 1281 l 536 1063 l 428 1063 z "},"Ỏ":{"ha":961,"x_min":94,"x_max":867,"o":"m 481 -12 q 317 19 388 -12 q 196 116 246 51 q 120 274 146 181 q 94 489 94 368 q 120 703 94 610 q 196 861 146 796 q 317 959 246 926 q 481 992 389 992 q 644 959 574 992 q 765 863 715 926 q 840 705 814 799 q 867 490 867 611 q 840 276 867 369 q 765 117 814 182 q 644 20 715 53 q 481 -12 574 -12 m 481 113 q 613 154 561 113 q 692 280 664 196 q 719 490 719 364 q 693 701 719 618 q 613 826 667 785 q 481 867 560 867 q 349 826 401 867 q 268 701 296 785 q 240 489 240 618 q 268 278 240 363 q 349 153 296 194 q 481 113 401 113 m 435 1063 l 435 1089 q 444 1128 435 1113 q 466 1155 454 1143 q 487 1179 478 1167 q 496 1206 496 1192 q 487 1227 496 1221 q 457 1233 478 1233 q 419 1231 439 1233 q 382 1219 400 1228 l 361 1286 q 417 1307 385 1300 q 485 1314 449 1314 q 577 1292 544 1314 q 610 1228 610 1269 q 597 1181 610 1199 q 568 1149 585 1163 q 539 1120 551 1135 q 526 1083 526 1106 l 526 1063 l 435 1063 z "},"Ơ":{"ha":961,"x_min":94,"x_max":879,"o":"m 481 -12 q 317 19 388 -12 q 196 116 246 51 q 120 274 146 181 q 94 489 94 368 q 120 703 94 610 q 196 861 146 796 q 317 959 246 926 q 481 992 389 992 q 644 959 574 992 q 765 863 715 926 q 840 705 814 799 q 867 490 867 611 q 840 276 867 369 q 765 117 814 182 q 644 20 715 53 q 481 -12 574 -12 m 481 113 q 613 154 561 113 q 692 280 664 196 q 719 490 719 364 q 693 701 719 618 q 613 826 667 785 q 481 867 560 867 q 349 826 401 867 q 268 701 296 785 q 240 489 240 618 q 268 278 240 363 q 349 153 296 194 q 481 113 401 113 m 606 896 l 560 985 q 601 981 583 982 q 635 979 619 979 q 697 996 674 979 q 731 1044 721 1013 q 740 1124 740 1076 l 740 1156 l 879 1156 l 879 1110 q 858 999 879 1049 q 801 923 838 950 q 717 896 764 896 l 606 896 z "},"Ớ":{"ha":961,"x_min":94,"x_max":879,"o":"m 481 -12 q 317 19 388 -12 q 196 116 246 51 q 120 274 146 181 q 94 489 94 368 q 120 703 94 610 q 196 861 146 796 q 317 959 246 926 q 481 992 389 992 q 644 959 574 992 q 765 863 715 926 q 840 705 814 799 q 867 490 867 611 q 840 276 867 369 q 765 117 814 182 q 644 20 715 53 q 481 -12 574 -12 m 481 113 q 613 154 561 113 q 692 280 664 196 q 719 490 719 364 q 693 701 719 618 q 613 826 667 785 q 481 867 560 867 q 349 826 401 867 q 268 701 296 785 q 240 489 240 618 q 268 278 240 363 q 349 153 296 194 q 481 113 401 113 m 606 896 l 560 985 q 601 981 583 982 q 635 979 619 979 q 697 996 674 979 q 731 1044 721 1013 q 740 1124 740 1076 l 740 1156 l 879 1156 l 879 1110 q 858 999 879 1049 q 801 923 838 950 q 717 896 764 896 l 606 896 m 383 1063 l 518 1285 l 688 1285 l 503 1063 l 383 1063 z "},"Ợ":{"ha":961,"x_min":94,"x_max":879,"o":"m 481 -12 q 317 19 388 -12 q 196 116 246 51 q 120 274 146 181 q 94 489 94 368 q 120 703 94 610 q 196 861 146 796 q 317 959 246 926 q 481 992 389 992 q 644 959 574 992 q 765 863 715 926 q 840 705 814 799 q 867 490 867 611 q 840 276 867 369 q 765 117 814 182 q 644 20 715 53 q 481 -12 574 -12 m 481 113 q 613 154 561 113 q 692 280 664 196 q 719 490 719 364 q 693 701 719 618 q 613 826 667 785 q 481 867 560 867 q 349 826 401 867 q 268 701 296 785 q 240 489 240 618 q 268 278 240 363 q 349 153 296 194 q 481 113 401 113 m 606 896 l 560 985 q 601 981 583 982 q 635 979 619 979 q 697 996 674 979 q 731 1044 721 1013 q 740 1124 740 1076 l 740 1156 l 879 1156 l 879 1110 q 858 999 879 1049 q 801 923 838 950 q 717 896 764 896 l 606 896 m 407 -275 l 407 -129 l 557 -129 l 557 -275 l 407 -275 z "},"Ờ":{"ha":961,"x_min":94,"x_max":879,"o":"m 481 -12 q 317 19 388 -12 q 196 116 246 51 q 120 274 146 181 q 94 489 94 368 q 120 703 94 610 q 196 861 146 796 q 317 959 246 926 q 481 992 389 992 q 644 959 574 992 q 765 863 715 926 q 840 705 814 799 q 867 490 867 611 q 840 276 867 369 q 765 117 814 182 q 644 20 715 53 q 481 -12 574 -12 m 481 113 q 613 154 561 113 q 692 280 664 196 q 719 490 719 364 q 693 701 719 618 q 613 826 667 785 q 481 867 560 867 q 349 826 401 867 q 268 701 296 785 q 240 489 240 618 q 268 278 240 363 q 349 153 296 194 q 481 113 401 113 m 606 896 l 560 985 q 601 981 583 982 q 635 979 619 979 q 697 996 674 979 q 731 1044 721 1013 q 740 1124 740 1076 l 740 1156 l 879 1156 l 879 1110 q 858 999 879 1049 q 801 923 838 950 q 717 896 764 896 l 606 896 m 390 1063 l 206 1281 l 364 1281 l 499 1063 l 390 1063 z "},"Ở":{"ha":961,"x_min":94,"x_max":879,"o":"m 481 -12 q 317 19 388 -12 q 196 116 246 51 q 120 274 146 181 q 94 489 94 368 q 120 703 94 610 q 196 861 146 796 q 317 959 246 926 q 481 992 389 992 q 644 959 574 992 q 765 863 715 926 q 840 705 814 799 q 867 490 867 611 q 840 276 867 369 q 765 117 814 182 q 644 20 715 53 q 481 -12 574 -12 m 481 113 q 613 154 561 113 q 692 280 664 196 q 719 490 719 364 q 693 701 719 618 q 613 826 667 785 q 481 867 560 867 q 349 826 401 867 q 268 701 296 785 q 240 489 240 618 q 268 278 240 363 q 349 153 296 194 q 481 113 401 113 m 606 896 l 560 985 q 601 981 583 982 q 635 979 619 979 q 697 996 674 979 q 731 1044 721 1013 q 740 1124 740 1076 l 740 1156 l 879 1156 l 879 1110 q 858 999 879 1049 q 801 923 838 950 q 717 896 764 896 l 606 896 m 397 1063 l 397 1089 q 407 1128 397 1113 q 428 1155 417 1143 q 449 1179 440 1167 q 458 1206 458 1192 q 449 1227 458 1221 q 419 1233 440 1233 q 382 1231 401 1233 q 344 1219 363 1228 l 324 1286 q 379 1307 347 1300 q 447 1314 411 1314 q 540 1292 507 1314 q 572 1228 572 1269 q 560 1181 572 1199 q 531 1149 547 1163 q 501 1120 514 1135 q 489 1083 489 1106 l 489 1063 l 397 1063 z "},"Ỡ":{"ha":961,"x_min":94,"x_max":879,"o":"m 481 -12 q 317 19 388 -12 q 196 116 246 51 q 120 274 146 181 q 94 489 94 368 q 120 703 94 610 q 196 861 146 796 q 317 959 246 926 q 481 992 389 992 q 644 959 574 992 q 765 863 715 926 q 840 705 814 799 q 867 490 867 611 q 840 276 867 369 q 765 117 814 182 q 644 20 715 53 q 481 -12 574 -12 m 481 113 q 613 154 561 113 q 692 280 664 196 q 719 490 719 364 q 693 701 719 618 q 613 826 667 785 q 481 867 560 867 q 349 826 401 867 q 268 701 296 785 q 240 489 240 618 q 268 278 240 363 q 349 153 296 194 q 481 113 401 113 m 606 896 l 560 985 q 601 981 583 982 q 635 979 619 979 q 697 996 674 979 q 731 1044 721 1013 q 740 1124 740 1076 l 740 1156 l 879 1156 l 879 1110 q 858 999 879 1049 q 801 923 838 950 q 717 896 764 896 l 606 896 m 251 1075 l 167 1081 q 182 1174 165 1133 q 231 1238 199 1215 q 307 1260 264 1260 q 379 1242 350 1260 q 429 1211 408 1224 q 465 1190 444 1203 q 507 1176 485 1176 q 554 1202 539 1176 q 569 1265 569 1228 l 653 1260 q 638 1166 654 1206 q 589 1103 621 1126 q 514 1081 557 1081 q 443 1098 472 1081 q 394 1128 414 1115 q 359 1151 379 1138 q 313 1164 339 1164 q 267 1138 281 1164 q 251 1075 253 1113 z "},"Ő":{"ha":961,"x_min":94,"x_max":867,"o":"m 481 -12 q 317 19 388 -12 q 196 116 246 51 q 120 274 146 181 q 94 489 94 368 q 120 703 94 610 q 196 861 146 796 q 317 959 246 926 q 481 992 389 992 q 644 959 574 992 q 765 863 715 926 q 840 705 814 799 q 867 490 867 611 q 840 276 867 369 q 765 117 814 182 q 644 20 715 53 q 481 -12 574 -12 m 481 113 q 613 154 561 113 q 692 280 664 196 q 719 490 719 364 q 693 701 719 618 q 613 826 667 785 q 481 867 560 867 q 349 826 401 867 q 268 701 296 785 q 240 489 240 618 q 268 278 240 363 q 349 153 296 194 q 481 113 401 113 m 350 1063 l 444 1281 l 583 1281 l 439 1063 l 350 1063 m 522 1063 l 632 1281 l 769 1281 l 611 1063 l 522 1063 z "},"Ȏ":{"ha":961,"x_min":94,"x_max":867,"o":"m 481 -12 q 317 19 388 -12 q 196 116 246 51 q 120 274 146 181 q 94 489 94 368 q 120 703 94 610 q 196 861 146 796 q 317 959 246 926 q 481 992 389 992 q 644 959 574 992 q 765 863 715 926 q 840 705 814 799 q 867 490 867 611 q 840 276 867 369 q 765 117 814 182 q 644 20 715 53 q 481 -12 574 -12 m 481 113 q 613 154 561 113 q 692 280 664 196 q 719 490 719 364 q 693 701 719 618 q 613 826 667 785 q 481 867 560 867 q 349 826 401 867 q 268 701 296 785 q 240 489 240 618 q 268 278 240 363 q 349 153 296 194 q 481 113 401 113 m 374 1056 l 281 1064 q 335 1234 283 1178 q 481 1290 388 1290 q 627 1233 575 1290 q 682 1064 679 1176 l 589 1056 q 563 1151 586 1118 q 482 1183 539 1183 q 402 1152 428 1183 q 374 1056 376 1121 z "},"Ō":{"ha":961,"x_min":94,"x_max":867,"o":"m 481 -12 q 317 19 388 -12 q 196 116 246 51 q 120 274 146 181 q 94 489 94 368 q 120 703 94 610 q 196 861 146 796 q 317 959 246 926 q 481 992 389 992 q 644 959 574 992 q 765 863 715 926 q 840 705 814 799 q 867 490 867 611 q 840 276 867 369 q 765 117 814 182 q 644 20 715 53 q 481 -12 574 -12 m 481 113 q 613 154 561 113 q 692 280 664 196 q 719 490 719 364 q 693 701 719 618 q 613 826 667 785 q 481 867 560 867 q 349 826 401 867 q 268 701 296 785 q 240 489 240 618 q 268 278 240 363 q 349 153 296 194 q 481 113 401 113 m 282 1124 l 282 1235 l 679 1235 l 679 1124 l 282 1124 z "},"Ṓ":{"ha":961,"x_min":94,"x_max":867,"o":"m 481 -12 q 317 19 388 -12 q 196 116 246 51 q 120 274 146 181 q 94 489 94 368 q 120 703 94 610 q 196 861 146 796 q 317 959 246 926 q 481 992 389 992 q 644 959 574 992 q 765 863 715 926 q 840 705 814 799 q 867 490 867 611 q 840 276 867 369 q 765 117 814 182 q 644 20 715 53 q 481 -12 574 -12 m 481 113 q 613 154 561 113 q 692 280 664 196 q 719 490 719 364 q 693 701 719 618 q 613 826 667 785 q 481 867 560 867 q 349 826 401 867 q 268 701 296 785 q 240 489 240 618 q 268 278 240 363 q 349 153 296 194 q 481 113 401 113 m 290 1099 l 290 1197 l 671 1197 l 671 1099 l 290 1099 m 414 1254 l 511 1454 l 669 1454 l 521 1254 l 414 1254 z "},"Ṑ":{"ha":961,"x_min":94,"x_max":867,"o":"m 481 -12 q 317 19 388 -12 q 196 116 246 51 q 120 274 146 181 q 94 489 94 368 q 120 703 94 610 q 196 861 146 796 q 317 959 246 926 q 481 992 389 992 q 644 959 574 992 q 765 863 715 926 q 840 705 814 799 q 867 490 867 611 q 840 276 867 369 q 765 117 814 182 q 644 20 715 53 q 481 -12 574 -12 m 481 113 q 613 154 561 113 q 692 280 664 196 q 719 490 719 364 q 693 701 719 618 q 613 826 667 785 q 481 867 560 867 q 349 826 401 867 q 268 701 296 785 q 240 489 240 618 q 268 278 240 363 q 349 153 296 194 q 481 113 401 113 m 440 1254 l 292 1454 l 450 1454 l 547 1254 l 440 1254 m 290 1099 l 290 1197 l 671 1197 l 671 1099 l 290 1099 z "},"Ǫ":{"ha":961,"x_min":94,"x_max":867,"o":"m 481 -12 q 317 19 388 -12 q 196 116 246 51 q 120 274 146 181 q 94 489 94 368 q 120 703 94 610 q 196 861 146 796 q 317 959 246 926 q 481 992 389 992 q 644 959 574 992 q 765 863 715 926 q 840 705 814 799 q 867 490 867 611 q 840 276 867 369 q 765 117 814 182 q 644 20 715 53 q 481 -12 574 -12 m 481 113 q 613 154 561 113 q 692 280 664 196 q 719 490 719 364 q 693 701 719 618 q 613 826 667 785 q 481 867 560 867 q 349 826 401 867 q 268 701 296 785 q 240 489 240 618 q 268 278 240 363 q 349 153 296 194 q 481 113 401 113 m 529 -278 q 425 -244 464 -278 q 386 -149 386 -210 q 419 -42 386 -93 q 508 47 453 10 l 557 0 q 521 -33 536 -14 q 498 -75 506 -53 q 490 -121 490 -97 q 506 -170 490 -154 q 549 -186 521 -186 q 575 -183 560 -186 q 606 -172 590 -179 l 628 -256 q 579 -273 603 -268 q 529 -278 556 -278 z "},"Ø":{"ha":961,"x_min":94,"x_max":867,"o":"m 481 -12 q 317 19 388 -12 q 196 116 246 51 q 120 274 146 181 q 94 489 94 368 q 120 703 94 610 q 196 861 146 796 q 317 959 246 926 q 481 992 389 992 q 644 959 574 992 q 765 863 715 926 q 840 705 814 799 q 867 490 867 611 q 840 276 867 369 q 765 117 814 182 q 644 20 715 53 q 481 -12 574 -12 m 481 113 q 613 154 561 113 q 692 280 664 196 q 719 490 719 364 q 693 701 719 618 q 613 826 667 785 q 481 867 560 867 q 349 826 401 867 q 268 701 296 785 q 240 489 240 618 q 268 278 240 363 q 349 153 296 194 q 481 113 401 113 m 288 -75 l 178 -18 l 251 129 l 296 201 l 597 853 l 617 919 l 688 1063 l 797 1006 l 722 858 l 678 786 l 378 135 l 357 68 l 288 -75 z "},"Ǿ":{"ha":961,"x_min":94,"x_max":867,"o":"m 481 -12 q 317 19 388 -12 q 196 116 246 51 q 120 274 146 181 q 94 489 94 368 q 120 703 94 610 q 196 861 146 796 q 317 959 246 926 q 481 992 389 992 q 644 959 574 992 q 765 863 715 926 q 840 705 814 799 q 867 490 867 611 q 840 276 867 369 q 765 117 814 182 q 644 20 715 53 q 481 -12 574 -12 m 481 113 q 613 154 561 113 q 692 280 664 196 q 719 490 719 364 q 693 701 719 618 q 613 826 667 785 q 481 867 560 867 q 349 826 401 867 q 268 701 296 785 q 240 489 240 618 q 268 278 240 363 q 349 153 296 194 q 481 113 401 113 m 288 -75 l 178 -18 l 251 129 l 296 201 l 597 853 l 617 919 l 688 1063 l 797 1006 l 722 858 l 678 786 l 378 135 l 357 68 l 288 -75 m 421 1063 l 556 1285 l 725 1285 l 540 1063 l 421 1063 z "},"Õ":{"ha":961,"x_min":94,"x_max":867,"o":"m 481 -12 q 317 19 388 -12 q 196 116 246 51 q 120 274 146 181 q 94 489 94 368 q 120 703 94 610 q 196 861 146 796 q 317 959 246 926 q 481 992 389 992 q 644 959 574 992 q 765 863 715 926 q 840 705 814 799 q 867 490 867 611 q 840 276 867 369 q 765 117 814 182 q 644 20 715 53 q 481 -12 574 -12 m 481 113 q 613 154 561 113 q 692 280 664 196 q 719 490 719 364 q 693 701 719 618 q 613 826 667 785 q 481 867 560 867 q 349 826 401 867 q 268 701 296 785 q 240 489 240 618 q 268 278 240 363 q 349 153 296 194 q 481 113 401 113 m 315 1072 l 229 1079 q 265 1210 228 1158 q 368 1261 303 1261 q 447 1242 413 1261 q 500 1213 481 1222 q 536 1192 513 1206 q 585 1179 560 1179 q 631 1203 614 1179 q 646 1265 647 1226 l 732 1261 q 698 1130 735 1181 q 593 1079 661 1079 q 515 1098 549 1079 q 467 1125 481 1117 q 426 1147 451 1133 q 376 1161 401 1161 q 331 1138 347 1161 q 315 1072 315 1114 z "},"Ṍ":{"ha":961,"x_min":94,"x_max":867,"o":"m 481 -12 q 317 19 388 -12 q 196 116 246 51 q 120 274 146 181 q 94 489 94 368 q 120 703 94 610 q 196 861 146 796 q 317 959 246 926 q 481 992 389 992 q 644 959 574 992 q 765 863 715 926 q 840 705 814 799 q 867 490 867 611 q 840 276 867 369 q 765 117 814 182 q 644 20 715 53 q 481 -12 574 -12 m 481 113 q 613 154 561 113 q 692 280 664 196 q 719 490 719 364 q 693 701 719 618 q 613 826 667 785 q 481 867 560 867 q 349 826 401 867 q 268 701 296 785 q 240 489 240 618 q 268 278 240 363 q 349 153 296 194 q 481 113 401 113 m 426 1250 l 522 1451 l 681 1451 l 533 1250 l 426 1250 m 563 1065 q 501 1080 525 1065 q 464 1103 478 1094 q 438 1120 454 1108 q 399 1132 422 1132 q 367 1114 376 1132 q 351 1064 357 1096 l 275 1068 q 292 1149 279 1115 q 330 1201 304 1182 q 396 1221 356 1221 q 462 1205 435 1221 q 501 1179 489 1189 q 527 1165 511 1175 q 563 1154 543 1154 q 596 1173 585 1154 q 610 1222 607 1192 l 688 1218 q 653 1106 682 1146 q 563 1065 624 1065 z "},"Ṏ":{"ha":961,"x_min":94,"x_max":867,"o":"m 481 -12 q 317 19 388 -12 q 196 116 246 51 q 120 274 146 181 q 94 489 94 368 q 120 703 94 610 q 196 861 146 796 q 317 959 246 926 q 481 992 389 992 q 644 959 574 992 q 765 863 715 926 q 840 705 814 799 q 867 490 867 611 q 840 276 867 369 q 765 117 814 182 q 644 20 715 53 q 481 -12 574 -12 m 481 113 q 613 154 561 113 q 692 280 664 196 q 719 490 719 364 q 693 701 719 618 q 613 826 667 785 q 481 867 560 867 q 349 826 401 867 q 268 701 296 785 q 240 489 240 618 q 268 278 240 363 q 349 153 296 194 q 481 113 401 113 m 563 1065 q 501 1080 525 1065 q 464 1103 478 1094 q 438 1120 454 1108 q 399 1132 422 1132 q 367 1114 378 1132 q 351 1064 357 1096 l 275 1068 q 292 1149 279 1115 q 330 1201 304 1182 q 396 1221 356 1221 q 462 1205 435 1221 q 501 1179 489 1189 q 527 1165 511 1175 q 563 1154 543 1154 q 596 1173 585 1154 q 610 1222 607 1192 l 688 1218 q 653 1106 682 1146 q 563 1065 624 1065 m 288 1285 l 288 1406 l 436 1406 l 436 1285 l 288 1285 m 525 1285 l 525 1406 l 674 1406 l 674 1285 l 525 1285 z "},"Ȭ":{"ha":961,"x_min":94,"x_max":867,"o":"m 481 -12 q 317 19 388 -12 q 196 116 246 51 q 120 274 146 181 q 94 489 94 368 q 120 703 94 610 q 196 861 146 796 q 317 959 246 926 q 481 992 389 992 q 644 959 574 992 q 765 863 715 926 q 840 705 814 799 q 867 490 867 611 q 840 276 867 369 q 765 117 814 182 q 644 20 715 53 q 481 -12 574 -12 m 481 113 q 613 154 561 113 q 692 280 664 196 q 719 490 719 364 q 693 701 719 618 q 613 826 667 785 q 481 867 560 867 q 349 826 401 867 q 268 701 296 785 q 240 489 240 618 q 268 278 240 363 q 349 153 296 194 q 481 113 401 113 m 285 1300 l 285 1399 l 678 1399 l 678 1300 l 285 1300 m 563 1065 q 501 1080 525 1065 q 464 1104 478 1094 q 438 1120 454 1108 q 399 1132 422 1132 q 367 1114 376 1132 q 351 1064 357 1096 l 275 1069 q 292 1149 279 1115 q 330 1202 304 1183 q 396 1221 356 1221 q 462 1205 435 1221 q 501 1179 489 1189 q 527 1165 511 1175 q 563 1154 543 1154 q 596 1173 585 1154 q 610 1222 607 1192 l 688 1218 q 653 1106 682 1146 q 563 1065 624 1065 z "},"Œ":{"ha":1300,"x_min":94,"x_max":1196,"o":"m 503 0 q 326 33 403 0 q 197 129 249 65 q 120 283 146 193 q 94 489 94 374 q 120 696 94 606 q 198 849 146 786 q 326 946 250 913 q 503 979 403 979 l 1196 979 l 1196 856 l 793 856 l 793 557 l 1174 557 l 1174 435 l 793 435 l 793 124 l 1196 124 l 1196 0 l 503 0 m 508 122 l 650 122 l 650 857 l 508 857 q 308 768 375 857 q 240 489 240 679 q 308 210 240 297 q 508 122 375 122 z "},"P":{"ha":836,"x_min":125,"x_max":760,"o":"m 125 0 l 125 979 l 476 979 q 627 943 564 979 q 725 840 690 907 q 760 681 760 774 q 724 521 760 589 q 626 415 689 453 q 476 378 563 378 l 268 378 l 268 0 l 125 0 m 268 499 l 451 499 q 573 543 531 499 q 615 679 615 588 q 574 814 615 769 q 451 858 532 858 l 268 858 l 268 499 z "},"Þ":{"ha":824,"x_min":125,"x_max":757,"o":"m 125 0 l 125 979 l 268 979 l 268 804 l 474 804 q 625 769 563 804 q 722 668 688 735 q 757 510 757 601 q 722 350 757 418 q 624 245 688 282 q 474 208 561 208 l 268 208 l 268 0 l 125 0 m 268 329 l 450 329 q 572 372 529 329 q 614 507 614 415 q 572 642 614 599 q 450 685 529 685 l 268 685 l 268 329 z "},"Q":{"ha":961,"x_min":94,"x_max":867,"o":"m 707 -286 l 600 -85 q 557 -32 582 -51 q 489 -12 532 -12 l 592 32 q 660 24 632 32 q 709 -5 688 15 q 750 -60 731 -25 l 835 -222 l 707 -286 m 481 -12 q 317 19 388 -12 q 196 116 246 51 q 120 274 146 181 q 94 489 94 368 q 120 703 94 610 q 196 861 146 796 q 317 959 246 926 q 481 992 389 992 q 644 959 574 992 q 765 863 715 926 q 840 705 814 799 q 867 490 867 611 q 840 276 867 369 q 765 117 814 182 q 644 20 715 53 q 481 -12 574 -12 m 481 113 q 613 154 561 113 q 692 280 665 196 q 719 490 719 364 q 693 701 719 618 q 613 826 667 785 q 481 867 560 867 q 349 826 401 867 q 268 701 296 785 q 240 489 240 618 q 268 278 240 363 q 349 153 296 194 q 481 113 401 113 z "},"R":{"ha":864,"x_min":125,"x_max":804,"o":"m 125 0 l 125 979 l 472 979 q 682 906 607 979 q 757 696 757 833 q 734 564 757 619 q 672 474 711 508 q 583 426 632 439 l 582 424 l 593 421 q 633 389 614 413 q 669 319 651 365 l 804 0 l 646 0 l 524 297 q 491 353 508 332 q 451 383 474 375 q 390 392 428 392 l 268 392 l 268 0 l 125 0 m 268 510 l 463 510 q 577 556 539 510 q 615 689 615 601 q 576 817 615 775 q 457 858 536 858 l 268 858 l 268 510 z "},"Ŕ":{"ha":864,"x_min":125,"x_max":804,"o":"m 125 0 l 125 979 l 472 979 q 682 906 607 979 q 757 696 757 833 q 734 564 757 619 q 672 474 711 508 q 583 426 632 439 l 582 424 l 593 421 q 633 389 614 413 q 669 319 651 365 l 804 0 l 646 0 l 524 297 q 491 353 508 332 q 451 383 474 375 q 390 392 428 392 l 268 392 l 268 0 l 125 0 m 268 510 l 463 510 q 577 556 539 510 q 615 689 615 601 q 576 817 615 775 q 457 858 536 858 l 268 858 l 268 510 m 371 1063 l 506 1285 l 675 1285 l 490 1063 l 371 1063 z "},"Ř":{"ha":864,"x_min":125,"x_max":804,"o":"m 125 0 l 125 979 l 472 979 q 682 906 607 979 q 757 696 757 833 q 734 564 757 619 q 672 474 711 508 q 583 426 632 439 l 582 424 l 593 421 q 633 389 614 413 q 669 319 651 365 l 804 0 l 646 0 l 524 297 q 491 353 508 332 q 451 383 474 375 q 390 392 428 392 l 268 392 l 268 0 l 125 0 m 268 510 l 463 510 q 577 556 539 510 q 615 689 615 601 q 576 817 615 775 q 457 858 536 858 l 268 858 l 268 510 m 365 1063 l 224 1281 l 335 1281 l 431 1144 l 528 1281 l 638 1281 l 496 1063 l 365 1063 z "},"Ŗ":{"ha":864,"x_min":125,"x_max":804,"o":"m 125 0 l 125 979 l 472 979 q 682 906 607 979 q 757 696 757 833 q 734 564 757 619 q 672 474 711 508 q 583 426 632 439 l 582 424 l 593 421 q 633 389 614 413 q 669 319 651 365 l 804 0 l 646 0 l 524 297 q 491 353 508 332 q 451 383 474 375 q 390 392 428 392 l 268 392 l 268 0 l 125 0 m 268 510 l 463 510 q 577 556 539 510 q 615 689 615 601 q 576 817 615 775 q 457 858 536 858 l 268 858 l 268 510 m 436 -408 l 376 -367 q 415 -302 403 -337 q 426 -226 426 -267 l 449 -243 l 357 -243 l 357 -107 l 506 -107 l 506 -212 q 490 -319 506 -271 q 436 -408 475 -368 z "},"Ȑ":{"ha":864,"x_min":125,"x_max":804,"o":"m 125 0 l 125 979 l 472 979 q 682 906 607 979 q 757 696 757 833 q 734 564 757 619 q 672 474 711 508 q 583 426 632 439 l 582 424 l 593 421 q 633 389 614 413 q 669 319 651 365 l 804 0 l 646 0 l 524 297 q 491 353 508 332 q 451 383 474 375 q 390 392 428 392 l 268 392 l 268 0 l 125 0 m 268 510 l 463 510 q 577 556 539 510 q 615 689 615 601 q 576 817 615 775 q 457 858 536 858 l 268 858 l 268 510 m 472 1063 l 328 1281 l 465 1281 l 560 1063 l 472 1063 m 299 1063 l 142 1281 l 279 1281 l 386 1063 l 299 1063 z "},"Ṛ":{"ha":864,"x_min":125,"x_max":804,"o":"m 125 0 l 125 979 l 472 979 q 682 906 607 979 q 757 696 757 833 q 734 564 757 619 q 672 474 711 508 q 583 426 632 439 l 582 424 l 593 421 q 633 389 614 413 q 669 319 651 365 l 804 0 l 646 0 l 524 297 q 491 353 508 332 q 451 383 474 375 q 390 392 428 392 l 268 392 l 268 0 l 125 0 m 268 510 l 463 510 q 577 556 539 510 q 615 689 615 601 q 576 817 615 775 q 457 858 536 858 l 268 858 l 268 510 m 357 -275 l 357 -129 l 507 -129 l 507 -275 l 357 -275 z "},"Ȓ":{"ha":864,"x_min":125,"x_max":804,"o":"m 125 0 l 125 979 l 472 979 q 682 906 607 979 q 757 696 757 833 q 734 564 757 619 q 672 474 711 508 q 583 426 632 439 l 582 424 l 593 421 q 633 389 614 413 q 669 319 651 365 l 804 0 l 646 0 l 524 297 q 491 353 508 332 q 451 383 474 375 q 390 392 428 392 l 268 392 l 268 0 l 125 0 m 268 510 l 463 510 q 577 556 539 510 q 615 689 615 601 q 576 817 615 775 q 457 858 536 858 l 268 858 l 268 510 m 324 1056 l 231 1064 q 285 1234 233 1178 q 431 1290 338 1290 q 577 1233 525 1290 q 632 1064 629 1176 l 539 1056 q 513 1151 536 1118 q 432 1183 489 1183 q 352 1152 378 1183 q 324 1056 326 1121 z "},"Ṟ":{"ha":864,"x_min":125,"x_max":804,"o":"m 125 0 l 125 979 l 472 979 q 682 906 607 979 q 757 696 757 833 q 734 564 757 619 q 672 474 711 508 q 583 426 632 439 l 582 424 l 593 421 q 633 389 614 413 q 669 319 651 365 l 804 0 l 646 0 l 524 297 q 491 353 508 332 q 451 383 474 375 q 390 392 428 392 l 268 392 l 268 0 l 125 0 m 268 510 l 463 510 q 577 556 539 510 q 615 689 615 601 q 576 817 615 775 q 457 858 536 858 l 268 858 l 268 510 m 235 -240 l 235 -129 l 629 -129 l 629 -240 l 235 -240 z "},"S":{"ha":794,"x_min":79,"x_max":722,"o":"m 404 -12 q 281 -3 342 -12 q 169 28 221 7 q 79 81 117 50 l 125 199 q 210 148 164 167 q 307 122 257 129 q 404 114 357 114 q 531 151 482 114 q 581 267 581 188 q 565 335 581 308 q 519 379 550 363 q 442 408 488 396 l 306 443 q 145 540 194 472 q 96 708 96 608 q 138 859 96 796 q 254 957 179 922 q 426 992 329 992 q 535 981 483 992 q 628 948 586 969 q 703 893 671 926 l 657 776 q 554 844 613 824 q 435 865 496 865 q 333 849 378 865 q 264 799 289 832 q 239 713 239 765 q 269 622 239 657 q 363 568 299 586 l 496 535 q 667 441 613 507 q 722 275 722 375 q 683 123 722 188 q 572 23 643 58 q 404 -12 500 -12 z "},"Ś":{"ha":794,"x_min":79,"x_max":722,"o":"m 404 -12 q 281 -3 342 -12 q 169 28 221 7 q 79 81 117 50 l 125 199 q 210 148 164 167 q 307 122 257 129 q 404 114 357 114 q 531 151 482 114 q 581 267 581 188 q 565 335 581 308 q 519 379 550 363 q 442 408 488 396 l 306 443 q 145 540 194 472 q 96 708 96 608 q 138 859 96 796 q 254 957 179 922 q 426 992 329 992 q 535 981 483 992 q 628 948 586 969 q 703 893 671 926 l 657 776 q 554 844 613 824 q 435 865 496 865 q 333 849 378 865 q 264 799 289 832 q 239 713 239 765 q 269 622 239 657 q 363 568 299 586 l 496 535 q 667 441 613 507 q 722 275 722 375 q 683 123 722 188 q 572 23 643 58 q 404 -12 500 -12 m 358 1063 l 493 1285 l 663 1285 l 478 1063 l 358 1063 z "},"Ṥ":{"ha":794,"x_min":79,"x_max":722,"o":"m 404 -12 q 281 -3 342 -12 q 169 28 221 7 q 79 81 117 50 l 125 199 q 210 148 164 167 q 307 122 257 129 q 404 114 357 114 q 531 151 482 114 q 581 267 581 188 q 565 335 581 308 q 519 379 550 363 q 442 408 488 396 l 306 443 q 145 540 194 472 q 96 708 96 608 q 138 859 96 796 q 254 957 179 922 q 426 992 329 992 q 535 981 483 992 q 628 948 586 969 q 703 893 671 926 l 657 776 q 554 844 613 824 q 435 865 496 865 q 333 849 378 865 q 264 799 289 832 q 239 713 239 765 q 269 622 239 657 q 363 568 299 586 l 496 535 q 667 441 613 507 q 722 275 722 375 q 683 123 722 188 q 572 23 643 58 q 404 -12 500 -12 m 271 1325 l 271 1450 l 418 1450 l 418 1325 l 271 1325 m 364 1063 l 471 1336 l 626 1336 l 472 1063 l 364 1063 z "},"Š":{"ha":794,"x_min":79,"x_max":722,"o":"m 404 -12 q 281 -3 342 -12 q 169 28 221 7 q 79 81 117 50 l 125 199 q 210 148 164 167 q 307 122 257 129 q 404 114 357 114 q 531 151 482 114 q 581 267 581 188 q 565 335 581 308 q 519 379 550 363 q 442 408 488 396 l 306 443 q 145 540 194 472 q 96 708 96 608 q 138 859 96 796 q 254 957 179 922 q 426 992 329 992 q 535 981 483 992 q 628 948 586 969 q 703 893 671 926 l 657 776 q 554 844 613 824 q 435 865 496 865 q 333 849 378 865 q 264 799 289 832 q 239 713 239 765 q 269 622 239 657 q 363 568 299 586 l 496 535 q 667 441 613 507 q 722 275 722 375 q 683 123 722 188 q 572 23 643 58 q 404 -12 500 -12 m 353 1063 l 211 1281 l 322 1281 l 418 1144 l 515 1281 l 625 1281 l 483 1063 l 353 1063 z "},"Ṧ":{"ha":794,"x_min":79,"x_max":722,"o":"m 404 -12 q 281 -3 342 -12 q 169 28 221 7 q 79 81 117 50 l 125 199 q 210 148 164 167 q 307 122 257 129 q 404 114 357 114 q 531 151 482 114 q 581 267 581 188 q 565 335 581 308 q 519 379 550 363 q 442 408 488 396 l 306 443 q 145 540 194 472 q 96 708 96 608 q 138 859 96 796 q 254 957 179 922 q 426 992 329 992 q 535 981 483 992 q 628 948 586 969 q 703 893 671 926 l 657 776 q 554 844 613 824 q 435 865 496 865 q 333 849 378 865 q 264 799 289 832 q 239 713 239 765 q 269 622 239 657 q 363 568 299 586 l 496 535 q 667 441 613 507 q 722 275 722 375 q 683 123 722 188 q 572 23 643 58 q 404 -12 500 -12 m 353 1069 l 225 1289 l 333 1289 l 418 1146 l 504 1289 l 611 1289 l 483 1069 l 353 1069 m 340 1351 l 340 1475 l 497 1475 l 497 1351 l 340 1351 z "},"Ş":{"ha":794,"x_min":79,"x_max":722,"o":"m 404 -12 q 281 -3 342 -12 q 169 28 221 7 q 79 81 117 50 l 125 199 q 210 148 164 167 q 307 122 257 129 q 404 114 357 114 q 531 151 482 114 q 581 267 581 188 q 565 335 581 308 q 519 379 550 363 q 442 408 488 396 l 306 443 q 145 540 194 472 q 96 708 96 608 q 138 859 96 796 q 254 957 179 922 q 426 992 329 992 q 535 981 483 992 q 628 948 586 969 q 703 893 671 926 l 657 776 q 554 844 613 824 q 435 865 496 865 q 333 849 378 865 q 264 799 289 832 q 239 713 239 765 q 269 622 239 657 q 363 568 299 586 l 496 535 q 667 441 613 507 q 722 275 722 375 q 683 123 722 188 q 572 23 643 58 q 404 -12 500 -12 m 404 -278 q 338 -271 374 -278 q 278 -250 301 -264 l 301 -181 q 346 -198 321 -190 q 400 -206 371 -206 q 449 -194 433 -206 q 465 -158 465 -183 q 451 -127 465 -137 q 415 -117 436 -117 q 388 -119 404 -117 q 360 -126 372 -122 l 336 -104 l 357 28 l 431 28 l 414 -83 l 381 -68 q 412 -58 390 -61 q 456 -56 433 -56 q 507 -67 483 -56 q 546 -101 531 -78 q 561 -158 561 -124 q 542 -225 561 -199 q 487 -265 522 -251 q 404 -278 451 -278 z "},"Ŝ":{"ha":794,"x_min":79,"x_max":722,"o":"m 404 -12 q 281 -3 342 -12 q 169 28 221 7 q 79 81 117 50 l 125 199 q 210 148 164 167 q 307 122 257 129 q 404 114 357 114 q 531 151 482 114 q 581 267 581 188 q 565 335 581 308 q 519 379 550 363 q 442 408 488 396 l 306 443 q 145 540 194 472 q 96 708 96 608 q 138 859 96 796 q 254 957 179 922 q 426 992 329 992 q 535 981 483 992 q 628 948 586 969 q 703 893 671 926 l 657 776 q 554 844 613 824 q 435 865 496 865 q 333 849 378 865 q 264 799 289 832 q 239 713 239 765 q 269 622 239 657 q 363 568 299 586 l 496 535 q 667 441 613 507 q 722 275 722 375 q 683 123 722 188 q 572 23 643 58 q 404 -12 500 -12 m 211 1063 l 353 1281 l 483 1281 l 625 1063 l 514 1063 l 418 1199 l 321 1063 l 211 1063 z "},"Ș":{"ha":794,"x_min":79,"x_max":722,"o":"m 404 -12 q 281 -3 342 -12 q 169 28 221 7 q 79 81 117 50 l 125 199 q 210 148 164 167 q 307 122 257 129 q 404 114 357 114 q 531 151 482 114 q 581 267 581 188 q 565 335 581 308 q 519 379 550 363 q 442 408 488 396 l 306 443 q 145 540 194 472 q 96 708 96 608 q 138 859 96 796 q 254 957 179 922 q 426 992 329 992 q 535 981 483 992 q 628 948 586 969 q 703 893 671 926 l 657 776 q 554 844 613 824 q 435 865 496 865 q 333 849 378 865 q 264 799 289 832 q 239 713 239 765 q 269 622 239 657 q 363 568 299 586 l 496 535 q 667 441 613 507 q 722 275 722 375 q 683 123 722 188 q 572 23 643 58 q 404 -12 500 -12 m 400 -408 l 340 -367 q 378 -302 367 -337 q 390 -226 390 -267 l 413 -243 l 321 -243 l 321 -107 l 469 -107 l 469 -212 q 454 -319 469 -271 q 400 -408 439 -368 z "},"Ṡ":{"ha":794,"x_min":79,"x_max":722,"o":"m 404 -12 q 281 -3 342 -12 q 169 28 221 7 q 79 81 117 50 l 125 199 q 210 148 164 167 q 307 122 257 129 q 404 114 357 114 q 531 151 482 114 q 581 267 581 188 q 565 335 581 308 q 519 379 550 363 q 442 408 488 396 l 306 443 q 145 540 194 472 q 96 708 96 608 q 138 859 96 796 q 254 957 179 922 q 426 992 329 992 q 535 981 483 992 q 628 948 586 969 q 703 893 671 926 l 657 776 q 554 844 613 824 q 435 865 496 865 q 333 849 378 865 q 264 799 289 832 q 239 713 239 765 q 269 622 239 657 q 363 568 299 586 l 496 535 q 667 441 613 507 q 722 275 722 375 q 683 123 722 188 q 572 23 643 58 q 404 -12 500 -12 m 340 1108 l 340 1260 l 494 1260 l 494 1108 l 340 1108 z "},"Ṣ":{"ha":794,"x_min":79,"x_max":722,"o":"m 404 -12 q 281 -3 342 -12 q 169 28 221 7 q 79 81 117 50 l 125 199 q 210 148 164 167 q 307 122 257 129 q 404 114 357 114 q 531 151 482 114 q 581 267 581 188 q 565 335 581 308 q 519 379 550 363 q 442 408 488 396 l 306 443 q 145 540 194 472 q 96 708 96 608 q 138 859 96 796 q 254 957 179 922 q 426 992 329 992 q 535 981 483 992 q 628 948 586 969 q 703 893 671 926 l 657 776 q 554 844 613 824 q 435 865 496 865 q 333 849 378 865 q 264 799 289 832 q 239 713 239 765 q 269 622 239 657 q 363 568 299 586 l 496 535 q 667 441 613 507 q 722 275 722 375 q 683 123 722 188 q 572 23 643 58 q 404 -12 500 -12 m 321 -275 l 321 -129 l 471 -129 l 471 -275 l 321 -275 z "},"Ṩ":{"ha":794,"x_min":79,"x_max":722,"o":"m 404 -12 q 281 -3 342 -12 q 169 28 221 7 q 79 81 117 50 l 125 199 q 210 148 164 167 q 307 122 257 129 q 404 114 357 114 q 531 151 482 114 q 581 267 581 188 q 565 335 581 308 q 519 379 550 363 q 442 408 488 396 l 306 443 q 145 540 194 472 q 96 708 96 608 q 138 859 96 796 q 254 957 179 922 q 426 992 329 992 q 535 981 483 992 q 628 948 586 969 q 703 893 671 926 l 657 776 q 554 844 613 824 q 435 865 496 865 q 333 849 378 865 q 264 799 289 832 q 239 713 239 765 q 269 622 239 657 q 363 568 299 586 l 496 535 q 667 441 613 507 q 722 275 722 375 q 683 123 722 188 q 572 23 643 58 q 404 -12 500 -12 m 321 -275 l 321 -129 l 471 -129 l 471 -275 l 321 -275 m 340 1108 l 340 1260 l 494 1260 l 494 1108 l 340 1108 z "},"ẞ":{"ha":915,"x_min":125,"x_max":822,"o":"m 547 -12 q 438 4 489 -12 q 342 56 388 21 l 378 165 q 449 122 418 135 q 521 108 481 108 q 637 151 594 108 q 679 274 679 193 q 635 398 679 360 q 514 436 590 436 l 397 436 l 397 550 l 481 550 q 556 569 522 550 q 610 625 590 589 q 629 715 629 661 q 588 831 629 793 q 467 869 547 869 q 317 810 367 869 q 268 625 268 751 l 268 0 l 125 0 l 125 628 q 162 826 125 744 q 274 950 199 907 q 465 993 350 993 q 631 961 563 993 q 736 872 700 929 q 772 733 772 814 q 758 638 772 682 q 719 562 744 594 q 663 510 694 529 l 663 506 q 779 421 736 486 q 822 261 822 356 q 790 122 822 183 q 695 24 757 60 q 547 -12 633 -12 z "},"T":{"ha":775,"x_min":43,"x_max":732,"o":"m 315 0 l 315 854 l 43 854 l 43 979 l 732 979 l 732 854 l 460 854 l 460 0 l 315 0 z "},"Ŧ":{"ha":775,"x_min":43,"x_max":732,"o":"m 315 0 l 315 854 l 43 854 l 43 979 l 732 979 l 732 854 l 460 854 l 460 0 l 315 0 m 150 407 l 150 528 l 625 528 l 625 407 l 150 407 z "},"Ť":{"ha":775,"x_min":43,"x_max":732,"o":"m 315 0 l 315 854 l 43 854 l 43 979 l 732 979 l 732 854 l 460 854 l 460 0 l 315 0 m 322 1063 l 181 1281 l 292 1281 l 388 1144 l 485 1281 l 594 1281 l 453 1063 l 322 1063 z "},"Ţ":{"ha":775,"x_min":43,"x_max":732,"o":"m 315 0 l 315 854 l 43 854 l 43 979 l 732 979 l 732 854 l 460 854 l 460 0 l 315 0 m 396 -278 q 329 -271 365 -278 q 269 -250 293 -264 l 293 -181 q 338 -198 313 -190 q 392 -206 363 -206 q 441 -194 425 -206 q 457 -158 457 -183 q 442 -127 457 -137 q 407 -117 428 -117 q 380 -119 396 -117 q 351 -126 364 -122 l 328 -104 l 349 28 l 422 28 l 406 -83 l 372 -68 q 403 -58 382 -61 q 447 -56 425 -56 q 499 -67 475 -56 q 538 -101 522 -78 q 553 -158 553 -124 q 533 -225 553 -199 q 478 -265 514 -251 q 396 -278 443 -278 z "},"Ț":{"ha":775,"x_min":43,"x_max":732,"o":"m 315 0 l 315 854 l 43 854 l 43 979 l 732 979 l 732 854 l 460 854 l 460 0 l 315 0 m 392 -408 l 332 -367 q 370 -302 358 -337 q 382 -226 382 -267 l 404 -243 l 313 -243 l 313 -107 l 461 -107 l 461 -212 q 446 -319 461 -271 q 392 -408 431 -368 z "},"Ṭ":{"ha":775,"x_min":43,"x_max":732,"o":"m 315 0 l 315 854 l 43 854 l 43 979 l 732 979 l 732 854 l 460 854 l 460 0 l 315 0 m 313 -275 l 313 -129 l 463 -129 l 463 -275 l 313 -275 z "},"Ṯ":{"ha":775,"x_min":43,"x_max":732,"o":"m 315 0 l 315 854 l 43 854 l 43 979 l 732 979 l 732 854 l 460 854 l 460 0 l 315 0 m 190 -240 l 190 -129 l 585 -129 l 585 -240 l 190 -240 z "},"U":{"ha":893,"x_min":114,"x_max":778,"o":"m 446 -12 q 197 75 279 -12 q 114 346 114 163 l 114 979 l 257 979 l 257 349 q 303 172 257 224 q 446 119 349 119 q 590 172 546 119 q 635 349 635 224 l 635 979 l 778 979 l 778 346 q 695 76 778 164 q 446 -12 613 -12 z "},"Ú":{"ha":893,"x_min":114,"x_max":778,"o":"m 446 -12 q 197 75 279 -12 q 114 346 114 163 l 114 979 l 257 979 l 257 349 q 303 172 257 224 q 446 119 349 119 q 590 172 546 119 q 635 349 635 224 l 635 979 l 778 979 l 778 346 q 695 76 778 164 q 446 -12 613 -12 m 386 1063 l 521 1285 l 690 1285 l 506 1063 l 386 1063 z "},"Ŭ":{"ha":893,"x_min":114,"x_max":778,"o":"m 446 -12 q 197 75 279 -12 q 114 346 114 163 l 114 979 l 257 979 l 257 349 q 303 172 257 224 q 446 119 349 119 q 590 172 546 119 q 635 349 635 224 l 635 979 l 778 979 l 778 346 q 695 76 778 164 q 446 -12 613 -12 m 446 1056 q 301 1113 353 1056 q 246 1281 249 1171 l 339 1290 q 365 1193 340 1225 q 446 1161 390 1161 q 528 1194 504 1161 q 554 1290 551 1226 l 647 1281 q 592 1113 644 1171 q 446 1056 539 1056 z "},"Û":{"ha":893,"x_min":114,"x_max":778,"o":"m 446 -12 q 197 75 279 -12 q 114 346 114 163 l 114 979 l 257 979 l 257 349 q 303 172 257 224 q 446 119 349 119 q 590 172 546 119 q 635 349 635 224 l 635 979 l 778 979 l 778 346 q 695 76 778 164 q 446 -12 613 -12 m 239 1063 l 381 1281 l 511 1281 l 653 1063 l 542 1063 l 446 1199 l 349 1063 l 239 1063 z "},"Ȕ":{"ha":893,"x_min":114,"x_max":778,"o":"m 446 -12 q 197 75 279 -12 q 114 346 114 163 l 114 979 l 257 979 l 257 349 q 303 172 257 224 q 446 119 349 119 q 590 172 546 119 q 635 349 635 224 l 635 979 l 778 979 l 778 346 q 695 76 778 164 q 446 -12 613 -12 m 488 1063 l 343 1281 l 481 1281 l 575 1063 l 488 1063 m 314 1063 l 157 1281 l 294 1281 l 401 1063 l 314 1063 z "},"Ü":{"ha":893,"x_min":114,"x_max":778,"o":"m 446 -12 q 197 75 279 -12 q 114 346 114 163 l 114 979 l 257 979 l 257 349 q 303 172 257 224 q 446 119 349 119 q 590 172 546 119 q 635 349 635 224 l 635 979 l 778 979 l 778 346 q 695 76 778 164 q 446 -12 613 -12 m 496 1106 l 496 1246 l 643 1246 l 643 1106 l 496 1106 m 249 1106 l 249 1246 l 396 1246 l 396 1106 l 249 1106 z "},"Ụ":{"ha":893,"x_min":114,"x_max":778,"o":"m 446 -12 q 197 75 279 -12 q 114 346 114 163 l 114 979 l 257 979 l 257 349 q 303 172 257 224 q 446 119 349 119 q 590 172 546 119 q 635 349 635 224 l 635 979 l 778 979 l 778 346 q 695 76 778 164 q 446 -12 613 -12 m 371 -275 l 371 -129 l 521 -129 l 521 -275 l 371 -275 z "},"Ù":{"ha":893,"x_min":114,"x_max":778,"o":"m 446 -12 q 197 75 279 -12 q 114 346 114 163 l 114 979 l 257 979 l 257 349 q 303 172 257 224 q 446 119 349 119 q 590 172 546 119 q 635 349 635 224 l 635 979 l 778 979 l 778 346 q 695 76 778 164 q 446 -12 613 -12 m 393 1063 l 208 1281 l 367 1281 l 501 1063 l 393 1063 z "},"Ủ":{"ha":893,"x_min":114,"x_max":778,"o":"m 446 -12 q 197 75 279 -12 q 114 346 114 163 l 114 979 l 257 979 l 257 349 q 303 172 257 224 q 446 119 349 119 q 590 172 546 119 q 635 349 635 224 l 635 979 l 778 979 l 778 346 q 695 76 778 164 q 446 -12 613 -12 m 400 1063 l 400 1089 q 410 1128 400 1113 q 431 1155 419 1143 q 452 1179 443 1167 q 461 1206 461 1192 q 452 1227 461 1221 q 422 1233 443 1233 q 385 1231 404 1233 q 347 1219 365 1228 l 326 1286 q 382 1307 350 1300 q 450 1314 414 1314 q 542 1292 510 1314 q 575 1228 575 1269 q 563 1181 575 1199 q 533 1149 550 1163 q 504 1120 517 1135 q 492 1083 492 1106 l 492 1063 l 400 1063 z "},"Ư":{"ha":893,"x_min":114,"x_max":906,"o":"m 446 -12 q 197 75 279 -12 q 114 346 114 163 l 114 979 l 257 979 l 257 349 q 303 172 257 224 q 446 119 349 119 q 590 172 546 119 q 635 349 635 224 l 635 979 l 778 979 l 778 346 q 695 76 778 164 q 446 -12 613 -12 m 756 896 l 664 954 l 664 979 q 726 994 703 979 q 759 1040 749 1008 q 769 1128 769 1072 l 769 1156 l 906 1156 l 906 1108 q 889 1003 906 1049 q 838 930 872 957 q 756 896 804 903 z "},"Ứ":{"ha":893,"x_min":114,"x_max":906,"o":"m 446 -12 q 197 75 279 -12 q 114 346 114 163 l 114 979 l 257 979 l 257 349 q 303 172 257 224 q 446 119 349 119 q 590 172 546 119 q 635 349 635 224 l 635 979 l 778 979 l 778 346 q 695 76 778 164 q 446 -12 613 -12 m 756 896 l 664 954 l 664 979 q 726 994 703 979 q 759 1040 749 1008 q 769 1128 769 1072 l 769 1156 l 906 1156 l 906 1108 q 889 1003 906 1049 q 838 930 872 957 q 756 896 804 903 m 386 1063 l 521 1285 l 690 1285 l 506 1063 l 386 1063 z "},"Ự":{"ha":893,"x_min":114,"x_max":906,"o":"m 446 -12 q 197 75 279 -12 q 114 346 114 163 l 114 979 l 257 979 l 257 349 q 303 172 257 224 q 446 119 349 119 q 590 172 546 119 q 635 349 635 224 l 635 979 l 778 979 l 778 346 q 695 76 778 164 q 446 -12 613 -12 m 756 896 l 664 954 l 664 979 q 726 994 703 979 q 759 1040 749 1008 q 769 1128 769 1072 l 769 1156 l 906 1156 l 906 1108 q 889 1003 906 1049 q 838 930 872 957 q 756 896 804 903 m 371 -275 l 371 -129 l 521 -129 l 521 -275 l 371 -275 z "},"Ừ":{"ha":893,"x_min":114,"x_max":906,"o":"m 446 -12 q 197 75 279 -12 q 114 346 114 163 l 114 979 l 257 979 l 257 349 q 303 172 257 224 q 446 119 349 119 q 590 172 546 119 q 635 349 635 224 l 635 979 l 778 979 l 778 346 q 695 76 778 164 q 446 -12 613 -12 m 756 896 l 664 954 l 664 979 q 726 994 703 979 q 759 1040 749 1008 q 769 1128 769 1072 l 769 1156 l 906 1156 l 906 1108 q 889 1003 906 1049 q 838 930 872 957 q 756 896 804 903 m 393 1063 l 208 1281 l 367 1281 l 501 1063 l 393 1063 z "},"Ử":{"ha":893,"x_min":114,"x_max":906,"o":"m 446 -12 q 197 75 279 -12 q 114 346 114 163 l 114 979 l 257 979 l 257 349 q 303 172 257 224 q 446 119 349 119 q 590 172 546 119 q 635 349 635 224 l 635 979 l 778 979 l 778 346 q 695 76 778 164 q 446 -12 613 -12 m 756 896 l 664 954 l 664 979 q 726 994 703 979 q 759 1040 749 1008 q 769 1128 769 1072 l 769 1156 l 906 1156 l 906 1108 q 889 1003 906 1049 q 838 930 872 957 q 756 896 804 903 m 400 1063 l 400 1089 q 410 1128 400 1113 q 431 1155 419 1143 q 452 1179 443 1167 q 461 1206 461 1192 q 452 1227 461 1221 q 422 1233 443 1233 q 385 1231 404 1233 q 347 1219 365 1228 l 326 1286 q 382 1307 350 1300 q 450 1314 414 1314 q 542 1292 510 1314 q 575 1228 575 1269 q 563 1181 575 1199 q 533 1149 550 1163 q 504 1120 517 1135 q 492 1083 492 1106 l 492 1063 l 400 1063 z "},"Ữ":{"ha":893,"x_min":114,"x_max":906,"o":"m 446 -12 q 197 75 279 -12 q 114 346 114 163 l 114 979 l 257 979 l 257 349 q 303 172 257 224 q 446 119 349 119 q 590 172 546 119 q 635 349 635 224 l 635 979 l 778 979 l 778 346 q 695 76 778 164 q 446 -12 613 -12 m 756 896 l 664 954 l 664 979 q 726 994 703 979 q 759 1040 749 1008 q 769 1128 769 1072 l 769 1156 l 906 1156 l 906 1108 q 889 1003 906 1049 q 838 930 872 957 q 756 896 804 903 m 254 1075 l 169 1081 q 185 1174 168 1133 q 234 1238 201 1215 q 310 1260 267 1260 q 382 1242 353 1260 q 432 1211 411 1224 q 467 1190 447 1203 q 510 1176 488 1176 q 557 1202 542 1176 q 572 1265 572 1228 l 656 1260 q 640 1166 657 1206 q 592 1103 624 1126 q 517 1081 560 1081 q 446 1098 475 1081 q 397 1128 417 1115 q 362 1151 382 1138 q 315 1164 342 1164 q 269 1138 283 1164 q 254 1075 256 1113 z "},"Ű":{"ha":893,"x_min":114,"x_max":778,"o":"m 446 -12 q 197 75 279 -12 q 114 346 114 163 l 114 979 l 257 979 l 257 349 q 303 172 257 224 q 446 119 349 119 q 590 172 546 119 q 635 349 635 224 l 635 979 l 778 979 l 778 346 q 695 76 778 164 q 446 -12 613 -12 m 315 1063 l 410 1281 l 549 1281 l 404 1063 l 315 1063 m 488 1063 l 597 1281 l 735 1281 l 576 1063 l 488 1063 z "},"Ȗ":{"ha":893,"x_min":114,"x_max":778,"o":"m 446 -12 q 197 75 279 -12 q 114 346 114 163 l 114 979 l 257 979 l 257 349 q 303 172 257 224 q 446 119 349 119 q 590 172 546 119 q 635 349 635 224 l 635 979 l 778 979 l 778 346 q 695 76 778 164 q 446 -12 613 -12 m 339 1056 l 246 1064 q 301 1234 249 1178 q 446 1290 353 1290 q 592 1233 540 1290 q 647 1064 644 1176 l 554 1056 q 528 1151 551 1118 q 447 1183 504 1183 q 367 1152 393 1183 q 339 1056 342 1121 z "},"Ū":{"ha":893,"x_min":114,"x_max":778,"o":"m 446 -12 q 197 75 279 -12 q 114 346 114 163 l 114 979 l 257 979 l 257 349 q 303 172 257 224 q 446 119 349 119 q 590 172 546 119 q 635 349 635 224 l 635 979 l 778 979 l 778 346 q 695 76 778 164 q 446 -12 613 -12 m 247 1124 l 247 1235 l 644 1235 l 644 1124 l 247 1124 z "},"Ṻ":{"ha":893,"x_min":114,"x_max":778,"o":"m 446 -12 q 197 75 279 -12 q 114 346 114 163 l 114 979 l 257 979 l 257 349 q 303 172 257 224 q 446 119 349 119 q 590 172 546 119 q 635 349 635 224 l 635 979 l 778 979 l 778 346 q 695 76 778 164 q 446 -12 613 -12 m 249 1107 l 249 1210 l 643 1210 l 643 1107 l 249 1107 m 253 1290 l 253 1413 l 401 1413 l 401 1290 l 253 1290 m 490 1290 l 490 1413 l 639 1413 l 639 1290 l 490 1290 z "},"Ų":{"ha":893,"x_min":114,"x_max":778,"o":"m 446 -12 q 197 75 279 -12 q 114 346 114 163 l 114 979 l 257 979 l 257 349 q 303 172 257 224 q 446 119 349 119 q 590 172 546 119 q 635 349 635 224 l 635 979 l 778 979 l 778 346 q 695 76 778 164 q 446 -12 613 -12 m 483 -278 q 379 -244 418 -278 q 340 -149 340 -210 q 374 -42 340 -93 q 463 47 407 10 l 511 0 q 475 -33 490 -14 q 452 -75 460 -53 q 444 -121 444 -97 q 460 -170 444 -154 q 503 -186 475 -186 q 529 -183 514 -186 q 560 -172 544 -179 l 582 -256 q 533 -273 557 -268 q 483 -278 510 -278 z "},"Ů":{"ha":893,"x_min":114,"x_max":778,"o":"m 446 -12 q 197 75 279 -12 q 114 346 114 163 l 114 979 l 257 979 l 257 349 q 303 172 257 224 q 446 119 349 119 q 590 172 546 119 q 635 349 635 224 l 635 979 l 778 979 l 778 346 q 695 76 778 164 q 446 -12 613 -12 m 446 1049 q 363 1071 399 1049 q 304 1130 326 1093 q 282 1211 282 1167 q 303 1294 282 1258 q 362 1352 325 1331 q 446 1374 399 1374 q 530 1352 493 1374 q 588 1294 567 1331 q 610 1211 610 1258 q 588 1130 610 1167 q 530 1071 567 1093 q 446 1049 493 1049 m 444 1115 q 510 1143 485 1115 q 536 1213 536 1171 q 510 1281 536 1254 q 444 1307 485 1307 q 382 1281 408 1307 q 356 1213 356 1254 q 381 1142 356 1169 q 444 1115 407 1115 z "},"Ũ":{"ha":893,"x_min":114,"x_max":778,"o":"m 446 -12 q 197 75 279 -12 q 114 346 114 163 l 114 979 l 257 979 l 257 349 q 303 172 257 224 q 446 119 349 119 q 590 172 546 119 q 635 349 635 224 l 635 979 l 778 979 l 778 346 q 695 76 778 164 q 446 -12 613 -12 m 281 1072 l 194 1079 q 231 1210 193 1158 q 333 1261 268 1261 q 412 1242 378 1261 q 465 1213 446 1222 q 501 1192 478 1206 q 550 1179 525 1179 q 596 1203 579 1179 q 611 1265 613 1226 l 697 1261 q 663 1130 700 1181 q 558 1079 626 1079 q 480 1098 514 1079 q 432 1125 446 1117 q 392 1147 417 1133 q 342 1161 367 1161 q 297 1138 313 1161 q 281 1072 281 1114 z "},"Ṹ":{"ha":893,"x_min":114,"x_max":778,"o":"m 446 -12 q 197 75 279 -12 q 114 346 114 163 l 114 979 l 257 979 l 257 349 q 303 172 257 224 q 446 119 349 119 q 590 172 546 119 q 635 349 635 224 l 635 979 l 778 979 l 778 346 q 695 76 778 164 q 446 -12 613 -12 m 392 1250 l 488 1451 l 646 1451 l 499 1250 l 392 1250 m 528 1065 q 467 1080 490 1065 q 429 1103 443 1094 q 403 1120 419 1108 q 364 1132 388 1132 q 332 1114 342 1132 q 317 1064 322 1096 l 240 1068 q 257 1149 244 1115 q 295 1201 269 1182 q 361 1221 321 1221 q 427 1205 400 1221 q 467 1179 454 1189 q 492 1165 476 1175 q 528 1154 508 1154 q 561 1173 550 1154 q 575 1222 572 1192 l 653 1218 q 618 1106 647 1146 q 528 1065 589 1065 z "},"V":{"ha":819,"x_min":4,"x_max":815,"o":"m 350 0 l 4 979 l 157 979 l 410 182 l 410 182 l 663 979 l 815 979 l 469 0 l 350 0 z "},"W":{"ha":1282,"x_min":60,"x_max":1222,"o":"m 303 0 l 60 979 l 211 979 l 376 182 l 386 182 l 588 979 l 700 979 l 903 181 l 911 181 l 1078 979 l 1222 979 l 979 0 l 843 0 l 646 778 l 636 778 l 436 0 l 303 0 z "},"Ẃ":{"ha":1282,"x_min":60,"x_max":1222,"o":"m 303 0 l 60 979 l 211 979 l 376 182 l 386 182 l 588 979 l 700 979 l 903 181 l 911 181 l 1078 979 l 1222 979 l 979 0 l 843 0 l 646 778 l 636 778 l 436 0 l 303 0 m 582 1063 l 717 1285 l 886 1285 l 701 1063 l 582 1063 z "},"Ŵ":{"ha":1282,"x_min":60,"x_max":1222,"o":"m 303 0 l 60 979 l 211 979 l 376 182 l 386 182 l 588 979 l 700 979 l 903 181 l 911 181 l 1078 979 l 1222 979 l 979 0 l 843 0 l 646 778 l 636 778 l 436 0 l 303 0 m 435 1063 l 576 1281 l 707 1281 l 849 1063 l 738 1063 l 642 1199 l 544 1063 l 435 1063 z "},"Ẅ":{"ha":1282,"x_min":60,"x_max":1222,"o":"m 303 0 l 60 979 l 211 979 l 376 182 l 386 182 l 588 979 l 700 979 l 903 181 l 911 181 l 1078 979 l 1222 979 l 979 0 l 843 0 l 646 778 l 636 778 l 436 0 l 303 0 m 692 1106 l 692 1246 l 839 1246 l 839 1106 l 692 1106 m 444 1106 l 444 1246 l 592 1246 l 592 1106 l 444 1106 z "},"Ẁ":{"ha":1282,"x_min":60,"x_max":1222,"o":"m 303 0 l 60 979 l 211 979 l 376 182 l 386 182 l 588 979 l 700 979 l 903 181 l 911 181 l 1078 979 l 1222 979 l 979 0 l 843 0 l 646 778 l 636 778 l 436 0 l 303 0 m 589 1063 l 404 1281 l 563 1281 l 697 1063 l 589 1063 z "},"X":{"ha":811,"x_min":35,"x_max":776,"o":"m 35 0 l 311 529 l 313 475 l 47 979 l 213 979 l 404 578 l 406 578 l 601 979 l 765 979 l 497 475 l 497 529 l 776 0 l 613 0 l 407 425 l 404 425 l 197 0 l 35 0 z "},"Y":{"ha":747,"x_min":4,"x_max":744,"o":"m 303 0 l 303 510 l 329 403 l 4 979 l 163 979 l 374 568 l 379 568 l 589 979 l 744 979 l 419 403 l 446 510 l 446 0 l 303 0 z "},"Ý":{"ha":747,"x_min":4,"x_max":744,"o":"m 303 0 l 303 510 l 329 403 l 4 979 l 163 979 l 374 568 l 379 568 l 589 979 l 744 979 l 419 403 l 446 510 l 446 0 l 303 0 m 315 1063 l 450 1285 l 619 1285 l 435 1063 l 315 1063 z "},"Ŷ":{"ha":747,"x_min":4,"x_max":744,"o":"m 303 0 l 303 510 l 329 403 l 4 979 l 163 979 l 374 568 l 379 568 l 589 979 l 744 979 l 419 403 l 446 510 l 446 0 l 303 0 m 168 1063 l 310 1281 l 440 1281 l 582 1063 l 471 1063 l 375 1199 l 278 1063 l 168 1063 z "},"Ÿ":{"ha":747,"x_min":4,"x_max":744,"o":"m 303 0 l 303 510 l 329 403 l 4 979 l 163 979 l 374 568 l 379 568 l 589 979 l 744 979 l 419 403 l 446 510 l 446 0 l 303 0 m 425 1106 l 425 1246 l 572 1246 l 572 1106 l 425 1106 m 178 1106 l 178 1246 l 325 1246 l 325 1106 l 178 1106 z "},"Ẏ":{"ha":747,"x_min":4,"x_max":744,"o":"m 303 0 l 303 510 l 329 403 l 4 979 l 163 979 l 374 568 l 379 568 l 589 979 l 744 979 l 419 403 l 446 510 l 446 0 l 303 0 m 297 1108 l 297 1260 l 451 1260 l 451 1108 l 297 1108 z "},"Ỵ":{"ha":747,"x_min":4,"x_max":744,"o":"m 303 0 l 303 510 l 329 403 l 4 979 l 163 979 l 374 568 l 379 568 l 589 979 l 744 979 l 419 403 l 446 510 l 446 0 l 303 0 m 300 -275 l 300 -129 l 450 -129 l 450 -275 l 300 -275 z "},"Ỳ":{"ha":747,"x_min":4,"x_max":744,"o":"m 303 0 l 303 510 l 329 403 l 4 979 l 163 979 l 374 568 l 379 568 l 589 979 l 744 979 l 419 403 l 446 510 l 446 0 l 303 0 m 322 1063 l 138 1281 l 296 1281 l 431 1063 l 322 1063 z "},"Ƴ":{"ha":738,"x_min":4,"x_max":785,"o":"m 303 0 l 303 510 l 329 403 l 4 979 l 163 979 l 374 568 l 378 568 l 535 865 q 612 964 569 935 q 708 993 654 993 q 749 989 731 993 q 785 978 768 985 l 785 865 q 762 873 774 871 q 738 875 750 875 q 681 857 701 875 q 642 803 661 839 l 419 403 l 446 510 l 446 0 l 303 0 z "},"Ỷ":{"ha":747,"x_min":4,"x_max":744,"o":"m 303 0 l 303 510 l 329 403 l 4 979 l 163 979 l 374 568 l 379 568 l 589 979 l 744 979 l 419 403 l 446 510 l 446 0 l 303 0 m 329 1063 l 329 1089 q 339 1128 329 1113 q 360 1155 349 1143 q 381 1179 372 1167 q 390 1206 390 1192 q 381 1227 390 1221 q 351 1233 372 1233 q 314 1231 333 1233 q 276 1219 294 1228 l 256 1286 q 311 1307 279 1300 q 379 1314 343 1314 q 472 1292 439 1314 q 504 1228 504 1269 q 492 1181 504 1199 q 463 1149 479 1163 q 433 1120 446 1135 q 421 1083 421 1106 l 421 1063 l 329 1063 z "},"Ȳ":{"ha":747,"x_min":4,"x_max":744,"o":"m 303 0 l 303 510 l 329 403 l 4 979 l 163 979 l 374 568 l 379 568 l 589 979 l 744 979 l 419 403 l 446 510 l 446 0 l 303 0 m 176 1124 l 176 1235 l 574 1235 l 574 1124 l 176 1124 z "},"Ỹ":{"ha":747,"x_min":4,"x_max":744,"o":"m 303 0 l 303 510 l 329 403 l 4 979 l 163 979 l 374 568 l 379 568 l 589 979 l 744 979 l 419 403 l 446 510 l 446 0 l 303 0 m 210 1072 l 124 1079 q 160 1210 122 1158 q 263 1261 197 1261 q 341 1242 307 1261 q 394 1213 375 1222 q 431 1192 407 1206 q 479 1179 454 1179 q 525 1203 508 1179 q 540 1265 542 1226 l 626 1261 q 592 1130 629 1181 q 488 1079 556 1079 q 409 1098 443 1079 q 361 1125 375 1117 q 321 1147 346 1133 q 271 1161 296 1161 q 226 1138 242 1161 q 210 1072 210 1114 z "},"Z":{"ha":732,"x_min":71,"x_max":675,"o":"m 71 0 l 71 96 l 525 914 l 542 856 l 71 856 l 71 979 l 663 979 l 663 885 l 206 67 l 190 124 l 675 124 l 675 0 l 71 0 z "},"Ź":{"ha":732,"x_min":71,"x_max":675,"o":"m 71 0 l 71 96 l 525 914 l 542 856 l 71 856 l 71 979 l 663 979 l 663 885 l 206 67 l 190 124 l 675 124 l 675 0 l 71 0 m 306 1063 l 440 1285 l 610 1285 l 425 1063 l 306 1063 z "},"Ž":{"ha":732,"x_min":71,"x_max":675,"o":"m 71 0 l 71 96 l 525 914 l 542 856 l 71 856 l 71 979 l 663 979 l 663 885 l 206 67 l 190 124 l 675 124 l 675 0 l 71 0 m 300 1063 l 158 1281 l 269 1281 l 365 1144 l 463 1281 l 572 1281 l 431 1063 l 300 1063 z "},"Ż":{"ha":732,"x_min":71,"x_max":675,"o":"m 71 0 l 71 96 l 525 914 l 542 856 l 71 856 l 71 979 l 663 979 l 663 885 l 206 67 l 190 124 l 675 124 l 675 0 l 71 0 m 288 1108 l 288 1260 l 442 1260 l 442 1108 l 288 1108 z "},"Ẓ":{"ha":732,"x_min":71,"x_max":675,"o":"m 71 0 l 71 96 l 525 914 l 542 856 l 71 856 l 71 979 l 663 979 l 663 885 l 206 67 l 190 124 l 675 124 l 675 0 l 71 0 m 297 -275 l 297 -129 l 447 -129 l 447 -275 l 297 -275 z "},"a":{"ha":749,"x_min":86,"x_max":644,"o":"m 304 -12 q 194 17 243 -12 q 115 94 144 46 q 86 201 86 143 q 126 321 86 274 q 243 390 167 368 q 426 413 319 413 l 525 413 l 525 315 l 447 315 q 349 310 390 315 q 280 292 307 304 q 240 258 253 281 q 226 203 226 236 q 261 124 226 150 q 344 99 296 99 q 421 122 383 99 q 482 186 458 146 q 506 275 506 226 l 506 469 q 467 562 506 535 q 356 589 429 589 q 258 576 310 589 q 153 526 207 563 l 108 631 q 197 673 153 657 q 289 697 242 689 q 386 706 336 706 q 521 678 463 706 q 612 597 579 651 q 644 456 644 542 l 644 0 l 525 0 l 525 142 l 517 142 q 466 64 496 100 q 397 8 436 28 q 304 -12 357 -12 z "},"á":{"ha":749,"x_min":86,"x_max":644,"o":"m 304 -12 q 194 17 243 -12 q 115 94 144 46 q 86 201 86 143 q 126 321 86 274 q 243 390 167 368 q 426 413 319 413 l 525 413 l 525 315 l 447 315 q 349 310 390 315 q 280 292 307 304 q 240 258 253 281 q 226 203 226 236 q 261 124 226 150 q 344 99 296 99 q 421 122 383 99 q 482 186 458 146 q 506 275 506 226 l 506 469 q 467 562 506 535 q 356 589 429 589 q 258 576 310 589 q 153 526 207 563 l 108 631 q 197 673 153 657 q 289 697 242 689 q 386 706 336 706 q 521 678 463 706 q 612 597 579 651 q 644 456 644 542 l 644 0 l 525 0 l 525 142 l 517 142 q 466 64 496 100 q 397 8 436 28 q 304 -12 357 -12 m 315 778 l 432 1036 l 589 1036 l 426 778 l 315 778 z "},"ă":{"ha":749,"x_min":86,"x_max":644,"o":"m 304 -12 q 194 17 243 -12 q 115 94 144 46 q 86 201 86 143 q 126 321 86 274 q 243 390 167 368 q 426 413 319 413 l 525 413 l 525 315 l 447 315 q 349 310 390 315 q 280 292 307 304 q 240 258 253 281 q 226 203 226 236 q 261 124 226 150 q 344 99 296 99 q 421 122 383 99 q 482 186 458 146 q 506 275 506 226 l 506 469 q 467 562 506 535 q 356 589 429 589 q 258 576 310 589 q 153 526 207 563 l 108 631 q 197 673 153 657 q 289 697 242 689 q 386 706 336 706 q 521 678 463 706 q 612 597 579 651 q 644 456 644 542 l 644 0 l 525 0 l 525 142 l 517 142 q 466 64 496 100 q 397 8 436 28 q 304 -12 357 -12 m 378 775 q 267 805 310 775 q 205 893 225 835 q 182 1033 185 951 l 276 1042 q 301 917 281 957 q 378 878 322 878 q 453 917 432 878 q 479 1042 475 957 l 574 1033 q 551 893 572 951 q 488 805 531 835 q 378 775 446 775 z "},"ắ":{"ha":749,"x_min":86,"x_max":644,"o":"m 304 -12 q 194 17 243 -12 q 115 94 144 46 q 86 201 86 143 q 126 321 86 274 q 243 390 167 368 q 426 413 319 413 l 525 413 l 525 315 l 447 315 q 349 310 390 315 q 280 292 307 304 q 240 258 253 281 q 226 203 226 236 q 261 124 226 150 q 344 99 296 99 q 421 122 383 99 q 482 186 458 146 q 506 275 506 226 l 506 469 q 467 562 506 535 q 356 589 429 589 q 258 576 310 589 q 153 526 207 563 l 108 631 q 197 673 153 657 q 289 697 242 689 q 386 706 336 706 q 521 678 463 706 q 612 597 579 651 q 644 456 644 542 l 644 0 l 525 0 l 525 142 l 517 142 q 466 64 496 100 q 397 8 436 28 q 304 -12 357 -12 m 378 775 q 228 827 279 775 q 175 972 176 879 l 263 979 q 294 894 264 921 q 378 868 325 868 q 462 894 432 868 q 494 979 492 921 l 582 972 q 529 827 581 879 q 378 775 478 775 m 325 958 l 413 1160 l 556 1160 l 419 958 l 325 958 z "},"ặ":{"ha":749,"x_min":86,"x_max":644,"o":"m 304 -12 q 194 17 243 -12 q 115 94 144 46 q 86 201 86 143 q 126 321 86 274 q 243 390 167 368 q 426 413 319 413 l 525 413 l 525 315 l 447 315 q 349 310 390 315 q 280 292 307 304 q 240 258 253 281 q 226 203 226 236 q 261 124 226 150 q 344 99 296 99 q 421 122 383 99 q 482 186 458 146 q 506 275 506 226 l 506 469 q 467 562 506 535 q 356 589 429 589 q 258 576 310 589 q 153 526 207 563 l 108 631 q 197 673 153 657 q 289 697 242 689 q 386 706 336 706 q 521 678 463 706 q 612 597 579 651 q 644 456 644 542 l 644 0 l 525 0 l 525 142 l 517 142 q 466 64 496 100 q 397 8 436 28 q 304 -12 357 -12 m 257 -275 l 257 -129 l 407 -129 l 407 -275 l 257 -275 m 378 775 q 267 805 310 775 q 205 893 225 835 q 182 1033 185 951 l 276 1042 q 301 917 281 957 q 378 878 322 878 q 453 917 432 878 q 479 1042 475 957 l 574 1033 q 551 893 572 951 q 488 805 531 835 q 378 775 446 775 z "},"ằ":{"ha":749,"x_min":86,"x_max":644,"o":"m 304 -12 q 194 17 243 -12 q 115 94 144 46 q 86 201 86 143 q 126 321 86 274 q 243 390 167 368 q 426 413 319 413 l 525 413 l 525 315 l 447 315 q 349 310 390 315 q 280 292 307 304 q 240 258 253 281 q 226 203 226 236 q 261 124 226 150 q 344 99 296 99 q 421 122 383 99 q 482 186 458 146 q 506 275 506 226 l 506 469 q 467 562 506 535 q 356 589 429 589 q 258 576 310 589 q 153 526 207 563 l 108 631 q 197 673 153 657 q 289 697 242 689 q 386 706 336 706 q 521 678 463 706 q 612 597 579 651 q 644 456 644 542 l 644 0 l 525 0 l 525 142 l 517 142 q 466 64 496 100 q 397 8 436 28 q 304 -12 357 -12 m 378 775 q 228 827 279 775 q 175 972 176 879 l 263 979 q 294 894 264 921 q 378 868 325 868 q 462 894 432 868 q 494 979 492 921 l 582 972 q 529 827 581 879 q 378 775 478 775 m 340 958 l 207 1160 l 350 1160 l 435 958 l 340 958 z "},"ẳ":{"ha":749,"x_min":86,"x_max":644,"o":"m 304 -12 q 194 17 243 -12 q 115 94 144 46 q 86 201 86 143 q 126 321 86 274 q 243 390 167 368 q 426 413 319 413 l 525 413 l 525 315 l 447 315 q 349 310 390 315 q 280 292 307 304 q 240 258 253 281 q 226 203 226 236 q 261 124 226 150 q 344 99 296 99 q 421 122 383 99 q 482 186 458 146 q 506 275 506 226 l 506 469 q 467 562 506 535 q 356 589 429 589 q 258 576 310 589 q 153 526 207 563 l 108 631 q 197 673 153 657 q 289 697 242 689 q 386 706 336 706 q 521 678 463 706 q 612 597 579 651 q 644 456 644 542 l 644 0 l 525 0 l 525 142 l 517 142 q 466 64 496 100 q 397 8 436 28 q 304 -12 357 -12 m 378 775 q 228 827 279 775 q 175 972 176 879 l 263 979 q 294 894 264 921 q 378 868 325 868 q 462 894 432 868 q 494 979 492 921 l 582 972 q 529 827 581 879 q 378 775 478 775 m 329 958 q 338 999 329 982 q 359 1030 347 1015 q 379 1058 371 1044 q 388 1085 388 1071 q 375 1108 388 1100 q 340 1117 363 1117 q 308 1111 325 1117 q 276 1096 292 1106 l 256 1163 q 310 1185 278 1176 q 382 1193 342 1193 q 469 1172 438 1193 q 500 1113 500 1151 q 488 1067 500 1086 q 462 1033 476 1049 q 435 1000 447 1018 q 422 958 422 982 l 329 958 z "},"ẵ":{"ha":749,"x_min":86,"x_max":644,"o":"m 304 -12 q 194 17 243 -12 q 115 94 144 46 q 86 201 86 143 q 126 321 86 274 q 243 390 167 368 q 426 413 319 413 l 525 413 l 525 315 l 447 315 q 349 310 390 315 q 280 292 307 304 q 240 258 253 281 q 226 203 226 236 q 261 124 226 150 q 344 99 296 99 q 421 122 383 99 q 482 186 458 146 q 506 275 506 226 l 506 469 q 467 562 506 535 q 356 589 429 589 q 258 576 310 589 q 153 526 207 563 l 108 631 q 197 673 153 657 q 289 697 242 689 q 386 706 336 706 q 521 678 463 706 q 612 597 579 651 q 644 456 644 542 l 644 0 l 525 0 l 525 142 l 517 142 q 466 64 496 100 q 397 8 436 28 q 304 -12 357 -12 m 378 775 q 233 822 285 775 q 175 956 181 869 l 260 963 q 299 891 268 914 q 378 868 331 868 q 458 891 426 868 q 496 963 489 914 l 582 956 q 524 822 576 869 q 378 775 471 775 m 249 1026 l 172 1032 q 189 1110 176 1078 q 227 1162 201 1143 q 293 1181 253 1181 q 354 1165 329 1181 q 394 1140 379 1150 q 421 1123 403 1135 q 460 1111 439 1111 q 492 1131 481 1111 q 507 1182 504 1150 l 585 1176 q 550 1068 579 1108 q 460 1028 521 1028 q 400 1042 424 1028 q 365 1063 376 1056 q 329 1087 344 1078 q 296 1096 314 1096 q 265 1078 275 1096 q 249 1026 254 1060 z "},"ǎ":{"ha":749,"x_min":86,"x_max":644,"o":"m 304 -12 q 194 17 243 -12 q 115 94 144 46 q 86 201 86 143 q 126 321 86 274 q 243 390 167 368 q 426 413 319 413 l 525 413 l 525 315 l 447 315 q 349 310 390 315 q 280 292 307 304 q 240 258 253 281 q 226 203 226 236 q 261 124 226 150 q 344 99 296 99 q 421 122 383 99 q 482 186 458 146 q 506 275 506 226 l 506 469 q 467 562 506 535 q 356 589 429 589 q 258 576 310 589 q 153 526 207 563 l 108 631 q 197 673 153 657 q 289 697 242 689 q 386 706 336 706 q 521 678 463 706 q 612 597 579 651 q 644 456 644 542 l 644 0 l 525 0 l 525 142 l 517 142 q 466 64 496 100 q 397 8 436 28 q 304 -12 357 -12 m 311 778 l 181 1036 l 290 1036 l 378 867 l 467 1036 l 575 1036 l 444 778 l 311 778 z "},"â":{"ha":749,"x_min":86,"x_max":644,"o":"m 304 -12 q 194 17 243 -12 q 115 94 144 46 q 86 201 86 143 q 126 321 86 274 q 243 390 167 368 q 426 413 319 413 l 525 413 l 525 315 l 447 315 q 349 310 390 315 q 280 292 307 304 q 240 258 253 281 q 226 203 226 236 q 261 124 226 150 q 344 99 296 99 q 421 122 383 99 q 482 186 458 146 q 506 275 506 226 l 506 469 q 467 562 506 535 q 356 589 429 589 q 258 576 310 589 q 153 526 207 563 l 108 631 q 197 673 153 657 q 289 697 242 689 q 386 706 336 706 q 521 678 463 706 q 612 597 579 651 q 644 456 644 542 l 644 0 l 525 0 l 525 142 l 517 142 q 466 64 496 100 q 397 8 436 28 q 304 -12 357 -12 m 181 785 l 311 1036 l 444 1036 l 575 785 l 467 785 l 378 947 l 290 785 l 181 785 z "},"ấ":{"ha":749,"x_min":86,"x_max":710,"o":"m 304 -12 q 194 17 243 -12 q 115 94 144 46 q 86 201 86 143 q 126 321 86 274 q 243 390 167 368 q 426 413 319 413 l 525 413 l 525 315 l 447 315 q 349 310 390 315 q 280 292 307 304 q 240 258 253 281 q 226 203 226 236 q 261 124 226 150 q 344 99 296 99 q 421 122 383 99 q 482 186 458 146 q 506 275 506 226 l 506 469 q 467 562 506 535 q 356 589 429 589 q 258 576 310 589 q 153 526 207 563 l 108 631 q 197 673 153 657 q 289 697 242 689 q 386 706 336 706 q 521 678 463 706 q 612 597 579 651 q 644 456 644 542 l 644 0 l 525 0 l 525 142 l 517 142 q 466 64 496 100 q 397 8 436 28 q 304 -12 357 -12 m 182 789 l 314 1013 l 446 1013 l 578 789 l 471 789 l 379 929 l 288 789 l 182 789 m 508 957 l 589 1168 l 710 1168 l 596 957 l 508 957 z "},"ậ":{"ha":749,"x_min":86,"x_max":644,"o":"m 304 -12 q 194 17 243 -12 q 115 94 144 46 q 86 201 86 143 q 126 321 86 274 q 243 390 167 368 q 426 413 319 413 l 525 413 l 525 315 l 447 315 q 349 310 390 315 q 280 292 307 304 q 240 258 253 281 q 226 203 226 236 q 261 124 226 150 q 344 99 296 99 q 421 122 383 99 q 482 186 458 146 q 506 275 506 226 l 506 469 q 467 562 506 535 q 356 589 429 589 q 258 576 310 589 q 153 526 207 563 l 108 631 q 197 673 153 657 q 289 697 242 689 q 386 706 336 706 q 521 678 463 706 q 612 597 579 651 q 644 456 644 542 l 644 0 l 525 0 l 525 142 l 517 142 q 466 64 496 100 q 397 8 436 28 q 304 -12 357 -12 m 257 -275 l 257 -129 l 407 -129 l 407 -275 l 257 -275 m 181 785 l 311 1036 l 444 1036 l 575 785 l 467 785 l 378 947 l 290 785 l 181 785 z "},"ầ":{"ha":749,"x_min":86,"x_max":644,"o":"m 304 -12 q 194 17 243 -12 q 115 94 144 46 q 86 201 86 143 q 126 321 86 274 q 243 390 167 368 q 426 413 319 413 l 525 413 l 525 315 l 447 315 q 349 310 390 315 q 280 292 307 304 q 240 258 253 281 q 226 203 226 236 q 261 124 226 150 q 344 99 296 99 q 421 122 383 99 q 482 186 458 146 q 506 275 506 226 l 506 469 q 467 562 506 535 q 356 589 429 589 q 258 576 310 589 q 153 526 207 563 l 108 631 q 197 673 153 657 q 289 697 242 689 q 386 706 336 706 q 521 678 463 706 q 612 597 579 651 q 644 456 644 542 l 644 0 l 525 0 l 525 142 l 517 142 q 466 64 496 100 q 397 8 436 28 q 304 -12 357 -12 m 182 789 l 314 1013 l 446 1013 l 578 789 l 471 789 l 379 929 l 288 789 l 182 789 m 551 957 l 439 1168 l 560 1168 l 639 957 l 551 957 z "},"ẩ":{"ha":749,"x_min":86,"x_max":669,"o":"m 304 -12 q 194 17 243 -12 q 115 94 144 46 q 86 201 86 143 q 126 321 86 274 q 243 390 167 368 q 426 413 319 413 l 525 413 l 525 315 l 447 315 q 349 310 390 315 q 280 292 307 304 q 240 258 253 281 q 226 203 226 236 q 261 124 226 150 q 344 99 296 99 q 421 122 383 99 q 482 186 458 146 q 506 275 506 226 l 506 469 q 467 562 506 535 q 356 589 429 589 q 258 576 310 589 q 153 526 207 563 l 108 631 q 197 673 153 657 q 289 697 242 689 q 386 706 336 706 q 521 678 463 706 q 612 597 579 651 q 644 456 644 542 l 644 0 l 525 0 l 525 142 l 517 142 q 466 64 496 100 q 397 8 436 28 q 304 -12 357 -12 m 182 794 l 314 1018 l 446 1018 l 578 794 l 471 794 l 379 935 l 288 794 l 182 794 m 507 965 q 515 1003 507 988 q 535 1033 524 1019 q 556 1058 547 1046 q 564 1083 564 1071 q 551 1106 564 1099 q 517 1114 539 1114 q 486 1108 503 1114 q 457 1094 469 1103 l 438 1157 q 488 1179 458 1171 q 557 1188 518 1188 q 640 1167 610 1188 q 669 1110 669 1146 q 658 1065 669 1083 q 632 1033 647 1047 q 605 1003 617 1019 q 593 965 593 988 l 507 965 z "},"ẫ":{"ha":749,"x_min":86,"x_max":644,"o":"m 304 -12 q 194 17 243 -12 q 115 94 144 46 q 86 201 86 143 q 126 321 86 274 q 243 390 167 368 q 426 413 319 413 l 525 413 l 525 315 l 447 315 q 349 310 390 315 q 280 292 307 304 q 240 258 253 281 q 226 203 226 236 q 261 124 226 150 q 344 99 296 99 q 421 122 383 99 q 482 186 458 146 q 506 275 506 226 l 506 469 q 467 562 506 535 q 356 589 429 589 q 258 576 310 589 q 153 526 207 563 l 108 631 q 197 673 153 657 q 289 697 242 689 q 386 706 336 706 q 521 678 463 706 q 612 597 579 651 q 644 456 644 542 l 644 0 l 525 0 l 525 142 l 517 142 q 466 64 496 100 q 397 8 436 28 q 304 -12 357 -12 m 179 789 l 313 988 l 444 988 l 576 789 l 468 789 l 378 911 l 288 789 l 179 789 m 249 1032 l 172 1038 q 187 1116 175 1083 q 225 1168 199 1149 q 293 1188 251 1188 q 354 1172 329 1188 q 394 1147 379 1157 q 421 1130 403 1142 q 460 1118 439 1118 q 492 1136 481 1118 q 507 1189 504 1154 l 585 1182 q 551 1074 579 1115 q 460 1033 522 1033 q 400 1048 424 1033 q 365 1069 376 1063 q 329 1092 344 1083 q 296 1101 314 1101 q 266 1085 278 1101 q 249 1032 254 1068 z "},"ȁ":{"ha":749,"x_min":86,"x_max":644,"o":"m 304 -12 q 194 17 243 -12 q 115 94 144 46 q 86 201 86 143 q 126 321 86 274 q 243 390 167 368 q 426 413 319 413 l 525 413 l 525 315 l 447 315 q 349 310 390 315 q 280 292 307 304 q 240 258 253 281 q 226 203 226 236 q 261 124 226 150 q 344 99 296 99 q 421 122 383 99 q 482 186 458 146 q 506 275 506 226 l 506 469 q 467 562 506 535 q 356 589 429 589 q 258 576 310 589 q 153 526 207 563 l 108 631 q 197 673 153 657 q 289 697 242 689 q 386 706 336 706 q 521 678 463 706 q 612 597 579 651 q 644 456 644 542 l 644 0 l 525 0 l 525 142 l 517 142 q 466 64 496 100 q 397 8 436 28 q 304 -12 357 -12 m 426 778 l 326 1036 l 458 1036 l 511 778 l 426 778 m 251 778 l 150 1036 l 279 1036 l 333 778 l 251 778 z "},"ä":{"ha":749,"x_min":86,"x_max":644,"o":"m 304 -12 q 194 17 243 -12 q 115 94 144 46 q 86 201 86 143 q 126 321 86 274 q 243 390 167 368 q 426 413 319 413 l 525 413 l 525 315 l 447 315 q 349 310 390 315 q 280 292 307 304 q 240 258 253 281 q 226 203 226 236 q 261 124 226 150 q 344 99 296 99 q 421 122 383 99 q 482 186 458 146 q 506 275 506 226 l 506 469 q 467 562 506 535 q 356 589 429 589 q 258 576 310 589 q 153 526 207 563 l 108 631 q 197 673 153 657 q 289 697 242 689 q 386 706 336 706 q 521 678 463 706 q 612 597 579 651 q 644 456 644 542 l 644 0 l 525 0 l 525 142 l 517 142 q 466 64 496 100 q 397 8 436 28 q 304 -12 357 -12 m 428 847 l 428 994 l 575 994 l 575 847 l 428 847 m 181 847 l 181 994 l 328 994 l 328 847 l 181 847 z "},"ȧ":{"ha":749,"x_min":86,"x_max":644,"o":"m 304 -12 q 194 17 243 -12 q 115 94 144 46 q 86 201 86 143 q 126 321 86 274 q 243 390 167 368 q 426 413 319 413 l 525 413 l 525 315 l 447 315 q 349 310 390 315 q 280 292 307 304 q 240 258 253 281 q 226 203 226 236 q 261 124 226 150 q 344 99 296 99 q 421 122 383 99 q 482 186 458 146 q 506 275 506 226 l 506 469 q 467 562 506 535 q 356 589 429 589 q 258 576 310 589 q 153 526 207 563 l 108 631 q 197 673 153 657 q 289 697 242 689 q 386 706 336 706 q 521 678 463 706 q 612 597 579 651 q 644 456 644 542 l 644 0 l 525 0 l 525 142 l 517 142 q 466 64 496 100 q 397 8 436 28 q 304 -12 357 -12 m 303 853 l 303 999 l 453 999 l 453 853 l 303 853 z "},"ạ":{"ha":749,"x_min":86,"x_max":644,"o":"m 304 -12 q 194 17 243 -12 q 115 94 144 46 q 86 201 86 143 q 126 321 86 274 q 243 390 167 368 q 426 413 319 413 l 525 413 l 525 315 l 447 315 q 349 310 390 315 q 280 292 307 304 q 240 258 253 281 q 226 203 226 236 q 261 124 226 150 q 344 99 296 99 q 421 122 383 99 q 482 186 458 146 q 506 275 506 226 l 506 469 q 467 562 506 535 q 356 589 429 589 q 258 576 310 589 q 153 526 207 563 l 108 631 q 197 673 153 657 q 289 697 242 689 q 386 706 336 706 q 521 678 463 706 q 612 597 579 651 q 644 456 644 542 l 644 0 l 525 0 l 525 142 l 517 142 q 466 64 496 100 q 397 8 436 28 q 304 -12 357 -12 m 257 -275 l 257 -129 l 407 -129 l 407 -275 l 257 -275 z "},"à":{"ha":749,"x_min":86,"x_max":644,"o":"m 304 -12 q 194 17 243 -12 q 115 94 144 46 q 86 201 86 143 q 126 321 86 274 q 243 390 167 368 q 426 413 319 413 l 525 413 l 525 315 l 447 315 q 349 310 390 315 q 280 292 307 304 q 240 258 253 281 q 226 203 226 236 q 261 124 226 150 q 344 99 296 99 q 421 122 383 99 q 482 186 458 146 q 506 275 506 226 l 506 469 q 467 562 506 535 q 356 589 429 589 q 258 576 310 589 q 153 526 207 563 l 108 631 q 197 673 153 657 q 289 697 242 689 q 386 706 336 706 q 521 678 463 706 q 612 597 579 651 q 644 456 644 542 l 644 0 l 525 0 l 525 142 l 517 142 q 466 64 496 100 q 397 8 436 28 q 304 -12 357 -12 m 329 783 l 167 1036 l 324 1036 l 440 783 l 329 783 z "},"ả":{"ha":749,"x_min":86,"x_max":644,"o":"m 304 -12 q 194 17 243 -12 q 115 94 144 46 q 86 201 86 143 q 126 321 86 274 q 243 390 167 368 q 426 413 319 413 l 525 413 l 525 315 l 447 315 q 349 310 390 315 q 280 292 307 304 q 240 258 253 281 q 226 203 226 236 q 261 124 226 150 q 344 99 296 99 q 421 122 383 99 q 482 186 458 146 q 506 275 506 226 l 506 469 q 467 562 506 535 q 356 589 429 589 q 258 576 310 589 q 153 526 207 563 l 108 631 q 197 673 153 657 q 289 697 242 689 q 386 706 336 706 q 521 678 463 706 q 612 597 579 651 q 644 456 644 542 l 644 0 l 525 0 l 525 142 l 517 142 q 466 64 496 100 q 397 8 436 28 q 304 -12 357 -12 m 325 783 l 325 814 q 335 863 325 843 q 358 897 346 882 q 381 926 371 911 q 392 963 392 942 q 380 992 392 982 q 343 1003 368 1003 q 308 998 326 1003 q 271 983 289 993 l 246 1056 q 308 1078 274 1071 q 381 1086 342 1086 q 485 1060 450 1086 q 521 982 521 1033 q 507 926 521 949 q 475 887 493 903 q 443 853 457 871 q 429 806 429 835 l 429 783 l 325 783 z "},"ȃ":{"ha":749,"x_min":86,"x_max":644,"o":"m 304 -12 q 194 17 243 -12 q 115 94 144 46 q 86 201 86 143 q 126 321 86 274 q 243 390 167 368 q 426 413 319 413 l 525 413 l 525 315 l 447 315 q 349 310 390 315 q 280 292 307 304 q 240 258 253 281 q 226 203 226 236 q 261 124 226 150 q 344 99 296 99 q 421 122 383 99 q 482 186 458 146 q 506 275 506 226 l 506 469 q 467 562 506 535 q 356 589 429 589 q 258 576 310 589 q 153 526 207 563 l 108 631 q 197 673 153 657 q 289 697 242 689 q 386 706 336 706 q 521 678 463 706 q 612 597 579 651 q 644 456 644 542 l 644 0 l 525 0 l 525 142 l 517 142 q 466 64 496 100 q 397 8 436 28 q 304 -12 357 -12 m 276 775 l 182 783 q 205 924 185 865 q 267 1012 225 982 q 378 1042 310 1042 q 488 1012 446 1042 q 551 924 531 982 q 574 783 572 865 l 479 775 q 454 899 475 858 q 378 939 433 939 q 301 899 322 939 q 276 775 281 858 z "},"ā":{"ha":749,"x_min":86,"x_max":644,"o":"m 304 -12 q 194 17 243 -12 q 115 94 144 46 q 86 201 86 143 q 126 321 86 274 q 243 390 167 368 q 426 413 319 413 l 525 413 l 525 315 l 447 315 q 349 310 390 315 q 280 292 307 304 q 240 258 253 281 q 226 203 226 236 q 261 124 226 150 q 344 99 296 99 q 421 122 383 99 q 482 186 458 146 q 506 275 506 226 l 506 469 q 467 562 506 535 q 356 589 429 589 q 258 576 310 589 q 153 526 207 563 l 108 631 q 197 673 153 657 q 289 697 242 689 q 386 706 336 706 q 521 678 463 706 q 612 597 579 651 q 644 456 644 542 l 644 0 l 525 0 l 525 142 l 517 142 q 466 64 496 100 q 397 8 436 28 q 304 -12 357 -12 m 181 867 l 181 978 l 575 978 l 575 867 l 181 867 z "},"ą":{"ha":749,"x_min":86,"x_max":689,"o":"m 304 -12 q 194 17 243 -12 q 115 94 144 46 q 86 201 86 143 q 126 321 86 274 q 243 390 167 368 q 426 413 319 413 l 525 413 l 525 315 l 447 315 q 349 310 390 315 q 280 292 307 304 q 240 258 253 281 q 226 203 226 236 q 261 124 226 150 q 344 99 296 99 q 421 122 383 99 q 482 186 458 146 q 506 275 506 226 l 506 469 q 467 562 506 535 q 356 589 429 589 q 258 576 310 589 q 153 526 207 563 l 108 631 q 197 673 153 657 q 289 697 242 689 q 386 706 336 706 q 521 678 463 706 q 612 597 579 651 q 644 456 644 542 l 644 0 l 525 0 l 525 142 l 517 142 q 466 64 496 100 q 397 8 436 28 q 304 -12 357 -12 m 590 -278 q 486 -244 525 -278 q 447 -149 447 -210 q 481 -42 447 -93 q 569 47 514 10 l 618 0 q 582 -33 597 -14 q 559 -75 567 -53 q 551 -121 551 -97 q 567 -170 551 -154 q 610 -186 582 -186 q 636 -183 621 -186 q 667 -172 651 -179 l 689 -256 q 640 -273 664 -268 q 590 -278 617 -278 z "},"å":{"ha":749,"x_min":86,"x_max":644,"o":"m 304 -12 q 194 17 243 -12 q 115 94 144 46 q 86 201 86 143 q 126 321 86 274 q 243 390 167 368 q 426 413 319 413 l 525 413 l 525 315 l 447 315 q 349 310 390 315 q 280 292 307 304 q 240 258 253 281 q 226 203 226 236 q 261 124 226 150 q 344 99 296 99 q 421 122 383 99 q 482 186 458 146 q 506 275 506 226 l 506 469 q 467 562 506 535 q 356 589 429 589 q 258 576 310 589 q 153 526 207 563 l 108 631 q 197 673 153 657 q 289 697 242 689 q 386 706 336 706 q 521 678 463 706 q 612 597 579 651 q 644 456 644 542 l 644 0 l 525 0 l 525 142 l 517 142 q 466 64 496 100 q 397 8 436 28 q 304 -12 357 -12 m 378 778 q 291 800 329 778 q 229 861 253 822 q 206 947 206 900 q 228 1034 206 996 q 290 1095 251 1072 q 378 1118 328 1118 q 465 1095 426 1118 q 527 1034 504 1072 q 550 947 550 996 q 527 861 550 900 q 465 800 504 822 q 378 778 426 778 m 378 846 q 445 875 418 846 q 472 947 472 904 q 445 1022 472 993 q 376 1050 418 1050 q 310 1022 338 1050 q 283 949 283 993 q 310 874 283 903 q 378 846 338 846 z "},"ǻ":{"ha":749,"x_min":86,"x_max":654,"o":"m 304 -12 q 194 17 243 -12 q 115 94 144 46 q 86 201 86 143 q 126 321 86 274 q 243 390 167 368 q 426 413 319 413 l 525 413 l 525 315 l 447 315 q 349 310 390 315 q 280 292 307 304 q 240 258 253 281 q 226 203 226 236 q 261 124 226 150 q 344 99 296 99 q 421 122 383 99 q 482 186 458 146 q 506 275 506 226 l 506 469 q 467 562 506 535 q 356 589 429 589 q 258 576 310 589 q 153 526 207 563 l 108 631 q 197 673 153 657 q 289 697 242 689 q 386 706 336 706 q 521 678 463 706 q 612 597 579 651 q 644 456 644 542 l 644 0 l 525 0 l 525 142 l 517 142 q 466 64 496 100 q 397 8 436 28 q 304 -12 357 -12 m 378 769 q 288 792 328 769 q 225 855 249 815 q 201 943 201 894 q 225 1033 201 993 q 288 1095 249 1072 q 378 1118 328 1118 q 425 1111 403 1118 q 468 1094 447 1104 l 521 1172 l 654 1172 l 526 1038 q 547 994 539 1018 q 554 943 554 971 q 531 855 554 894 q 469 792 508 815 q 378 769 429 769 m 378 843 q 445 872 418 843 q 472 943 472 900 q 445 1018 472 990 q 378 1046 418 1046 q 310 1018 338 1046 q 283 944 283 990 q 310 872 283 900 q 378 843 338 843 z "},"ã":{"ha":749,"x_min":86,"x_max":644,"o":"m 304 -12 q 194 17 243 -12 q 115 94 144 46 q 86 201 86 143 q 126 321 86 274 q 243 390 167 368 q 426 413 319 413 l 525 413 l 525 315 l 447 315 q 349 310 390 315 q 280 292 307 304 q 240 258 253 281 q 226 203 226 236 q 261 124 226 150 q 344 99 296 99 q 421 122 383 99 q 482 186 458 146 q 506 275 506 226 l 506 469 q 467 562 506 535 q 356 589 429 589 q 258 576 310 589 q 153 526 207 563 l 108 631 q 197 673 153 657 q 289 697 242 689 q 386 706 336 706 q 521 678 463 706 q 612 597 579 651 q 644 456 644 542 l 644 0 l 525 0 l 525 142 l 517 142 q 466 64 496 100 q 397 8 436 28 q 304 -12 357 -12 m 235 819 l 156 825 q 188 956 156 906 q 279 1007 219 1007 q 350 988 321 1007 q 397 958 379 969 q 430 937 410 951 q 472 922 450 922 q 508 945 497 922 q 519 1011 518 968 l 600 1006 q 569 872 601 922 q 476 822 538 822 q 404 842 433 822 q 358 872 375 861 q 326 894 346 881 q 285 908 307 908 q 249 886 260 908 q 235 819 238 864 z "},"æ":{"ha":1149,"x_min":86,"x_max":1074,"o":"m 303 -12 q 194 16 244 -12 q 115 94 144 44 q 86 206 86 143 q 130 326 86 281 q 247 392 174 371 q 410 413 321 413 l 538 413 l 538 317 l 432 317 q 323 307 369 317 q 251 273 276 297 q 226 204 226 249 q 261 125 226 151 q 336 99 296 99 q 420 124 382 99 q 481 188 458 149 q 504 268 504 226 l 504 479 q 467 560 504 531 q 353 589 429 589 q 251 573 301 589 q 153 526 200 557 l 108 631 q 194 672 150 656 q 284 697 238 688 q 378 706 331 706 q 516 665 467 706 q 583 554 565 625 l 593 554 q 676 668 622 631 q 804 706 729 706 q 951 665 890 706 q 1042 547 1011 625 q 1074 358 1074 469 l 1074 303 l 604 303 l 604 401 l 976 401 l 951 371 q 935 497 951 446 q 887 572 919 547 q 806 596 854 596 q 680 537 722 596 q 638 361 638 478 l 638 319 q 686 158 638 213 q 835 104 735 104 q 934 117 892 104 q 1014 158 976 131 l 1060 60 q 950 4 1008 21 q 824 -12 892 -12 q 704 8 754 -12 q 620 67 654 28 q 565 163 586 107 l 557 163 q 501 72 538 113 q 416 10 465 32 q 303 -12 367 -12 z "},"ǽ":{"ha":1149,"x_min":86,"x_max":1074,"o":"m 303 -12 q 194 16 244 -12 q 115 94 144 44 q 86 206 86 143 q 130 326 86 281 q 247 392 174 371 q 410 413 321 413 l 538 413 l 538 317 l 432 317 q 323 307 369 317 q 251 273 276 297 q 226 204 226 249 q 261 125 226 151 q 336 99 296 99 q 420 124 382 99 q 481 188 458 149 q 504 268 504 226 l 504 479 q 467 560 504 531 q 353 589 429 589 q 251 573 301 589 q 153 526 200 557 l 108 631 q 194 672 150 656 q 284 697 238 688 q 378 706 331 706 q 516 665 467 706 q 583 554 565 625 l 593 554 q 676 668 622 631 q 804 706 729 706 q 951 665 890 706 q 1042 547 1011 625 q 1074 358 1074 469 l 1074 303 l 604 303 l 604 401 l 976 401 l 951 371 q 935 497 951 446 q 887 572 919 547 q 806 596 854 596 q 680 537 722 596 q 638 361 638 478 l 638 319 q 686 158 638 213 q 835 104 735 104 q 934 117 892 104 q 1014 158 976 131 l 1060 60 q 950 4 1008 21 q 824 -12 892 -12 q 704 8 754 -12 q 620 67 654 28 q 565 163 586 107 l 557 163 q 501 72 538 113 q 416 10 465 32 q 303 -12 367 -12 m 531 778 l 647 1036 l 804 1036 l 642 778 l 531 778 z "},"b":{"ha":781,"x_min":106,"x_max":706,"o":"m 443 -12 q 320 24 371 -12 q 239 142 269 61 l 233 142 l 233 0 l 106 0 l 106 979 l 249 979 l 249 560 l 253 560 q 328 669 281 632 q 446 706 375 706 q 587 660 529 706 q 675 535 644 615 q 706 346 706 454 q 675 157 706 238 q 586 32 644 76 q 443 -12 528 -12 m 406 103 q 525 165 486 103 q 564 346 564 228 q 524 528 564 465 q 404 590 485 590 q 286 528 325 590 q 247 346 247 465 q 286 165 247 228 q 406 103 325 103 z "},"ɓ":{"ha":781,"x_min":106,"x_max":706,"o":"m 443 -12 q 320 24 371 -12 q 239 142 269 61 l 233 142 l 233 0 l 106 0 l 106 769 q 128 890 106 840 q 199 965 151 939 q 317 992 246 992 q 374 988 346 992 q 414 978 401 985 l 401 868 q 374 875 394 872 q 336 878 353 878 q 270 851 292 878 q 249 765 249 824 l 247 560 l 253 560 q 328 669 282 632 q 444 706 374 706 q 585 660 528 706 q 674 535 643 615 q 706 346 706 454 q 675 157 706 238 q 586 32 644 76 q 443 -12 528 -12 m 406 103 q 524 165 485 103 q 564 346 564 228 q 524 528 564 465 q 404 590 485 590 q 285 528 324 590 q 246 346 246 465 q 285 165 246 228 q 406 103 324 103 z "},"c":{"ha":619,"x_min":75,"x_max":588,"o":"m 375 -12 q 215 29 282 -12 q 111 150 147 71 q 75 343 75 229 q 112 538 75 457 q 216 663 149 619 q 375 706 283 706 q 496 685 442 706 q 588 629 550 664 l 540 521 q 473 565 510 549 q 392 582 436 582 q 263 524 308 582 q 218 342 218 465 q 264 165 218 221 q 390 110 310 110 q 472 126 436 110 q 535 167 508 143 l 585 61 q 496 7 549 26 q 375 -12 443 -12 z "},"ć":{"ha":619,"x_min":75,"x_max":588,"o":"m 375 -12 q 215 29 282 -12 q 111 150 147 71 q 75 343 75 229 q 112 538 75 457 q 216 663 149 619 q 375 706 283 706 q 496 685 442 706 q 588 629 550 664 l 540 521 q 473 565 510 549 q 392 582 436 582 q 263 524 308 582 q 218 342 218 465 q 264 165 218 221 q 390 110 310 110 q 472 126 436 110 q 535 167 508 143 l 585 61 q 496 7 549 26 q 375 -12 443 -12 m 300 778 l 417 1036 l 574 1036 l 411 778 l 300 778 z "},"č":{"ha":619,"x_min":75,"x_max":588,"o":"m 375 -12 q 215 29 282 -12 q 111 150 147 71 q 75 343 75 229 q 112 538 75 457 q 216 663 149 619 q 375 706 283 706 q 496 685 442 706 q 588 629 550 664 l 540 521 q 473 565 510 549 q 392 582 436 582 q 263 524 308 582 q 218 342 218 465 q 264 165 218 221 q 390 110 310 110 q 472 126 436 110 q 535 167 508 143 l 585 61 q 496 7 549 26 q 375 -12 443 -12 m 296 778 l 165 1036 l 275 1036 l 363 867 l 451 1036 l 560 1036 l 429 778 l 296 778 z "},"ç":{"ha":619,"x_min":75,"x_max":588,"o":"m 375 -12 q 215 29 282 -12 q 111 150 147 71 q 75 343 75 229 q 112 538 75 457 q 216 663 149 619 q 375 706 283 706 q 496 685 442 706 q 588 629 550 664 l 540 521 q 473 565 510 549 q 392 582 436 582 q 263 524 308 582 q 218 342 218 465 q 264 165 218 221 q 390 110 310 110 q 472 126 436 110 q 535 167 508 143 l 585 61 q 496 7 549 26 q 375 -12 443 -12 m 375 -278 q 308 -271 344 -278 q 249 -250 272 -264 l 272 -181 q 317 -198 292 -190 q 371 -206 342 -206 q 420 -194 404 -206 q 436 -158 436 -183 q 422 -127 436 -137 q 386 -117 407 -117 q 359 -119 375 -117 q 331 -126 343 -122 l 307 -104 l 328 28 l 401 28 l 385 -83 l 351 -68 q 383 -58 361 -61 q 426 -56 404 -56 q 478 -67 454 -56 q 517 -101 501 -78 q 532 -158 532 -124 q 513 -225 532 -199 q 458 -265 493 -251 q 375 -278 422 -278 z "},"ḉ":{"ha":619,"x_min":75,"x_max":588,"o":"m 375 -12 q 215 29 282 -12 q 111 150 147 71 q 75 343 75 229 q 112 538 75 457 q 216 663 149 619 q 375 706 283 706 q 496 685 442 706 q 588 629 550 664 l 540 521 q 473 565 510 549 q 392 582 436 582 q 263 524 308 582 q 218 342 218 465 q 264 165 218 221 q 390 110 310 110 q 472 126 436 110 q 535 167 508 143 l 585 61 q 496 7 549 26 q 375 -12 443 -12 m 375 -278 q 308 -271 344 -278 q 249 -250 272 -264 l 272 -181 q 317 -198 292 -190 q 371 -206 342 -206 q 420 -194 404 -206 q 436 -158 436 -183 q 422 -127 436 -137 q 386 -117 407 -117 q 359 -119 375 -117 q 331 -126 343 -122 l 307 -104 l 328 28 l 401 28 l 385 -83 l 351 -68 q 383 -58 361 -61 q 426 -56 404 -56 q 478 -67 454 -56 q 517 -101 501 -78 q 532 -158 532 -124 q 513 -225 532 -199 q 458 -265 493 -251 q 375 -278 422 -278 m 300 778 l 417 1036 l 574 1036 l 411 778 l 300 778 z "},"ĉ":{"ha":619,"x_min":75,"x_max":588,"o":"m 375 -12 q 215 29 282 -12 q 111 150 147 71 q 75 343 75 229 q 112 538 75 457 q 216 663 149 619 q 375 706 283 706 q 496 685 442 706 q 588 629 550 664 l 540 521 q 473 565 510 549 q 392 582 436 582 q 263 524 308 582 q 218 342 218 465 q 264 165 218 221 q 390 110 310 110 q 472 126 436 110 q 535 167 508 143 l 585 61 q 496 7 549 26 q 375 -12 443 -12 m 165 785 l 296 1036 l 429 1036 l 560 785 l 451 785 l 363 947 l 275 785 l 165 785 z "},"ċ":{"ha":619,"x_min":75,"x_max":588,"o":"m 375 -12 q 215 29 282 -12 q 111 150 147 71 q 75 343 75 229 q 112 538 75 457 q 216 663 149 619 q 375 706 283 706 q 496 685 442 706 q 588 629 550 664 l 540 521 q 473 565 510 549 q 392 582 436 582 q 263 524 308 582 q 218 342 218 465 q 264 165 218 221 q 390 110 310 110 q 472 126 436 110 q 535 167 508 143 l 585 61 q 496 7 549 26 q 375 -12 443 -12 m 288 853 l 288 999 l 438 999 l 438 853 l 288 853 z "},"d":{"ha":781,"x_min":75,"x_max":674,"o":"m 338 -12 q 194 32 253 -12 q 106 157 136 76 q 75 346 75 238 q 106 535 75 454 q 194 660 136 615 q 335 706 253 706 q 456 669 410 706 q 525 560 501 632 l 532 560 l 532 979 l 674 979 l 674 0 l 547 0 l 547 142 l 540 142 q 462 24 511 61 q 338 -12 413 -12 m 375 103 q 495 167 457 103 q 533 346 533 231 q 495 526 533 463 q 376 590 457 590 q 256 526 294 590 q 217 346 217 463 q 256 167 217 231 q 375 103 294 103 z "},"ð":{"ha":736,"x_min":75,"x_max":676,"o":"m 374 -12 q 213 24 279 -12 q 110 135 146 61 q 75 314 75 208 q 106 492 75 418 q 197 606 138 567 q 339 646 257 646 q 462 604 411 646 q 535 494 513 563 l 538 494 q 491 682 529 603 q 388 817 453 761 l 408 813 l 225 719 l 190 794 l 340 871 l 336 851 q 273 884 310 868 q 194 908 236 900 l 219 993 q 347 960 289 983 q 454 903 404 938 l 418 906 l 590 993 l 625 918 l 501 854 l 499 868 q 596 740 557 814 q 656 574 635 667 q 676 372 676 482 q 641 162 676 247 q 538 32 606 76 q 374 -12 471 -12 m 374 100 q 492 152 453 100 q 531 315 531 204 q 491 480 531 428 q 374 532 451 532 q 258 478 299 532 q 218 315 218 425 q 259 155 218 210 q 374 100 300 100 z "},"ď":{"ha":781,"x_min":75,"x_max":843,"o":"m 338 -12 q 194 32 253 -12 q 106 157 136 76 q 75 346 75 238 q 106 535 75 454 q 194 660 136 615 q 335 706 253 706 q 456 669 410 706 q 525 560 501 632 l 532 560 l 532 979 l 674 979 l 674 0 l 547 0 l 547 142 l 540 142 q 462 24 511 61 q 338 -12 413 -12 m 375 103 q 495 167 457 103 q 533 346 533 231 q 495 526 533 463 q 376 590 457 590 q 256 526 294 590 q 217 346 217 463 q 256 167 217 231 q 375 103 294 103 m 729 708 l 729 979 l 843 979 l 814 708 l 729 708 z "},"đ":{"ha":796,"x_min":75,"x_max":765,"o":"m 338 -12 q 194 31 253 -12 q 106 152 136 74 q 75 335 75 231 q 106 519 75 440 q 194 641 136 597 q 335 685 253 685 q 456 649 410 685 q 526 540 503 614 l 532 540 l 532 767 l 325 767 l 325 858 l 532 858 l 532 979 l 674 979 l 674 861 l 765 861 l 765 767 l 674 767 l 674 0 l 546 0 l 546 143 l 540 143 q 463 26 513 65 q 338 -12 413 -12 m 375 97 q 495 158 457 97 q 533 335 533 219 q 495 510 533 447 q 376 574 457 574 q 287 545 322 574 q 234 463 251 517 q 217 335 217 410 q 256 158 217 219 q 375 97 294 97 z "},"ḍ":{"ha":781,"x_min":75,"x_max":674,"o":"m 338 -12 q 194 32 253 -12 q 106 157 136 76 q 75 346 75 238 q 106 535 75 454 q 194 660 136 615 q 335 706 253 706 q 456 669 410 706 q 525 560 501 632 l 532 560 l 532 979 l 674 979 l 674 0 l 547 0 l 547 142 l 540 142 q 462 24 511 61 q 338 -12 413 -12 m 375 103 q 495 167 457 103 q 533 346 533 231 q 495 526 533 463 q 376 590 457 590 q 256 526 294 590 q 217 346 217 463 q 256 167 217 231 q 375 103 294 103 m 286 -275 l 286 -129 l 436 -129 l 436 -275 l 286 -275 z "},"ɗ":{"ha":781,"x_min":75,"x_max":838,"o":"m 336 -12 q 194 32 253 -12 q 105 157 135 76 q 75 346 75 238 q 106 535 75 454 q 194 660 136 615 q 333 706 253 706 q 454 669 408 706 q 525 560 500 632 l 532 560 l 532 769 q 554 891 532 842 q 623 966 576 940 q 742 992 669 992 q 797 988 769 992 q 838 978 824 983 l 826 868 q 798 875 819 872 q 760 878 776 878 q 694 849 714 878 q 674 765 674 821 l 674 0 l 547 0 l 547 142 l 539 142 q 461 24 510 61 q 336 -12 413 -12 m 375 103 q 494 167 456 103 q 533 346 533 231 q 494 526 533 463 q 375 590 456 590 q 255 526 293 590 q 217 346 217 463 q 255 167 217 231 q 375 103 293 103 z "},"ḏ":{"ha":781,"x_min":75,"x_max":674,"o":"m 338 -12 q 194 32 253 -12 q 106 157 136 76 q 75 346 75 238 q 106 535 75 454 q 194 660 136 615 q 335 706 253 706 q 456 669 410 706 q 525 560 501 632 l 532 560 l 532 979 l 674 979 l 674 0 l 547 0 l 547 142 l 540 142 q 462 24 511 61 q 338 -12 413 -12 m 375 103 q 495 167 457 103 q 533 346 533 231 q 495 526 533 463 q 376 590 457 590 q 256 526 294 590 q 217 346 217 463 q 256 167 217 231 q 375 103 294 103 m 164 -240 l 164 -129 l 558 -129 l 558 -240 l 164 -240 z "},"ǆ":{"ha":1421,"x_min":75,"x_max":1357,"o":"m 338 -12 q 194 32 253 -12 q 106 157 136 76 q 75 346 75 238 q 106 535 75 454 q 194 660 136 615 q 335 706 253 706 q 456 669 410 706 q 525 560 501 632 l 532 560 l 532 979 l 674 979 l 674 0 l 547 0 l 547 142 l 540 142 q 462 24 511 61 q 338 -12 413 -12 m 375 103 q 495 167 457 103 q 533 346 533 231 q 495 526 533 463 q 376 590 457 590 q 256 526 294 590 q 217 346 217 463 q 256 167 217 231 q 375 103 294 103 m 856 0 l 856 92 l 1203 624 l 1210 575 l 865 575 l 865 692 l 1343 692 l 1343 600 l 993 69 l 986 118 l 1357 118 l 1357 0 l 856 0 m 1042 778 l 911 1036 l 1021 1036 l 1108 867 l 1197 1036 l 1306 1036 l 1175 778 l 1042 778 z "},"e":{"ha":721,"x_min":75,"x_max":646,"o":"m 404 -12 q 226 26 300 -12 q 113 144 151 64 q 75 346 75 224 q 108 535 75 454 q 209 660 142 615 q 374 706 276 706 q 524 665 463 706 q 615 547 585 625 q 646 357 646 469 l 646 301 l 186 301 l 186 401 l 546 401 l 524 374 q 485 547 524 499 q 372 596 446 596 q 290 572 326 596 q 233 499 254 549 q 211 365 211 449 l 211 328 q 235 197 211 246 q 303 126 258 149 q 411 103 347 103 q 501 115 454 103 q 586 160 549 126 l 633 60 q 522 3 581 18 q 404 -12 464 -12 z "},"é":{"ha":721,"x_min":75,"x_max":646,"o":"m 404 -12 q 226 26 300 -12 q 113 144 151 64 q 75 346 75 224 q 108 535 75 454 q 209 660 142 615 q 374 706 276 706 q 524 665 463 706 q 615 547 585 625 q 646 357 646 469 l 646 301 l 186 301 l 186 401 l 546 401 l 524 374 q 485 547 524 499 q 372 596 446 596 q 290 572 326 596 q 233 499 254 549 q 211 365 211 449 l 211 328 q 235 197 211 246 q 303 126 258 149 q 411 103 347 103 q 501 115 454 103 q 586 160 549 126 l 633 60 q 522 3 581 18 q 404 -12 464 -12 m 308 778 l 425 1036 l 582 1036 l 419 778 l 308 778 z "},"ĕ":{"ha":721,"x_min":75,"x_max":646,"o":"m 404 -12 q 226 26 300 -12 q 113 144 151 64 q 75 346 75 224 q 108 535 75 454 q 209 660 142 615 q 374 706 276 706 q 524 665 463 706 q 615 547 585 625 q 646 357 646 469 l 646 301 l 186 301 l 186 401 l 546 401 l 524 374 q 485 547 524 499 q 372 596 446 596 q 290 572 326 596 q 233 499 254 549 q 211 365 211 449 l 211 328 q 235 197 211 246 q 303 126 258 149 q 411 103 347 103 q 501 115 454 103 q 586 160 549 126 l 633 60 q 522 3 581 18 q 404 -12 464 -12 m 371 775 q 260 805 303 775 q 198 893 218 835 q 175 1033 178 951 l 269 1042 q 294 917 274 957 q 371 878 315 878 q 447 917 425 878 q 472 1042 468 957 l 567 1033 q 544 893 565 951 q 481 805 524 835 q 371 775 439 775 z "},"ě":{"ha":721,"x_min":75,"x_max":646,"o":"m 404 -12 q 226 26 300 -12 q 113 144 151 64 q 75 346 75 224 q 108 535 75 454 q 209 660 142 615 q 374 706 276 706 q 524 665 463 706 q 615 547 585 625 q 646 357 646 469 l 646 301 l 186 301 l 186 401 l 546 401 l 524 374 q 485 547 524 499 q 372 596 446 596 q 290 572 326 596 q 233 499 254 549 q 211 365 211 449 l 211 328 q 235 197 211 246 q 303 126 258 149 q 411 103 347 103 q 501 115 454 103 q 586 160 549 126 l 633 60 q 522 3 581 18 q 404 -12 464 -12 m 304 778 l 174 1036 l 283 1036 l 371 867 l 460 1036 l 568 1036 l 438 778 l 304 778 z "},"ḝ":{"ha":721,"x_min":75,"x_max":646,"o":"m 404 -12 q 226 26 300 -12 q 113 144 151 64 q 75 346 75 224 q 108 535 75 454 q 209 660 142 615 q 374 706 276 706 q 524 665 463 706 q 615 547 585 625 q 646 357 646 469 l 646 301 l 186 301 l 186 401 l 546 401 l 524 374 q 485 547 524 499 q 372 596 446 596 q 290 572 326 596 q 233 499 254 549 q 211 365 211 449 l 211 328 q 235 197 211 246 q 303 126 258 149 q 411 103 347 103 q 501 115 454 103 q 586 160 549 126 l 633 60 q 522 3 581 18 q 404 -12 464 -12 m 375 -278 q 308 -271 344 -278 q 249 -250 272 -264 l 272 -181 q 317 -198 292 -190 q 371 -206 342 -206 q 420 -194 404 -206 q 436 -158 436 -183 q 422 -127 436 -137 q 386 -117 407 -117 q 359 -119 375 -117 q 331 -126 343 -122 l 307 -104 l 328 28 l 401 28 l 385 -83 l 351 -68 q 383 -58 361 -61 q 426 -56 404 -56 q 478 -67 454 -56 q 517 -101 501 -78 q 532 -158 532 -124 q 513 -225 532 -199 q 458 -265 493 -251 q 375 -278 422 -278 m 371 775 q 260 805 303 775 q 198 893 218 835 q 175 1033 178 951 l 269 1042 q 294 917 274 957 q 371 878 315 878 q 447 917 425 878 q 472 1042 468 957 l 567 1033 q 544 893 565 951 q 481 805 524 835 q 371 775 439 775 z "},"ê":{"ha":721,"x_min":75,"x_max":646,"o":"m 404 -12 q 226 26 300 -12 q 113 144 151 64 q 75 346 75 224 q 108 535 75 454 q 209 660 142 615 q 374 706 276 706 q 524 665 463 706 q 615 547 585 625 q 646 357 646 469 l 646 301 l 186 301 l 186 401 l 546 401 l 524 374 q 485 547 524 499 q 372 596 446 596 q 290 572 326 596 q 233 499 254 549 q 211 365 211 449 l 211 328 q 235 197 211 246 q 303 126 258 149 q 411 103 347 103 q 501 115 454 103 q 586 160 549 126 l 633 60 q 522 3 581 18 q 404 -12 464 -12 m 174 785 l 304 1036 l 438 1036 l 568 785 l 460 785 l 371 947 l 283 785 l 174 785 z "},"ế":{"ha":721,"x_min":75,"x_max":703,"o":"m 404 -12 q 226 26 300 -12 q 113 144 151 64 q 75 346 75 224 q 108 535 75 454 q 209 660 142 615 q 374 706 276 706 q 524 665 463 706 q 615 547 585 625 q 646 357 646 469 l 646 301 l 186 301 l 186 401 l 546 401 l 524 374 q 485 547 524 499 q 372 596 446 596 q 290 572 326 596 q 233 499 254 549 q 211 365 211 449 l 211 328 q 235 197 211 246 q 303 126 258 149 q 411 103 347 103 q 501 115 454 103 q 586 160 549 126 l 633 60 q 522 3 581 18 q 404 -12 464 -12 m 175 789 l 307 1013 l 439 1013 l 571 789 l 464 789 l 372 929 l 281 789 l 175 789 m 501 957 l 582 1168 l 703 1168 l 589 957 l 501 957 z "},"ệ":{"ha":721,"x_min":75,"x_max":646,"o":"m 404 -12 q 226 26 300 -12 q 113 144 151 64 q 75 346 75 224 q 108 535 75 454 q 209 660 142 615 q 374 706 276 706 q 524 665 463 706 q 615 547 585 625 q 646 357 646 469 l 646 301 l 186 301 l 186 401 l 546 401 l 524 374 q 485 547 524 499 q 372 596 446 596 q 290 572 326 596 q 233 499 254 549 q 211 365 211 449 l 211 328 q 235 197 211 246 q 303 126 258 149 q 411 103 347 103 q 501 115 454 103 q 586 160 549 126 l 633 60 q 522 3 581 18 q 404 -12 464 -12 m 292 -275 l 292 -129 l 442 -129 l 442 -275 l 292 -275 m 174 785 l 304 1036 l 438 1036 l 568 785 l 460 785 l 371 947 l 283 785 l 174 785 z "},"ề":{"ha":721,"x_min":75,"x_max":646,"o":"m 404 -12 q 226 26 300 -12 q 113 144 151 64 q 75 346 75 224 q 108 535 75 454 q 209 660 142 615 q 374 706 276 706 q 524 665 463 706 q 615 547 585 625 q 646 357 646 469 l 646 301 l 186 301 l 186 401 l 546 401 l 524 374 q 485 547 524 499 q 372 596 446 596 q 290 572 326 596 q 233 499 254 549 q 211 365 211 449 l 211 328 q 235 197 211 246 q 303 126 258 149 q 411 103 347 103 q 501 115 454 103 q 586 160 549 126 l 633 60 q 522 3 581 18 q 404 -12 464 -12 m 175 789 l 307 1013 l 439 1013 l 571 789 l 464 789 l 372 929 l 281 789 l 175 789 m 544 957 l 432 1168 l 553 1168 l 632 957 l 544 957 z "},"ể":{"ha":721,"x_min":75,"x_max":663,"o":"m 404 -12 q 226 26 300 -12 q 113 144 151 64 q 75 346 75 224 q 108 535 75 454 q 209 660 142 615 q 374 706 276 706 q 524 665 463 706 q 615 547 585 625 q 646 357 646 469 l 646 301 l 186 301 l 186 401 l 546 401 l 524 374 q 485 547 524 499 q 372 596 446 596 q 290 572 326 596 q 233 499 254 549 q 211 365 211 449 l 211 328 q 235 197 211 246 q 303 126 258 149 q 411 103 347 103 q 501 115 454 103 q 586 160 549 126 l 633 60 q 522 3 581 18 q 404 -12 464 -12 m 175 794 l 307 1018 l 439 1018 l 571 794 l 464 794 l 372 935 l 281 794 l 175 794 m 500 965 q 508 1003 500 988 q 528 1033 517 1019 q 549 1058 540 1046 q 557 1083 557 1071 q 544 1106 557 1099 q 510 1114 532 1114 q 479 1108 496 1114 q 450 1094 463 1103 l 431 1157 q 481 1179 451 1171 q 550 1188 511 1188 q 633 1167 603 1188 q 663 1110 663 1146 q 651 1065 663 1083 q 625 1033 640 1047 q 598 1003 610 1019 q 586 965 586 988 l 500 965 z "},"ễ":{"ha":721,"x_min":75,"x_max":646,"o":"m 404 -12 q 226 26 300 -12 q 113 144 151 64 q 75 346 75 224 q 108 535 75 454 q 209 660 142 615 q 374 706 276 706 q 524 665 463 706 q 615 547 585 625 q 646 357 646 469 l 646 301 l 186 301 l 186 401 l 546 401 l 524 374 q 485 547 524 499 q 372 596 446 596 q 290 572 326 596 q 233 499 254 549 q 211 365 211 449 l 211 328 q 235 197 211 246 q 303 126 258 149 q 411 103 347 103 q 501 115 454 103 q 586 160 549 126 l 633 60 q 522 3 581 18 q 404 -12 464 -12 m 172 789 l 306 988 l 438 988 l 569 789 l 461 789 l 371 911 l 281 789 l 172 789 m 242 1032 l 165 1038 q 180 1116 168 1083 q 218 1168 192 1149 q 286 1188 244 1188 q 347 1172 322 1188 q 388 1147 372 1157 q 414 1130 396 1142 q 453 1118 432 1118 q 485 1136 474 1118 q 500 1189 497 1154 l 578 1182 q 544 1074 572 1115 q 453 1033 515 1033 q 393 1048 417 1033 q 358 1069 369 1063 q 322 1092 338 1083 q 289 1101 307 1101 q 259 1085 271 1101 q 242 1032 247 1068 z "},"ȅ":{"ha":721,"x_min":75,"x_max":646,"o":"m 404 -12 q 226 26 300 -12 q 113 144 151 64 q 75 346 75 224 q 108 535 75 454 q 209 660 142 615 q 374 706 276 706 q 524 665 463 706 q 615 547 585 625 q 646 357 646 469 l 646 301 l 186 301 l 186 401 l 546 401 l 524 374 q 485 547 524 499 q 372 596 446 596 q 290 572 326 596 q 233 499 254 549 q 211 365 211 449 l 211 328 q 235 197 211 246 q 303 126 258 149 q 411 103 347 103 q 501 115 454 103 q 586 160 549 126 l 633 60 q 522 3 581 18 q 404 -12 464 -12 m 419 778 l 319 1036 l 451 1036 l 504 778 l 419 778 m 244 778 l 143 1036 l 272 1036 l 326 778 l 244 778 z "},"ë":{"ha":721,"x_min":75,"x_max":646,"o":"m 404 -12 q 226 26 300 -12 q 113 144 151 64 q 75 346 75 224 q 108 535 75 454 q 209 660 142 615 q 374 706 276 706 q 524 665 463 706 q 615 547 585 625 q 646 357 646 469 l 646 301 l 186 301 l 186 401 l 546 401 l 524 374 q 485 547 524 499 q 372 596 446 596 q 290 572 326 596 q 233 499 254 549 q 211 365 211 449 l 211 328 q 235 197 211 246 q 303 126 258 149 q 411 103 347 103 q 501 115 454 103 q 586 160 549 126 l 633 60 q 522 3 581 18 q 404 -12 464 -12 m 421 847 l 421 994 l 568 994 l 568 847 l 421 847 m 174 847 l 174 994 l 321 994 l 321 847 l 174 847 z "},"ė":{"ha":721,"x_min":75,"x_max":646,"o":"m 404 -12 q 226 26 300 -12 q 113 144 151 64 q 75 346 75 224 q 108 535 75 454 q 209 660 142 615 q 374 706 276 706 q 524 665 463 706 q 615 547 585 625 q 646 357 646 469 l 646 301 l 186 301 l 186 401 l 546 401 l 524 374 q 485 547 524 499 q 372 596 446 596 q 290 572 326 596 q 233 499 254 549 q 211 365 211 449 l 211 328 q 235 197 211 246 q 303 126 258 149 q 411 103 347 103 q 501 115 454 103 q 586 160 549 126 l 633 60 q 522 3 581 18 q 404 -12 464 -12 m 296 853 l 296 999 l 446 999 l 446 853 l 296 853 z "},"ẹ":{"ha":721,"x_min":75,"x_max":646,"o":"m 404 -12 q 226 26 300 -12 q 113 144 151 64 q 75 346 75 224 q 108 535 75 454 q 209 660 142 615 q 374 706 276 706 q 524 665 463 706 q 615 547 585 625 q 646 357 646 469 l 646 301 l 186 301 l 186 401 l 546 401 l 524 374 q 485 547 524 499 q 372 596 446 596 q 290 572 326 596 q 233 499 254 549 q 211 365 211 449 l 211 328 q 235 197 211 246 q 303 126 258 149 q 411 103 347 103 q 501 115 454 103 q 586 160 549 126 l 633 60 q 522 3 581 18 q 404 -12 464 -12 m 292 -275 l 292 -129 l 442 -129 l 442 -275 l 292 -275 z "},"è":{"ha":721,"x_min":75,"x_max":646,"o":"m 404 -12 q 226 26 300 -12 q 113 144 151 64 q 75 346 75 224 q 108 535 75 454 q 209 660 142 615 q 374 706 276 706 q 524 665 463 706 q 615 547 585 625 q 646 357 646 469 l 646 301 l 186 301 l 186 401 l 546 401 l 524 374 q 485 547 524 499 q 372 596 446 596 q 290 572 326 596 q 233 499 254 549 q 211 365 211 449 l 211 328 q 235 197 211 246 q 303 126 258 149 q 411 103 347 103 q 501 115 454 103 q 586 160 549 126 l 633 60 q 522 3 581 18 q 404 -12 464 -12 m 322 783 l 160 1036 l 317 1036 l 433 783 l 322 783 z "},"ẻ":{"ha":721,"x_min":75,"x_max":646,"o":"m 404 -12 q 226 26 300 -12 q 113 144 151 64 q 75 346 75 224 q 108 535 75 454 q 209 660 142 615 q 374 706 276 706 q 524 665 463 706 q 615 547 585 625 q 646 357 646 469 l 646 301 l 186 301 l 186 401 l 546 401 l 524 374 q 485 547 524 499 q 372 596 446 596 q 290 572 326 596 q 233 499 254 549 q 211 365 211 449 l 211 328 q 235 197 211 246 q 303 126 258 149 q 411 103 347 103 q 501 115 454 103 q 586 160 549 126 l 633 60 q 522 3 581 18 q 404 -12 464 -12 m 318 783 l 318 814 q 328 863 318 843 q 351 897 339 882 q 374 926 364 911 q 385 963 385 942 q 373 992 385 982 q 336 1003 361 1003 q 301 998 319 1003 q 264 983 282 993 l 239 1056 q 301 1078 267 1071 q 374 1086 335 1086 q 478 1060 443 1086 q 514 982 514 1033 q 500 926 514 949 q 468 887 486 903 q 436 853 450 871 q 422 806 422 835 l 422 783 l 318 783 z "},"ȇ":{"ha":721,"x_min":75,"x_max":646,"o":"m 404 -12 q 226 26 300 -12 q 113 144 151 64 q 75 346 75 224 q 108 535 75 454 q 209 660 142 615 q 374 706 276 706 q 524 665 463 706 q 615 547 585 625 q 646 357 646 469 l 646 301 l 186 301 l 186 401 l 546 401 l 524 374 q 485 547 524 499 q 372 596 446 596 q 290 572 326 596 q 233 499 254 549 q 211 365 211 449 l 211 328 q 235 197 211 246 q 303 126 258 149 q 411 103 347 103 q 501 115 454 103 q 586 160 549 126 l 633 60 q 522 3 581 18 q 404 -12 464 -12 m 269 775 l 175 783 q 198 924 178 865 q 260 1012 218 982 q 371 1042 303 1042 q 481 1012 439 1042 q 544 924 524 982 q 567 783 565 865 l 472 775 q 447 899 468 858 q 371 939 426 939 q 294 899 315 939 q 269 775 274 858 z "},"ē":{"ha":721,"x_min":75,"x_max":646,"o":"m 404 -12 q 226 26 300 -12 q 113 144 151 64 q 75 346 75 224 q 108 535 75 454 q 209 660 142 615 q 374 706 276 706 q 524 665 463 706 q 615 547 585 625 q 646 357 646 469 l 646 301 l 186 301 l 186 401 l 546 401 l 524 374 q 485 547 524 499 q 372 596 446 596 q 290 572 326 596 q 233 499 254 549 q 211 365 211 449 l 211 328 q 235 197 211 246 q 303 126 258 149 q 411 103 347 103 q 501 115 454 103 q 586 160 549 126 l 633 60 q 522 3 581 18 q 404 -12 464 -12 m 174 867 l 174 978 l 568 978 l 568 867 l 174 867 z "},"ḗ":{"ha":721,"x_min":75,"x_max":646,"o":"m 404 -12 q 226 26 300 -12 q 113 144 151 64 q 75 346 75 224 q 108 535 75 454 q 209 660 142 615 q 374 706 276 706 q 524 665 463 706 q 615 547 585 625 q 646 357 646 469 l 646 301 l 186 301 l 186 401 l 546 401 l 524 374 q 485 547 524 499 q 372 596 446 596 q 290 572 326 596 q 233 499 254 549 q 211 365 211 449 l 211 328 q 235 197 211 246 q 303 126 258 149 q 411 103 347 103 q 501 115 454 103 q 586 160 549 126 l 633 60 q 522 3 581 18 q 404 -12 464 -12 m 182 817 l 182 918 l 560 918 l 560 817 l 182 817 m 296 978 l 394 1181 l 549 1181 l 400 978 l 296 978 z "},"ḕ":{"ha":721,"x_min":75,"x_max":646,"o":"m 404 -12 q 226 26 300 -12 q 113 144 151 64 q 75 346 75 224 q 108 535 75 454 q 209 660 142 615 q 374 706 276 706 q 524 665 463 706 q 615 547 585 625 q 646 357 646 469 l 646 301 l 186 301 l 186 401 l 546 401 l 524 374 q 485 547 524 499 q 372 596 446 596 q 290 572 326 596 q 233 499 254 549 q 211 365 211 449 l 211 328 q 235 197 211 246 q 303 126 258 149 q 411 103 347 103 q 501 115 454 103 q 586 160 549 126 l 633 60 q 522 3 581 18 q 404 -12 464 -12 m 182 817 l 182 918 l 560 918 l 560 817 l 182 817 m 342 978 l 193 1181 l 347 1181 l 446 978 l 342 978 z "},"ę":{"ha":721,"x_min":75,"x_max":646,"o":"m 404 -12 q 226 26 300 -12 q 113 144 151 64 q 75 346 75 224 q 108 535 75 454 q 209 660 142 615 q 374 706 276 706 q 524 665 463 706 q 615 547 585 625 q 646 357 646 469 l 646 301 l 186 301 l 186 401 l 546 401 l 524 374 q 485 547 524 499 q 372 596 446 596 q 290 572 326 596 q 233 499 254 549 q 211 365 211 449 l 211 328 q 235 197 211 246 q 303 126 258 149 q 411 103 347 103 q 501 115 454 103 q 586 160 549 126 l 633 60 q 522 3 581 18 q 404 -12 464 -12 m 457 -278 q 353 -244 392 -278 q 314 -149 314 -210 q 347 -42 314 -93 q 436 47 381 10 l 485 0 q 449 -33 464 -14 q 426 -75 433 -53 q 418 -121 418 -97 q 433 -170 418 -154 q 476 -186 449 -186 q 503 -183 488 -186 q 533 -172 518 -179 l 556 -256 q 507 -273 531 -268 q 457 -278 483 -278 z "},"ẽ":{"ha":721,"x_min":75,"x_max":646,"o":"m 404 -12 q 226 26 300 -12 q 113 144 151 64 q 75 346 75 224 q 108 535 75 454 q 209 660 142 615 q 374 706 276 706 q 524 665 463 706 q 615 547 585 625 q 646 357 646 469 l 646 301 l 186 301 l 186 401 l 546 401 l 524 374 q 485 547 524 499 q 372 596 446 596 q 290 572 326 596 q 233 499 254 549 q 211 365 211 449 l 211 328 q 235 197 211 246 q 303 126 258 149 q 411 103 347 103 q 501 115 454 103 q 586 160 549 126 l 633 60 q 522 3 581 18 q 404 -12 464 -12 m 228 819 l 149 825 q 181 956 149 906 q 272 1007 213 1007 q 343 988 314 1007 q 390 958 372 969 q 423 937 403 951 q 465 922 443 922 q 501 945 490 922 q 513 1011 511 968 l 593 1006 q 563 872 594 922 q 469 822 531 822 q 397 842 426 822 q 351 872 368 861 q 319 894 339 881 q 278 908 300 908 q 242 886 253 908 q 228 819 231 864 z "},"ə":{"ha":721,"x_min":74,"x_max":646,"o":"m 342 -12 q 195 28 254 -12 q 105 147 136 69 q 74 333 74 224 l 74 390 l 535 390 l 535 290 l 175 290 l 193 318 q 232 146 193 196 q 344 96 271 96 q 431 122 394 96 q 489 199 468 147 q 510 328 510 250 l 510 365 q 486 496 510 447 q 417 567 463 544 q 306 589 372 589 q 217 577 264 589 q 135 532 169 565 l 88 632 q 196 689 138 672 q 313 706 254 706 q 494 667 419 706 q 607 549 568 628 q 646 346 646 469 q 612 159 646 240 q 510 33 578 78 q 342 -12 443 -12 z "},"ʒ":{"ha":696,"x_min":43,"x_max":635,"o":"m 317 -267 q 165 -244 239 -267 q 43 -179 90 -221 l 88 -72 q 184 -128 128 -108 q 303 -147 240 -147 q 445 -106 396 -147 q 494 25 494 -64 q 439 156 494 117 q 283 196 383 196 l 186 196 l 182 281 l 469 618 l 468 575 l 69 575 l 69 692 l 593 692 l 593 600 l 321 275 l 290 301 l 340 301 q 558 232 482 301 q 635 32 635 163 q 597 -126 635 -60 q 488 -230 558 -193 q 317 -267 417 -267 z "},"ǯ":{"ha":696,"x_min":43,"x_max":635,"o":"m 317 -267 q 165 -244 239 -267 q 43 -179 90 -221 l 88 -72 q 184 -128 128 -108 q 303 -147 240 -147 q 445 -106 396 -147 q 494 25 494 -64 q 439 156 494 117 q 283 196 383 196 l 186 196 l 182 281 l 469 618 l 468 575 l 69 575 l 69 692 l 593 692 l 593 600 l 321 275 l 290 301 l 340 301 q 558 232 482 301 q 635 32 635 163 q 597 -126 635 -60 q 488 -230 558 -193 q 317 -267 417 -267 m 264 778 l 133 1036 l 243 1036 l 331 867 l 419 1036 l 528 1036 l 397 778 l 264 778 z "},"f":{"ha":508,"x_min":32,"x_max":494,"o":"m 146 0 l 146 583 l 32 583 l 32 692 l 182 692 l 146 653 l 146 714 q 213 912 146 846 q 411 985 279 978 l 485 989 l 494 871 l 411 867 q 349 854 378 864 q 305 817 321 844 q 289 733 289 790 l 289 669 l 251 692 l 465 692 l 465 583 l 289 583 l 289 0 l 146 0 z "},"g":{"ha":778,"x_min":75,"x_max":672,"o":"m 351 -262 q 225 -242 292 -262 q 107 -185 158 -221 l 149 -74 q 216 -110 181 -94 q 287 -134 251 -125 q 353 -143 322 -143 q 491 -96 443 -143 q 539 47 539 -49 l 539 171 l 531 171 q 460 64 507 103 q 339 25 414 25 q 199 65 258 25 q 107 181 139 104 q 75 365 75 257 q 107 549 75 472 q 199 665 139 625 q 340 706 258 706 q 462 666 414 706 q 535 553 510 626 l 540 553 l 540 692 l 672 692 l 672 51 q 634 -115 672 -44 q 524 -224 596 -186 q 351 -262 453 -262 m 375 140 q 494 198 454 140 q 533 365 533 256 q 494 533 533 476 q 375 590 454 590 q 256 534 296 590 q 215 365 215 478 q 256 197 215 254 q 375 140 296 140 z "},"ğ":{"ha":778,"x_min":75,"x_max":672,"o":"m 351 -262 q 225 -242 292 -262 q 107 -185 158 -221 l 149 -74 q 216 -110 181 -94 q 287 -134 251 -125 q 353 -143 322 -143 q 491 -96 443 -143 q 539 47 539 -49 l 539 171 l 531 171 q 460 64 507 103 q 339 25 414 25 q 199 65 258 25 q 107 181 139 104 q 75 365 75 257 q 107 549 75 472 q 199 665 139 625 q 340 706 258 706 q 462 666 414 706 q 535 553 510 626 l 540 553 l 540 692 l 672 692 l 672 51 q 634 -115 672 -44 q 524 -224 596 -186 q 351 -262 453 -262 m 375 140 q 494 198 454 140 q 533 365 533 256 q 494 533 533 476 q 375 590 454 590 q 256 534 296 590 q 215 365 215 478 q 256 197 215 254 q 375 140 296 140 m 368 775 q 258 805 300 775 q 195 893 215 835 q 172 1033 175 951 l 267 1042 q 292 917 271 957 q 368 878 313 878 q 444 917 422 878 q 469 1042 465 957 l 564 1033 q 542 893 563 951 q 478 805 521 835 q 368 775 436 775 z "},"ǧ":{"ha":778,"x_min":75,"x_max":672,"o":"m 351 -262 q 225 -242 292 -262 q 107 -185 158 -221 l 149 -74 q 216 -110 181 -94 q 287 -134 251 -125 q 353 -143 322 -143 q 491 -96 443 -143 q 539 47 539 -49 l 539 171 l 531 171 q 460 64 507 103 q 339 25 414 25 q 199 65 258 25 q 107 181 139 104 q 75 365 75 257 q 107 549 75 472 q 199 665 139 625 q 340 706 258 706 q 462 666 414 706 q 535 553 510 626 l 540 553 l 540 692 l 672 692 l 672 51 q 634 -115 672 -44 q 524 -224 596 -186 q 351 -262 453 -262 m 375 140 q 494 198 454 140 q 533 365 533 256 q 494 533 533 476 q 375 590 454 590 q 256 534 296 590 q 215 365 215 478 q 256 197 215 254 q 375 140 296 140 m 301 778 l 171 1036 l 281 1036 l 368 867 l 457 1036 l 565 1036 l 435 778 l 301 778 z "},"ĝ":{"ha":778,"x_min":75,"x_max":672,"o":"m 351 -262 q 225 -242 292 -262 q 107 -185 158 -221 l 149 -74 q 216 -110 181 -94 q 287 -134 251 -125 q 353 -143 322 -143 q 491 -96 443 -143 q 539 47 539 -49 l 539 171 l 531 171 q 460 64 507 103 q 339 25 414 25 q 199 65 258 25 q 107 181 139 104 q 75 365 75 257 q 107 549 75 472 q 199 665 139 625 q 340 706 258 706 q 462 666 414 706 q 535 553 510 626 l 540 553 l 540 692 l 672 692 l 672 51 q 634 -115 672 -44 q 524 -224 596 -186 q 351 -262 453 -262 m 375 140 q 494 198 454 140 q 533 365 533 256 q 494 533 533 476 q 375 590 454 590 q 256 534 296 590 q 215 365 215 478 q 256 197 215 254 q 375 140 296 140 m 171 785 l 301 1036 l 435 1036 l 565 785 l 457 785 l 368 947 l 281 785 l 171 785 z "},"ģ":{"ha":778,"x_min":75,"x_max":672,"o":"m 351 -262 q 225 -242 292 -262 q 107 -185 158 -221 l 149 -74 q 216 -110 181 -94 q 287 -134 251 -125 q 353 -143 322 -143 q 491 -96 443 -143 q 539 47 539 -49 l 539 171 l 531 171 q 460 64 507 103 q 339 25 414 25 q 199 65 258 25 q 107 181 139 104 q 75 365 75 257 q 107 549 75 472 q 199 665 139 625 q 340 706 258 706 q 462 666 414 706 q 535 553 510 626 l 540 553 l 540 692 l 672 692 l 672 51 q 634 -115 672 -44 q 524 -224 596 -186 q 351 -262 453 -262 m 375 140 q 494 198 454 140 q 533 365 533 256 q 494 533 533 476 q 375 590 454 590 q 256 534 296 590 q 215 365 215 478 q 256 197 215 254 q 375 140 296 140 m 293 804 l 293 908 q 308 1018 293 967 q 361 1108 324 1069 l 421 1064 q 381 994 393 1031 q 369 922 369 958 l 343 943 l 443 943 l 443 804 l 293 804 z "},"ġ":{"ha":778,"x_min":75,"x_max":672,"o":"m 351 -262 q 225 -242 292 -262 q 107 -185 158 -221 l 149 -74 q 216 -110 181 -94 q 287 -134 251 -125 q 353 -143 322 -143 q 491 -96 443 -143 q 539 47 539 -49 l 539 171 l 531 171 q 460 64 507 103 q 339 25 414 25 q 199 65 258 25 q 107 181 139 104 q 75 365 75 257 q 107 549 75 472 q 199 665 139 625 q 340 706 258 706 q 462 666 414 706 q 535 553 510 626 l 540 553 l 540 692 l 672 692 l 672 51 q 634 -115 672 -44 q 524 -224 596 -186 q 351 -262 453 -262 m 375 140 q 494 198 454 140 q 533 365 533 256 q 494 533 533 476 q 375 590 454 590 q 256 534 296 590 q 215 365 215 478 q 256 197 215 254 q 375 140 296 140 m 293 853 l 293 999 l 443 999 l 443 853 l 293 853 z "},"ḡ":{"ha":778,"x_min":75,"x_max":672,"o":"m 351 -262 q 225 -242 292 -262 q 107 -185 158 -221 l 149 -74 q 216 -110 181 -94 q 287 -134 251 -125 q 353 -143 322 -143 q 491 -96 443 -143 q 539 47 539 -49 l 539 171 l 531 171 q 460 64 507 103 q 339 25 414 25 q 199 65 258 25 q 107 181 139 104 q 75 365 75 257 q 107 549 75 472 q 199 665 139 625 q 340 706 258 706 q 462 666 414 706 q 535 553 510 626 l 540 553 l 540 692 l 672 692 l 672 51 q 634 -115 672 -44 q 524 -224 596 -186 q 351 -262 453 -262 m 375 140 q 494 198 454 140 q 533 365 533 256 q 494 533 533 476 q 375 590 454 590 q 256 534 296 590 q 215 365 215 478 q 256 197 215 254 q 375 140 296 140 m 171 867 l 171 978 l 565 978 l 565 867 l 171 867 z "},"ǥ":{"ha":778,"x_min":75,"x_max":751,"o":"m 349 -262 q 222 -245 288 -262 q 104 -193 156 -228 l 140 -92 q 210 -123 174 -111 q 283 -140 247 -135 q 350 -146 319 -146 q 457 -125 415 -146 q 518 -57 499 -104 l 515 -75 l 319 -75 l 319 -6 l 554 -6 l 531 -7 q 535 17 535 4 q 536 43 536 29 l 536 208 l 528 208 q 457 98 506 138 q 336 58 408 58 q 194 97 253 58 q 106 206 136 135 q 75 379 75 278 q 106 555 75 482 q 194 667 136 628 q 336 706 253 706 q 460 663 408 706 q 533 546 511 621 l 540 549 l 540 692 l 672 692 l 672 51 q 670 6 672 26 q 664 -31 668 -15 l 644 -6 l 751 -6 l 751 -75 l 642 -75 l 658 -53 q 551 -211 632 -160 q 349 -262 469 -262 m 375 165 q 462 191 426 165 q 515 263 497 217 q 533 371 533 308 q 493 533 533 476 q 375 590 453 590 q 288 565 324 590 q 234 493 253 540 q 215 379 215 446 q 233 265 215 313 q 287 191 251 217 q 375 165 322 165 z "},"h":{"ha":765,"x_min":106,"x_max":660,"o":"m 106 0 l 106 979 l 242 979 l 242 568 l 253 568 q 327 665 276 624 q 451 706 378 706 q 562 679 515 706 q 634 598 608 653 q 660 454 660 543 l 660 0 l 518 0 l 518 444 q 505 523 518 493 q 467 568 492 553 q 406 583 442 583 q 328 562 364 583 q 271 503 293 540 q 249 421 249 467 l 249 0 l 106 0 z "},"ħ":{"ha":778,"x_min":26,"x_max":672,"o":"m 118 0 l 118 767 l 26 767 l 26 861 l 118 861 l 118 979 l 254 979 l 254 861 l 465 861 l 465 767 l 254 767 l 254 536 l 261 536 q 337 644 286 604 q 461 685 388 685 q 619 619 565 685 q 672 425 672 554 l 672 0 l 531 0 l 531 417 q 519 494 531 461 q 483 544 508 526 q 417 563 458 563 q 337 538 372 563 q 281 474 301 514 q 261 385 261 435 l 261 0 l 118 0 z "},"ḫ":{"ha":765,"x_min":106,"x_max":660,"o":"m 106 0 l 106 979 l 242 979 l 242 568 l 253 568 q 327 665 276 624 q 451 706 378 706 q 562 679 515 706 q 634 598 608 653 q 660 454 660 543 l 660 0 l 518 0 l 518 444 q 505 523 518 493 q 467 568 492 553 q 406 583 442 583 q 328 562 364 583 q 271 503 293 540 q 249 421 249 467 l 249 0 l 106 0 m 390 -285 q 244 -233 297 -285 q 189 -89 192 -181 l 281 -81 q 310 -160 283 -133 q 390 -186 338 -186 q 469 -160 442 -186 q 500 -81 497 -133 l 592 -89 q 538 -232 590 -179 q 390 -285 485 -285 z "},"ȟ":{"ha":765,"x_min":106,"x_max":660,"o":"m 106 0 l 106 979 l 242 979 l 242 568 l 253 568 q 327 665 276 624 q 451 706 378 706 q 562 679 515 706 q 634 598 608 653 q 660 454 660 543 l 660 0 l 518 0 l 518 444 q 505 523 518 493 q 467 568 492 553 q 406 583 442 583 q 328 562 364 583 q 271 503 293 540 q 249 421 249 467 l 249 0 l 106 0 m 301 1063 l 160 1281 l 271 1281 l 367 1144 l 464 1281 l 574 1281 l 432 1063 l 301 1063 z "},"ĥ":{"ha":765,"x_min":106,"x_max":660,"o":"m 106 0 l 106 979 l 242 979 l 242 568 l 253 568 q 327 665 276 624 q 451 706 378 706 q 562 679 515 706 q 634 598 608 653 q 660 454 660 543 l 660 0 l 518 0 l 518 444 q 505 523 518 493 q 467 568 492 553 q 406 583 442 583 q 328 562 364 583 q 271 503 293 540 q 249 421 249 467 l 249 0 l 106 0 m 160 1063 l 301 1281 l 432 1281 l 574 1063 l 463 1063 l 367 1199 l 269 1063 l 160 1063 z "},"ḥ":{"ha":765,"x_min":106,"x_max":660,"o":"m 106 0 l 106 979 l 242 979 l 242 568 l 253 568 q 327 665 276 624 q 451 706 378 706 q 562 679 515 706 q 634 598 608 653 q 660 454 660 543 l 660 0 l 518 0 l 518 444 q 505 523 518 493 q 467 568 492 553 q 406 583 442 583 q 328 562 364 583 q 271 503 293 540 q 249 421 249 467 l 249 0 l 106 0 m 315 -275 l 315 -129 l 465 -129 l 465 -275 l 315 -275 z "},"i":{"ha":356,"x_min":94,"x_max":258,"o":"m 94 849 l 94 1001 l 258 1001 l 258 849 l 94 849 m 106 0 l 106 692 l 249 692 l 249 0 l 106 0 z "},"ı":{"ha":356,"x_min":106,"x_max":249,"o":"m 106 0 l 106 692 l 249 692 l 249 0 l 106 0 z "},"í":{"ha":356,"x_min":106,"x_max":388,"o":"m 106 0 l 106 692 l 249 692 l 249 0 l 106 0 m 114 778 l 231 1036 l 388 1036 l 225 778 l 114 778 z "},"ĭ":{"ha":356,"x_min":-19,"x_max":372,"o":"m 106 0 l 106 692 l 249 692 l 249 0 l 106 0 m 176 775 q 66 805 108 775 q 3 893 24 835 q -19 1033 -17 951 l 75 1042 q 100 917 79 957 q 176 878 121 878 q 252 917 231 878 q 278 1042 274 957 l 372 1033 q 350 893 371 951 q 287 805 329 835 q 176 775 244 775 z "},"î":{"ha":356,"x_min":-21,"x_max":374,"o":"m 106 0 l 106 692 l 249 692 l 249 0 l 106 0 m -21 785 l 110 1036 l 243 1036 l 374 785 l 265 785 l 176 947 l 89 785 l -21 785 z "},"ȉ":{"ha":356,"x_min":-51,"x_max":310,"o":"m 106 0 l 106 692 l 249 692 l 249 0 l 106 0 m 225 778 l 125 1036 l 257 1036 l 310 778 l 225 778 m 50 778 l -51 1036 l 78 1036 l 132 778 l 50 778 z "},"ï":{"ha":356,"x_min":-21,"x_max":374,"o":"m 106 0 l 106 692 l 249 692 l 249 0 l 106 0 m 226 847 l 226 994 l 374 994 l 374 847 l 226 847 m -21 847 l -21 994 l 126 994 l 126 847 l -21 847 z "},"ḯ":{"ha":356,"x_min":-17,"x_max":372,"o":"m 106 0 l 106 692 l 249 692 l 249 0 l 106 0 m 119 956 l 218 1158 l 372 1158 l 222 956 l 119 956 m -17 783 l -17 906 l 132 906 l 132 783 l -17 783 m 221 783 l 221 906 l 369 906 l 369 783 l 221 783 z "},"ị":{"ha":356,"x_min":94,"x_max":258,"o":"m 94 849 l 94 1001 l 258 1001 l 258 849 l 94 849 m 106 0 l 106 692 l 249 692 l 249 0 l 106 0 m 99 -275 l 99 -129 l 249 -129 l 249 -275 l 99 -275 z "},"ì":{"ha":356,"x_min":-35,"x_max":249,"o":"m 106 0 l 106 692 l 249 692 l 249 0 l 106 0 m 128 783 l -35 1036 l 122 1036 l 239 783 l 128 783 z "},"ỉ":{"ha":356,"x_min":44,"x_max":319,"o":"m 106 0 l 106 692 l 249 692 l 249 0 l 106 0 m 124 783 l 124 814 q 134 863 124 843 q 157 897 144 882 q 180 926 169 911 q 190 963 190 942 q 178 992 190 982 q 142 1003 167 1003 q 106 998 125 1003 q 69 983 88 993 l 44 1056 q 106 1078 72 1071 q 179 1086 140 1086 q 284 1060 249 1086 q 319 982 319 1033 q 306 926 319 949 q 274 887 292 903 q 242 853 256 871 q 228 806 228 835 l 228 783 l 124 783 z "},"ȋ":{"ha":356,"x_min":-19,"x_max":372,"o":"m 106 0 l 106 692 l 249 692 l 249 0 l 106 0 m 75 775 l -19 783 q 3 924 -17 865 q 66 1012 24 982 q 176 1042 108 1042 q 287 1012 244 1042 q 350 924 329 982 q 372 783 371 865 l 278 775 q 253 899 274 858 q 176 939 232 939 q 100 899 121 939 q 75 775 79 858 z "},"ĳ":{"ha":682,"x_min":94,"x_max":601,"o":"m 94 849 l 94 1001 l 258 1001 l 258 849 l 94 849 m 106 0 l 106 692 l 249 692 l 249 0 l 106 0 m 439 849 l 439 1001 l 603 1001 l 603 849 l 439 849 m 310 -268 l 297 -150 l 356 -142 q 423 -116 397 -136 q 449 -25 449 -96 l 449 692 l 592 692 l 592 -24 q 581 -119 592 -78 q 547 -190 571 -161 q 481 -235 524 -218 q 374 -261 438 -251 l 310 -268 z "},"ī":{"ha":356,"x_min":-21,"x_max":374,"o":"m 106 0 l 106 692 l 249 692 l 249 0 l 106 0 m -21 867 l -21 978 l 374 978 l 374 867 l -21 867 z "},"į":{"ha":356,"x_min":53,"x_max":293,"o":"m 106 0 l 106 692 l 249 692 l 249 0 l 106 0 m 94 849 l 94 1001 l 258 1001 l 258 849 l 94 849 m 196 -278 q 92 -244 131 -278 q 53 -149 53 -210 q 86 -42 53 -93 q 175 47 119 10 l 224 0 q 188 -33 203 -14 q 165 -75 172 -53 q 157 -121 157 -97 q 172 -170 157 -154 q 215 -186 188 -186 q 242 -183 226 -186 q 272 -172 257 -179 l 294 -256 q 246 -273 269 -268 q 196 -278 222 -278 z "},"ĩ":{"ha":356,"x_min":-47,"x_max":400,"o":"m 106 0 l 106 692 l 249 692 l 249 0 l 106 0 m 33 819 l -46 825 q -14 956 -46 906 q 78 1007 18 1007 q 149 988 119 1007 q 196 958 178 969 q 228 937 208 951 q 271 922 249 922 q 306 945 296 922 q 318 1011 317 968 l 399 1006 q 368 872 400 922 q 275 822 336 822 q 203 842 232 822 q 157 872 174 861 q 125 894 144 881 q 83 908 106 908 q 47 886 58 908 q 33 819 36 864 z "},"j":{"ha":326,"x_min":-58,"x_max":247,"o":"m 83 849 l 83 1001 l 247 1001 l 247 849 l 83 849 m -46 -268 l -58 -150 l 0 -142 q 67 -116 42 -136 q 93 -25 93 -96 l 93 692 l 236 692 l 236 -24 q 226 -119 236 -78 q 192 -190 215 -161 q 125 -235 168 -218 q 18 -261 82 -251 l -46 -268 z "},"ȷ":{"ha":326,"x_min":-58,"x_max":236,"o":"m -46 -268 l -58 -150 l 0 -142 q 67 -116 42 -136 q 93 -25 93 -96 l 93 692 l 236 692 l 236 -24 q 226 -119 236 -78 q 192 -190 215 -161 q 125 -235 168 -218 q 18 -261 82 -251 l -46 -268 z "},"ĵ":{"ha":326,"x_min":-58,"x_max":363,"o":"m -46 -268 l -58 -150 l 0 -142 q 67 -116 42 -136 q 93 -25 93 -96 l 93 692 l 236 692 l 236 -24 q 226 -119 236 -78 q 192 -190 215 -161 q 125 -235 168 -218 q 18 -261 82 -251 l -46 -268 m -32 785 l 99 1036 l 232 1036 l 363 785 l 254 785 l 165 947 l 78 785 l -32 785 z "},"k":{"ha":668,"x_min":106,"x_max":668,"o":"m 106 0 l 106 979 l 249 979 l 249 385 l 256 385 l 479 692 l 644 692 l 368 328 l 374 383 l 668 0 l 494 0 l 256 314 l 249 314 l 249 0 l 106 0 z "},"ǩ":{"ha":668,"x_min":106,"x_max":668,"o":"m 106 0 l 106 979 l 249 979 l 249 385 l 256 385 l 479 692 l 644 692 l 368 328 l 374 383 l 668 0 l 494 0 l 256 314 l 249 314 l 249 0 l 106 0 m 301 1063 l 160 1281 l 271 1281 l 367 1144 l 464 1281 l 574 1281 l 432 1063 l 301 1063 z "},"ķ":{"ha":668,"x_min":106,"x_max":668,"o":"m 106 0 l 106 979 l 249 979 l 249 385 l 256 385 l 479 692 l 644 692 l 368 328 l 374 383 l 668 0 l 494 0 l 256 314 l 249 314 l 249 0 l 106 0 m 347 -408 l 288 -367 q 326 -302 314 -337 q 338 -226 338 -267 l 360 -243 l 268 -243 l 268 -107 l 417 -107 l 417 -212 q 401 -319 417 -271 q 347 -408 386 -368 z "},"ĸ":{"ha":668,"x_min":106,"x_max":668,"o":"m 106 0 l 106 692 l 249 692 l 249 385 l 256 385 l 479 692 l 644 692 l 368 328 l 374 383 l 668 0 l 494 0 l 256 314 l 249 314 l 249 0 l 106 0 z "},"l":{"ha":415,"x_min":106,"x_max":397,"o":"m 293 -12 q 154 39 203 -12 q 106 196 106 90 l 106 979 l 249 979 l 249 204 q 254 153 249 176 q 276 116 260 131 q 322 101 293 101 q 358 103 340 101 q 389 110 376 106 l 397 4 q 347 -9 369 -6 q 293 -12 324 -12 z "},"ĺ":{"ha":415,"x_min":106,"x_max":422,"o":"m 293 -12 q 154 39 203 -12 q 106 196 106 90 l 106 979 l 249 979 l 249 204 q 254 153 249 176 q 276 116 260 131 q 322 101 293 101 q 358 103 340 101 q 389 110 376 106 l 397 4 q 347 -9 369 -6 q 293 -12 324 -12 m 118 1063 l 253 1285 l 422 1285 l 238 1063 l 118 1063 z "},"ľ":{"ha":415,"x_min":106,"x_max":417,"o":"m 293 -12 q 154 39 203 -12 q 106 196 106 90 l 106 979 l 249 979 l 249 204 q 254 153 249 176 q 276 116 260 131 q 322 101 293 101 q 358 103 340 101 q 389 110 376 106 l 397 4 q 347 -9 369 -6 q 293 -12 324 -12 m 304 708 l 304 979 l 418 979 l 389 708 l 304 708 z "},"ļ":{"ha":415,"x_min":106,"x_max":397,"o":"m 293 -12 q 154 39 203 -12 q 106 196 106 90 l 106 979 l 249 979 l 249 204 q 254 153 249 176 q 276 116 260 131 q 322 101 293 101 q 358 103 340 101 q 389 110 376 106 l 397 4 q 347 -9 369 -6 q 293 -12 324 -12 m 257 -407 l 197 -365 q 235 -301 224 -336 q 247 -225 247 -265 l 269 -242 l 178 -242 l 178 -106 l 326 -106 l 326 -211 q 311 -318 326 -269 q 257 -407 296 -367 z "},"ŀ":{"ha":490,"x_min":106,"x_max":504,"o":"m 293 -12 q 154 39 203 -12 q 106 196 106 90 l 106 979 l 249 979 l 249 204 q 254 153 249 176 q 276 116 260 131 q 322 101 293 101 q 358 103 340 101 q 389 110 376 106 l 397 4 q 347 -9 369 -6 q 293 -12 324 -12 m 340 426 l 340 571 l 504 571 l 504 426 l 340 426 z "},"ḷ":{"ha":415,"x_min":106,"x_max":397,"o":"m 293 -12 q 154 39 203 -12 q 106 196 106 90 l 106 979 l 249 979 l 249 204 q 254 153 249 176 q 276 116 260 131 q 322 101 293 101 q 358 103 340 101 q 389 110 376 106 l 397 4 q 347 -9 369 -6 q 293 -12 324 -12 m 178 -274 l 178 -128 l 328 -128 l 328 -274 l 178 -274 z "},"ǉ":{"ha":742,"x_min":106,"x_max":663,"o":"m 293 -12 q 154 39 203 -12 q 106 196 106 90 l 106 979 l 249 979 l 249 204 q 254 153 249 176 q 276 116 260 131 q 322 101 293 101 q 358 103 340 101 q 389 110 376 106 l 397 4 q 347 -9 369 -6 q 293 -12 324 -12 m 499 849 l 499 1001 l 663 1001 l 663 849 l 499 849 m 369 -268 l 357 -150 l 415 -142 q 483 -116 457 -136 q 508 -25 508 -96 l 508 692 l 651 692 l 651 -24 q 641 -119 651 -78 q 607 -190 631 -161 q 540 -235 583 -218 q 433 -261 497 -251 l 369 -268 z "},"ḻ":{"ha":415,"x_min":56,"x_max":449,"o":"m 293 -12 q 154 39 203 -12 q 106 196 106 90 l 106 979 l 249 979 l 249 204 q 254 153 249 176 q 276 116 260 131 q 322 101 293 101 q 358 103 340 101 q 389 110 376 106 l 397 4 q 347 -9 369 -6 q 293 -12 324 -12 m 56 -239 l 56 -128 l 450 -128 l 450 -239 l 56 -239 z "},"ł":{"ha":415,"x_min":-21,"x_max":397,"o":"m 293 -12 q 154 39 203 -12 q 106 196 106 90 l 106 979 l 249 979 l 249 204 q 254 153 249 176 q 276 116 260 131 q 322 101 293 101 q 358 103 340 101 q 389 110 376 106 l 397 4 q 347 -9 369 -6 q 293 -12 324 -12 m 44 328 l -21 425 l 329 663 l 393 567 l 44 328 z "},"m":{"ha":1147,"x_min":108,"x_max":1039,"o":"m 108 0 l 108 692 l 235 692 l 235 560 l 243 560 q 288 631 258 599 q 357 685 317 664 q 447 706 397 706 q 566 668 517 706 q 628 569 615 631 l 640 569 q 711 665 663 624 q 839 706 760 706 q 944 680 899 706 q 1014 599 989 654 q 1039 454 1039 543 l 1039 0 l 899 0 l 899 442 q 873 552 899 521 q 797 583 847 583 q 717 563 753 583 q 663 506 682 542 q 643 425 643 471 l 643 0 l 504 0 l 504 442 q 474 551 504 519 q 403 583 443 583 q 324 560 358 583 q 269 501 290 536 q 249 429 249 465 l 249 0 l 108 0 z "},"ṃ":{"ha":1147,"x_min":108,"x_max":1039,"o":"m 108 0 l 108 692 l 235 692 l 235 560 l 243 560 q 288 631 258 599 q 357 685 317 664 q 447 706 397 706 q 566 668 517 706 q 628 569 615 631 l 640 569 q 711 665 663 624 q 839 706 760 706 q 944 680 899 706 q 1014 599 989 654 q 1039 454 1039 543 l 1039 0 l 899 0 l 899 442 q 873 552 899 521 q 797 583 847 583 q 717 563 753 583 q 663 506 682 542 q 643 425 643 471 l 643 0 l 504 0 l 504 442 q 474 551 504 519 q 403 583 443 583 q 324 560 358 583 q 269 501 290 536 q 249 429 249 465 l 249 0 l 108 0 m 499 -275 l 499 -129 l 649 -129 l 649 -275 l 499 -275 z "},"n":{"ha":765,"x_min":106,"x_max":660,"o":"m 106 0 l 106 692 l 235 692 l 235 563 l 243 563 q 324 664 269 622 q 451 706 378 706 q 563 679 515 706 q 635 598 610 653 q 660 454 660 543 l 660 0 l 518 0 l 518 444 q 506 523 518 493 q 468 568 493 553 q 406 583 443 583 q 328 562 364 583 q 271 503 293 540 q 249 421 249 467 l 249 0 l 106 0 z "},"ń":{"ha":765,"x_min":106,"x_max":660,"o":"m 106 0 l 106 692 l 235 692 l 235 563 l 243 563 q 324 664 269 622 q 451 706 378 706 q 563 679 515 706 q 635 598 610 653 q 660 454 660 543 l 660 0 l 518 0 l 518 444 q 506 523 518 493 q 468 568 493 553 q 406 583 443 583 q 328 562 364 583 q 271 503 293 540 q 249 421 249 467 l 249 0 l 106 0 m 326 778 l 443 1036 l 600 1036 l 438 778 l 326 778 z "},"ŉ":{"ha":831,"x_min":-111,"x_max":725,"o":"m -32 758 l -92 801 q -52 867 -65 831 q -39 943 -39 903 l -19 926 l -112 926 l -112 1060 l 42 1060 l 42 957 q 22 847 42 897 q -32 758 3 797 m 171 0 l 171 692 l 300 692 l 300 563 l 308 563 q 389 664 335 622 q 517 706 443 706 q 628 679 581 706 q 700 598 675 653 q 725 454 725 543 l 725 0 l 583 0 l 583 444 q 571 523 583 493 q 533 568 558 553 q 471 583 508 583 q 394 562 429 583 q 336 503 358 540 q 314 421 314 467 l 314 0 l 171 0 z "},"ň":{"ha":765,"x_min":106,"x_max":660,"o":"m 106 0 l 106 692 l 235 692 l 235 563 l 243 563 q 324 664 269 622 q 451 706 378 706 q 563 679 515 706 q 635 598 610 653 q 660 454 660 543 l 660 0 l 518 0 l 518 444 q 506 523 518 493 q 468 568 493 553 q 406 583 443 583 q 328 562 364 583 q 271 503 293 540 q 249 421 249 467 l 249 0 l 106 0 m 322 778 l 192 1036 l 301 1036 l 389 867 l 478 1036 l 586 1036 l 456 778 l 322 778 z "},"ņ":{"ha":765,"x_min":106,"x_max":660,"o":"m 106 0 l 106 692 l 235 692 l 235 563 l 243 563 q 324 664 269 622 q 451 706 378 706 q 563 679 515 706 q 635 598 610 653 q 660 454 660 543 l 660 0 l 518 0 l 518 444 q 506 523 518 493 q 468 568 493 553 q 406 583 443 583 q 328 562 364 583 q 271 503 293 540 q 249 421 249 467 l 249 0 l 106 0 m 378 -408 l 318 -367 q 356 -302 344 -337 q 368 -226 368 -267 l 390 -243 l 299 -243 l 299 -107 l 447 -107 l 447 -212 q 432 -319 447 -271 q 378 -408 417 -368 z "},"ṅ":{"ha":765,"x_min":106,"x_max":660,"o":"m 106 0 l 106 692 l 235 692 l 235 563 l 243 563 q 324 664 269 622 q 451 706 378 706 q 563 679 515 706 q 635 598 610 653 q 660 454 660 543 l 660 0 l 518 0 l 518 444 q 506 523 518 493 q 468 568 493 553 q 406 583 443 583 q 328 562 364 583 q 271 503 293 540 q 249 421 249 467 l 249 0 l 106 0 m 314 853 l 314 999 l 464 999 l 464 853 l 314 853 z "},"ṇ":{"ha":765,"x_min":106,"x_max":660,"o":"m 106 0 l 106 692 l 235 692 l 235 563 l 243 563 q 324 664 269 622 q 451 706 378 706 q 563 679 515 706 q 635 598 610 653 q 660 454 660 543 l 660 0 l 518 0 l 518 444 q 506 523 518 493 q 468 568 493 553 q 406 583 443 583 q 328 562 364 583 q 271 503 293 540 q 249 421 249 467 l 249 0 l 106 0 m 299 -275 l 299 -129 l 449 -129 l 449 -275 l 299 -275 z "},"ǌ":{"ha":1092,"x_min":106,"x_max":1013,"o":"m 106 0 l 106 692 l 235 692 l 235 563 l 243 563 q 324 664 269 622 q 451 706 378 706 q 563 679 515 706 q 635 598 610 653 q 660 454 660 543 l 660 0 l 518 0 l 518 444 q 506 523 518 493 q 468 568 493 553 q 406 583 443 583 q 328 562 364 583 q 271 503 293 540 q 249 421 249 467 l 249 0 l 106 0 m 849 849 l 849 1001 l 1013 1001 l 1013 849 l 849 849 m 719 -268 l 707 -150 l 765 -142 q 833 -116 807 -136 q 858 -25 858 -96 l 858 692 l 1001 692 l 1001 -24 q 991 -119 1001 -78 q 957 -190 981 -161 q 890 -235 933 -218 q 783 -261 847 -251 l 719 -268 z "},"ṉ":{"ha":765,"x_min":106,"x_max":660,"o":"m 106 0 l 106 692 l 235 692 l 235 563 l 243 563 q 324 664 269 622 q 451 706 378 706 q 563 679 515 706 q 635 598 610 653 q 660 454 660 543 l 660 0 l 518 0 l 518 444 q 506 523 518 493 q 468 568 493 553 q 406 583 443 583 q 328 562 364 583 q 271 503 293 540 q 249 421 249 467 l 249 0 l 106 0 m 176 -240 l 176 -129 l 571 -129 l 571 -240 l 176 -240 z "},"ñ":{"ha":765,"x_min":106,"x_max":660,"o":"m 106 0 l 106 692 l 235 692 l 235 563 l 243 563 q 324 664 269 622 q 451 706 378 706 q 563 679 515 706 q 635 598 610 653 q 660 454 660 543 l 660 0 l 518 0 l 518 444 q 506 523 518 493 q 468 568 493 553 q 406 583 443 583 q 328 562 364 583 q 271 503 293 540 q 249 421 249 467 l 249 0 l 106 0 m 246 819 l 167 825 q 199 956 167 906 q 290 1007 231 1007 q 361 988 332 1007 q 408 958 390 969 q 441 937 421 951 q 483 922 461 922 q 519 945 508 922 q 531 1011 529 968 l 611 1006 q 581 872 613 922 q 488 822 549 822 q 415 842 444 822 q 369 872 386 861 q 338 894 357 881 q 296 908 318 908 q 260 886 271 908 q 246 819 249 864 z "},"ŋ":{"ha":765,"x_min":106,"x_max":660,"o":"m 378 -268 l 367 -150 l 425 -142 q 492 -116 467 -136 q 518 -25 518 -96 l 518 444 q 506 523 518 493 q 468 568 493 553 q 404 583 443 583 q 328 562 363 583 q 271 503 293 540 q 249 421 249 467 l 249 0 l 106 0 l 106 692 l 235 692 l 235 563 l 243 563 q 323 664 269 622 q 450 706 376 706 q 561 679 514 706 q 634 598 608 653 q 660 454 660 543 l 660 -32 q 649 -124 660 -85 q 615 -192 639 -164 q 548 -236 590 -219 q 442 -261 506 -253 l 378 -268 z "},"o":{"ha":744,"x_min":75,"x_max":669,"o":"m 374 -12 q 213 28 279 -12 q 110 150 146 69 q 75 347 75 231 q 110 542 75 463 q 213 664 146 622 q 372 706 279 706 q 533 664 468 706 q 634 542 599 622 q 669 347 669 463 q 635 150 669 231 q 534 28 600 69 q 374 -12 468 -12 m 372 108 q 490 167 450 108 q 531 347 531 226 q 490 526 531 469 q 374 583 450 583 q 255 526 296 583 q 214 347 214 469 q 255 167 214 226 q 372 108 296 108 z "},"ó":{"ha":744,"x_min":75,"x_max":669,"o":"m 374 -12 q 213 28 279 -12 q 110 150 146 69 q 75 347 75 231 q 110 542 75 463 q 213 664 146 622 q 372 706 279 706 q 533 664 468 706 q 634 542 599 622 q 669 347 669 463 q 635 150 669 231 q 534 28 600 69 q 374 -12 468 -12 m 372 108 q 490 167 450 108 q 531 347 531 226 q 490 526 531 469 q 374 583 450 583 q 255 526 296 583 q 214 347 214 469 q 255 167 214 226 q 372 108 296 108 m 311 778 l 428 1036 l 585 1036 l 422 778 l 311 778 z "},"ŏ":{"ha":744,"x_min":75,"x_max":669,"o":"m 374 -12 q 213 28 279 -12 q 110 150 146 69 q 75 347 75 231 q 110 542 75 463 q 213 664 146 622 q 372 706 279 706 q 533 664 468 706 q 634 542 599 622 q 669 347 669 463 q 635 150 669 231 q 534 28 600 69 q 374 -12 468 -12 m 372 108 q 490 167 450 108 q 531 347 531 226 q 490 526 531 469 q 374 583 450 583 q 255 526 296 583 q 214 347 214 469 q 255 167 214 226 q 372 108 296 108 m 374 775 q 263 805 306 775 q 201 893 221 835 q 178 1033 181 951 l 272 1042 q 297 917 276 957 q 374 878 318 878 q 449 917 428 878 q 475 1042 471 957 l 569 1033 q 547 893 568 951 q 484 805 526 835 q 374 775 442 775 z "},"ô":{"ha":744,"x_min":75,"x_max":669,"o":"m 374 -12 q 213 28 279 -12 q 110 150 146 69 q 75 347 75 231 q 110 542 75 463 q 213 664 146 622 q 372 706 279 706 q 533 664 468 706 q 634 542 599 622 q 669 347 669 463 q 635 150 669 231 q 534 28 600 69 q 374 -12 468 -12 m 372 108 q 490 167 450 108 q 531 347 531 226 q 490 526 531 469 q 374 583 450 583 q 255 526 296 583 q 214 347 214 469 q 255 167 214 226 q 372 108 296 108 m 176 785 l 307 1036 l 440 1036 l 571 785 l 463 785 l 374 947 l 286 785 l 176 785 z "},"ố":{"ha":744,"x_min":75,"x_max":706,"o":"m 374 -12 q 213 28 279 -12 q 110 150 146 69 q 75 347 75 231 q 110 542 75 463 q 213 664 146 622 q 372 706 279 706 q 533 664 468 706 q 634 542 599 622 q 669 347 669 463 q 635 150 669 231 q 534 28 600 69 q 374 -12 468 -12 m 372 108 q 490 167 450 108 q 531 347 531 226 q 490 526 531 469 q 374 583 450 583 q 255 526 296 583 q 214 347 214 469 q 255 167 214 226 q 372 108 296 108 m 178 789 l 310 1013 l 442 1013 l 574 789 l 467 789 l 375 929 l 283 789 l 178 789 m 504 957 l 585 1168 l 706 1168 l 592 957 l 504 957 z "},"ộ":{"ha":744,"x_min":75,"x_max":669,"o":"m 374 -12 q 213 28 279 -12 q 110 150 146 69 q 75 347 75 231 q 110 542 75 463 q 213 664 146 622 q 372 706 279 706 q 533 664 468 706 q 634 542 599 622 q 669 347 669 463 q 635 150 669 231 q 534 28 600 69 q 374 -12 468 -12 m 372 108 q 490 167 450 108 q 531 347 531 226 q 490 526 531 469 q 374 583 450 583 q 255 526 296 583 q 214 347 214 469 q 255 167 214 226 q 372 108 296 108 m 299 -281 l 299 -135 l 449 -135 l 449 -281 l 299 -281 m 176 785 l 307 1036 l 440 1036 l 571 785 l 463 785 l 374 947 l 286 785 l 176 785 z "},"ồ":{"ha":744,"x_min":75,"x_max":669,"o":"m 374 -12 q 213 28 279 -12 q 110 150 146 69 q 75 347 75 231 q 110 542 75 463 q 213 664 146 622 q 372 706 279 706 q 533 664 468 706 q 634 542 599 622 q 669 347 669 463 q 635 150 669 231 q 534 28 600 69 q 374 -12 468 -12 m 372 108 q 490 167 450 108 q 531 347 531 226 q 490 526 531 469 q 374 583 450 583 q 255 526 296 583 q 214 347 214 469 q 255 167 214 226 q 372 108 296 108 m 178 789 l 310 1013 l 442 1013 l 574 789 l 467 789 l 375 929 l 283 789 l 178 789 m 547 957 l 435 1168 l 556 1168 l 635 957 l 547 957 z "},"ổ":{"ha":744,"x_min":75,"x_max":669,"o":"m 374 -12 q 213 28 279 -12 q 110 150 146 69 q 75 347 75 231 q 110 542 75 463 q 213 664 146 622 q 372 706 279 706 q 533 664 468 706 q 634 542 599 622 q 669 347 669 463 q 635 150 669 231 q 534 28 600 69 q 374 -12 468 -12 m 372 108 q 490 167 450 108 q 531 347 531 226 q 490 526 531 469 q 374 583 450 583 q 255 526 296 583 q 214 347 214 469 q 255 167 214 226 q 372 108 296 108 m 178 794 l 310 1018 l 442 1018 l 574 794 l 467 794 l 375 935 l 283 794 l 178 794 m 503 965 q 511 1003 503 988 q 531 1033 519 1019 q 551 1058 543 1046 q 560 1083 560 1071 q 547 1106 560 1099 q 513 1114 535 1114 q 482 1108 499 1114 q 453 1094 465 1103 l 433 1157 q 484 1179 454 1171 q 553 1188 514 1188 q 635 1167 606 1188 q 665 1110 665 1146 q 654 1065 665 1083 q 628 1033 643 1047 q 601 1003 613 1019 q 589 965 589 988 l 503 965 z "},"ỗ":{"ha":744,"x_min":75,"x_max":669,"o":"m 374 -12 q 213 28 279 -12 q 110 150 146 69 q 75 347 75 231 q 110 542 75 463 q 213 664 146 622 q 372 706 279 706 q 533 664 468 706 q 634 542 599 622 q 669 347 669 463 q 635 150 669 231 q 534 28 600 69 q 374 -12 468 -12 m 372 108 q 490 167 450 108 q 531 347 531 226 q 490 526 531 469 q 374 583 450 583 q 255 526 296 583 q 214 347 214 469 q 255 167 214 226 q 372 108 296 108 m 175 789 l 308 988 l 440 988 l 572 789 l 464 789 l 374 911 l 283 789 l 175 789 m 244 1032 l 168 1038 q 183 1116 171 1083 q 221 1168 194 1149 q 289 1188 247 1188 q 350 1172 325 1188 q 390 1147 375 1157 q 417 1130 399 1142 q 456 1118 435 1118 q 488 1136 476 1118 q 503 1189 500 1154 l 581 1182 q 547 1074 575 1115 q 456 1033 518 1033 q 396 1048 419 1033 q 361 1069 372 1063 q 325 1092 340 1083 q 292 1101 310 1101 q 262 1085 274 1101 q 244 1032 250 1068 z "},"ȍ":{"ha":744,"x_min":75,"x_max":669,"o":"m 374 -12 q 213 28 279 -12 q 110 150 146 69 q 75 347 75 231 q 110 542 75 463 q 213 664 146 622 q 372 706 279 706 q 533 664 468 706 q 634 542 599 622 q 669 347 669 463 q 635 150 669 231 q 534 28 600 69 q 374 -12 468 -12 m 372 108 q 490 167 450 108 q 531 347 531 226 q 490 526 531 469 q 374 583 450 583 q 255 526 296 583 q 214 347 214 469 q 255 167 214 226 q 372 108 296 108 m 422 778 l 322 1036 l 454 1036 l 507 778 l 422 778 m 247 778 l 146 1036 l 275 1036 l 329 778 l 247 778 z "},"ö":{"ha":744,"x_min":75,"x_max":669,"o":"m 374 -12 q 213 28 279 -12 q 110 150 146 69 q 75 347 75 231 q 110 542 75 463 q 213 664 146 622 q 372 706 279 706 q 533 664 468 706 q 634 542 599 622 q 669 347 669 463 q 635 150 669 231 q 534 28 600 69 q 374 -12 468 -12 m 372 108 q 490 167 450 108 q 531 347 531 226 q 490 526 531 469 q 374 583 450 583 q 255 526 296 583 q 214 347 214 469 q 255 167 214 226 q 372 108 296 108 m 424 847 l 424 994 l 571 994 l 571 847 l 424 847 m 176 847 l 176 994 l 324 994 l 324 847 l 176 847 z "},"ȫ":{"ha":744,"x_min":75,"x_max":669,"o":"m 374 -12 q 213 28 279 -12 q 110 150 146 69 q 75 347 75 231 q 110 542 75 463 q 213 664 146 622 q 372 706 279 706 q 533 664 468 706 q 634 542 599 622 q 669 347 669 463 q 635 150 669 231 q 534 28 600 69 q 374 -12 468 -12 m 372 108 q 490 167 450 108 q 531 347 531 226 q 490 526 531 469 q 374 583 450 583 q 255 526 296 583 q 214 347 214 469 q 255 167 214 226 q 372 108 296 108 m 176 1014 l 176 1117 l 571 1117 l 571 1014 l 176 1014 m 181 811 l 181 933 l 329 933 l 329 811 l 181 811 m 418 811 l 418 933 l 567 933 l 567 811 l 418 811 z "},"ȱ":{"ha":744,"x_min":75,"x_max":669,"o":"m 374 -12 q 213 28 279 -12 q 110 150 146 69 q 75 347 75 231 q 110 542 75 463 q 213 664 146 622 q 372 706 279 706 q 533 664 468 706 q 634 542 599 622 q 669 347 669 463 q 635 150 669 231 q 534 28 600 69 q 374 -12 468 -12 m 372 108 q 490 167 450 108 q 531 347 531 226 q 490 526 531 469 q 374 583 450 583 q 255 526 296 583 q 214 347 214 469 q 255 167 214 226 q 372 108 296 108 m 185 1024 l 185 1125 l 563 1125 l 563 1024 l 185 1024 m 299 810 l 299 943 l 450 943 l 450 810 l 299 810 z "},"ọ":{"ha":744,"x_min":75,"x_max":669,"o":"m 374 -12 q 213 28 279 -12 q 110 150 146 69 q 75 347 75 231 q 110 542 75 463 q 213 664 146 622 q 372 706 279 706 q 533 664 468 706 q 634 542 599 622 q 669 347 669 463 q 635 150 669 231 q 534 28 600 69 q 374 -12 468 -12 m 372 108 q 490 167 450 108 q 531 347 531 226 q 490 526 531 469 q 374 583 450 583 q 255 526 296 583 q 214 347 214 469 q 255 167 214 226 q 372 108 296 108 m 299 -281 l 299 -135 l 449 -135 l 449 -281 l 299 -281 z "},"ò":{"ha":744,"x_min":75,"x_max":669,"o":"m 374 -12 q 213 28 279 -12 q 110 150 146 69 q 75 347 75 231 q 110 542 75 463 q 213 664 146 622 q 372 706 279 706 q 533 664 468 706 q 634 542 599 622 q 669 347 669 463 q 635 150 669 231 q 534 28 600 69 q 374 -12 468 -12 m 372 108 q 490 167 450 108 q 531 347 531 226 q 490 526 531 469 q 374 583 450 583 q 255 526 296 583 q 214 347 214 469 q 255 167 214 226 q 372 108 296 108 m 325 783 l 163 1036 l 319 1036 l 436 783 l 325 783 z "},"ỏ":{"ha":744,"x_min":75,"x_max":669,"o":"m 374 -12 q 213 28 279 -12 q 110 150 146 69 q 75 347 75 231 q 110 542 75 463 q 213 664 146 622 q 372 706 279 706 q 533 664 468 706 q 634 542 599 622 q 669 347 669 463 q 635 150 669 231 q 534 28 600 69 q 374 -12 468 -12 m 372 108 q 490 167 450 108 q 531 347 531 226 q 490 526 531 469 q 374 583 450 583 q 255 526 296 583 q 214 347 214 469 q 255 167 214 226 q 372 108 296 108 m 321 783 l 321 814 q 331 863 321 843 q 354 897 342 882 q 377 926 367 911 q 388 963 388 942 q 376 992 388 982 q 339 1003 364 1003 q 303 998 322 1003 q 267 983 285 993 l 242 1056 q 303 1078 269 1071 q 376 1086 338 1086 q 481 1060 446 1086 q 517 982 517 1033 q 503 926 517 949 q 471 887 489 903 q 439 853 453 871 q 425 806 425 835 l 425 783 l 321 783 z "},"ơ":{"ha":744,"x_min":75,"x_max":681,"o":"m 374 -12 q 213 28 279 -12 q 110 150 146 69 q 75 347 75 231 q 110 542 75 463 q 213 664 146 622 q 372 706 279 706 q 533 664 468 706 q 634 542 599 622 q 669 347 669 463 q 635 150 669 231 q 534 28 600 69 q 374 -12 468 -12 m 372 108 q 490 167 450 108 q 531 347 531 226 q 490 526 531 469 q 374 583 450 583 q 255 526 296 583 q 214 347 214 469 q 255 167 214 226 q 372 108 296 108 m 531 613 l 446 668 l 446 692 q 510 708 488 693 q 542 754 533 722 q 551 842 551 786 l 551 863 l 681 863 l 681 822 q 663 715 681 760 q 613 645 646 671 q 531 613 579 619 z "},"ớ":{"ha":744,"x_min":75,"x_max":681,"o":"m 374 -12 q 213 28 279 -12 q 110 150 146 69 q 75 347 75 231 q 110 542 75 463 q 213 664 146 622 q 372 706 279 706 q 533 664 468 706 q 634 542 599 622 q 669 347 669 463 q 635 150 669 231 q 534 28 600 69 q 374 -12 468 -12 m 372 108 q 490 167 450 108 q 531 347 531 226 q 490 526 531 469 q 374 583 450 583 q 255 526 296 583 q 214 347 214 469 q 255 167 214 226 q 372 108 296 108 m 531 613 l 446 668 l 446 692 q 510 708 488 693 q 542 754 533 722 q 551 842 551 786 l 551 863 l 681 863 l 681 822 q 663 715 681 760 q 613 645 646 671 q 531 613 579 619 m 300 778 l 417 1036 l 574 1036 l 411 778 l 300 778 z "},"ợ":{"ha":744,"x_min":75,"x_max":681,"o":"m 374 -12 q 213 28 279 -12 q 110 150 146 69 q 75 347 75 231 q 110 542 75 463 q 213 664 146 622 q 372 706 279 706 q 533 664 468 706 q 634 542 599 622 q 669 347 669 463 q 635 150 669 231 q 534 28 600 69 q 374 -12 468 -12 m 372 108 q 490 167 450 108 q 531 347 531 226 q 490 526 531 469 q 374 583 450 583 q 255 526 296 583 q 214 347 214 469 q 255 167 214 226 q 372 108 296 108 m 531 613 l 446 668 l 446 692 q 510 708 488 693 q 542 754 533 722 q 551 842 551 786 l 551 863 l 681 863 l 681 822 q 663 715 681 760 q 613 645 646 671 q 531 613 579 619 m 297 -275 l 297 -129 l 447 -129 l 447 -275 l 297 -275 z "},"ờ":{"ha":744,"x_min":75,"x_max":681,"o":"m 374 -12 q 213 28 279 -12 q 110 150 146 69 q 75 347 75 231 q 110 542 75 463 q 213 664 146 622 q 372 706 279 706 q 533 664 468 706 q 634 542 599 622 q 669 347 669 463 q 635 150 669 231 q 534 28 600 69 q 374 -12 468 -12 m 372 108 q 490 167 450 108 q 531 347 531 226 q 490 526 531 469 q 374 583 450 583 q 255 526 296 583 q 214 347 214 469 q 255 167 214 226 q 372 108 296 108 m 531 613 l 446 668 l 446 692 q 510 708 488 693 q 542 754 533 722 q 551 842 551 786 l 551 863 l 681 863 l 681 822 q 663 715 681 760 q 613 645 646 671 q 531 613 579 619 m 314 783 l 151 1036 l 308 1036 l 425 783 l 314 783 z "},"ở":{"ha":744,"x_min":75,"x_max":681,"o":"m 374 -12 q 213 28 279 -12 q 110 150 146 69 q 75 347 75 231 q 110 542 75 463 q 213 664 146 622 q 372 706 279 706 q 533 664 468 706 q 634 542 599 622 q 669 347 669 463 q 635 150 669 231 q 534 28 600 69 q 374 -12 468 -12 m 372 108 q 490 167 450 108 q 531 347 531 226 q 490 526 531 469 q 374 583 450 583 q 255 526 296 583 q 214 347 214 469 q 255 167 214 226 q 372 108 296 108 m 531 613 l 446 668 l 446 692 q 510 708 488 693 q 542 754 533 722 q 551 842 551 786 l 551 863 l 681 863 l 681 822 q 663 715 681 760 q 613 645 646 671 q 531 613 579 619 m 310 783 l 310 814 q 320 863 310 843 q 343 897 331 882 q 366 926 356 911 q 376 963 376 942 q 365 992 376 982 q 328 1003 353 1003 q 292 998 311 1003 q 256 983 274 993 l 231 1056 q 292 1078 258 1071 q 365 1086 326 1086 q 470 1060 435 1086 q 506 982 506 1033 q 492 926 506 949 q 460 887 478 903 q 428 853 442 871 q 414 806 414 835 l 414 783 l 310 783 z "}}}
